<svg width="48" height="46" viewBox="0 0 48 46" fill="none" xmlns="http://www.w3.org/2000/svg">
<path id="Vector" d="M47.0831 0.268555L43.8974 2.62487L34.8303 9.45818L23.8635 7.69L23.1283 7.57124L22.4539 7.98595L11.3048 15.1115L2.35928 13.4036L0.0322266 12.9323V45.391H47.0831V0.268555ZM43.1622 7.98407V18.1162L34.891 24.4198L24.1713 21.0022L23.2499 20.7082L22.4559 21.1794L11.5499 28.1899L3.95313 25.2436V17.53L11.4283 18.9438L12.2243 19.121L12.8987 18.7062L23.987 11.5807L35.0146 13.347L35.8713 13.4658L36.5457 12.9342L43.1622 7.98407ZM43.1622 22.9476V41.6209H3.95313V29.3681L11.0598 32.0788L12.04 32.4313L12.8987 31.9016L23.9243 24.8327L34.7068 28.3068L35.687 28.6612L36.5457 28.0127L43.1622 22.9476Z" fill="white"/>
</svg>
