<svg width="81" height="81" viewBox="0 0 81 81" fill="none" xmlns="http://www.w3.org/2000/svg">
<path d="M51.2119 53.0166L54.7869 60.7041C54.7869 60.7041 70.8577 64.1166 70.8577 72.2333C70.8577 77.9999 63.7077 77.9999 63.7077 77.9999H44.666L35.291 72.7916" stroke="white" stroke-width="5.67278" stroke-linecap="round" stroke-linejoin="round"/>
<path d="M29.7865 53.0166L26.2156 60.7041C26.2156 60.7041 10.1406 64.1166 10.1406 72.2333C10.1406 77.9999 17.2906 77.9999 17.2906 77.9999H25.9156L35.2906 72.7916L46.749 65.4999" stroke="white" stroke-width="5.67278" stroke-linecap="round" stroke-linejoin="round"/>
<path d="M3 56.8583C3 56.8583 11.9292 54.9375 17.2875 53.0167C22.6417 26.1083 38.7083 28.0292 40.5 28.0292C42.2917 28.0292 58.3583 26.1083 63.7125 53.0167C69.0708 54.9333 78 56.8583 78 56.8583M40.5 19.6667C42.7101 19.6667 44.8298 18.7887 46.3926 17.2259C47.9554 15.6631 48.8333 13.5435 48.8333 11.3333C48.8333 9.1232 47.9554 7.00358 46.3926 5.44078C44.8298 3.87797 42.7101 3 40.5 3C38.2899 3 36.1702 3.87797 34.6074 5.44078C33.0446 7.00358 32.1667 9.1232 32.1667 11.3333C32.1667 13.5435 33.0446 15.6631 34.6074 17.2259C36.1702 18.7887 38.2899 19.6667 40.5 19.6667Z" stroke="white" stroke-width="5.67278" stroke-linecap="round" stroke-linejoin="round"/>
</svg>
