<svg width="76" height="76" viewBox="0 0 76 76" fill="none" xmlns="http://www.w3.org/2000/svg">
<path d="M40.0227 73.4788L39.9815 73.486L39.7152 73.6121L39.6402 73.6265L39.5877 73.6121L39.3215 73.486C39.2815 73.474 39.2515 73.48 39.2315 73.504L39.2165 73.54L39.1527 75.0822L39.1715 75.1543L39.209 75.2012L39.599 75.4678L39.6552 75.4822L39.7002 75.4678L40.0902 75.2012L40.1352 75.1435L40.1502 75.0822L40.0865 73.5436C40.0765 73.5052 40.0552 73.4836 40.0227 73.4788ZM41.0165 73.0716L40.9677 73.0788L40.274 73.4139L40.2365 73.4499L40.2252 73.4896L40.2927 75.039L40.3115 75.0822L40.3415 75.1075L41.0952 75.4426C41.1427 75.4546 41.179 75.445 41.204 75.4138L41.219 75.3633L41.0915 73.1509C41.079 73.1076 41.054 73.0812 41.0165 73.0716ZM38.3352 73.0788C38.3187 73.0692 38.299 73.066 38.2801 73.0701C38.2612 73.0741 38.2447 73.085 38.234 73.1004L38.2115 73.1509L38.084 75.3633C38.0865 75.4065 38.1077 75.4354 38.1477 75.4498L38.204 75.4426L38.9577 75.1075L38.9952 75.0786L39.0102 75.039L39.074 73.4896L39.0627 73.4463L39.0252 73.4103L38.3352 73.0788Z" fill="white"/>
<path d="M37.7988 0.482422C38.7934 0.482422 39.7472 0.862057 40.4505 1.53781C41.1537 2.21357 41.5488 3.13009 41.5488 4.08575V7.68908H47.1738C54.633 7.68908 61.7867 10.5363 67.0612 15.6045C72.3357 20.6727 75.2988 27.5466 75.2988 34.7141C75.2988 41.8815 72.3357 48.7554 67.0612 53.8236C61.7867 58.8918 54.633 61.739 47.1738 61.739H28.4238C20.9646 61.739 13.8109 58.8918 8.53645 53.8236C3.26199 48.7554 0.298828 41.8815 0.298828 34.7141C0.298828 27.5466 3.26199 20.6727 8.53645 15.6045C13.8109 10.5363 20.9646 7.68908 28.4238 7.68908H34.0488V4.08575C34.0488 3.13009 34.4439 2.21357 35.1472 1.53781C35.8504 0.862057 36.8043 0.482422 37.7988 0.482422ZM47.1738 14.8957H28.4238C22.9537 14.8957 17.7077 16.9837 13.8398 20.7004C9.97181 24.417 7.79883 29.4579 7.79883 34.7141C7.79883 39.9702 9.97181 45.0111 13.8398 48.7277C17.7077 52.4444 22.9537 54.5324 28.4238 54.5324H47.1738C52.6439 54.5324 57.89 52.4444 61.7579 48.7277C65.6258 45.0111 67.7988 39.9702 67.7988 34.7141C67.7988 29.4579 65.6258 24.417 61.7579 20.7004C57.89 16.9837 52.6439 14.8957 47.1738 14.8957ZM50.9238 25.7057C51.8423 25.7058 52.7288 26.0299 53.4152 26.6163C54.1016 27.2028 54.5401 28.011 54.6476 28.8875L54.6738 29.3091V31.1107H56.5488C57.5046 31.1117 58.4239 31.4634 59.119 32.0939C59.814 32.7244 60.2322 33.586 60.2882 34.5029C60.3442 35.4197 60.0338 36.3225 59.4203 37.0268C58.8069 37.7311 57.9367 38.1837 56.9876 38.2922L56.5488 38.3174H54.6738V40.1191C54.6728 41.0375 54.3068 41.9208 53.6506 42.5887C52.9945 43.2565 52.0978 43.6584 51.1436 43.7122C50.1894 43.766 49.2499 43.4677 48.517 42.8782C47.784 42.2888 47.313 41.4526 47.2001 40.5406L47.1738 40.1191V38.3174H45.2988C44.343 38.3164 43.4237 37.9647 42.7287 37.3342C42.0337 36.7038 41.6154 35.8421 41.5594 34.9252C41.5034 34.0084 41.8139 33.1056 42.4273 32.4013C43.0408 31.697 43.911 31.2444 44.8601 31.1359L45.2988 31.1107H47.1738V29.3091C47.1738 28.3534 47.5689 27.4369 48.2722 26.7611C48.9754 26.0854 49.9293 25.7057 50.9238 25.7057ZM24.6738 25.7057C27.1602 25.7057 29.5448 26.6548 31.303 28.3442C33.0611 30.0336 34.0488 32.3249 34.0488 34.7141C34.0488 37.1032 33.0611 39.3945 31.303 41.0839C29.5448 42.7733 27.1602 43.7224 24.6738 43.7224C22.1874 43.7224 19.8029 42.7733 18.0447 41.0839C16.2865 39.3945 15.2988 37.1032 15.2988 34.7141C15.2988 32.3249 16.2865 30.0336 18.0447 28.3442C19.8029 26.6548 22.1874 25.7057 24.6738 25.7057ZM24.6738 32.9124C24.1765 32.9124 23.6996 33.1022 23.348 33.4401C22.9964 33.778 22.7988 34.2362 22.7988 34.7141C22.7988 35.1919 22.9964 35.6501 23.348 35.988C23.6996 36.3259 24.1765 36.5157 24.6738 36.5157C25.1711 36.5157 25.648 36.3259 25.9997 35.988C26.3513 35.6501 26.5488 35.1919 26.5488 34.7141C26.5488 34.2362 26.3513 33.778 25.9997 33.4401C25.648 33.1022 25.1711 32.9124 24.6738 32.9124Z" fill="white"/>
</svg>
