<svg width="79" height="78" viewBox="0 0 79 78" fill="none" xmlns="http://www.w3.org/2000/svg">
<path d="M62 1.50586V22.3392M17 1.50586V22.3392M71.375 5.67253V11.9225M71.375 11.9225V18.1725M71.375 11.9225H77M7.625 5.67253V11.9225M7.625 11.9225V18.1725M7.625 11.9225H2M62 11.9225H17M28.25 22.3392V55.6725M50.75 22.3392V55.6725M54.5 68.1725V76.5059M24.5 68.1725V76.5059M21.7887 68.1725H57.215C61.8538 68.1725 64.175 68.1725 65.135 66.91C67.31 64.0517 63.14 60.2684 61.6175 58.3642C59.9038 56.2142 58.6475 55.6725 56.1125 55.6725H22.8875C20.3525 55.6725 19.1 56.2142 17.3825 58.3642C15.86 60.2684 11.69 64.0517 13.865 66.91C14.825 68.1725 17.15 68.1725 21.7887 68.1725Z" stroke="white" stroke-width="3" stroke-linecap="round" stroke-linejoin="round"/>
</svg>
