<svg width="75" height="75" viewBox="0 0 75 75" fill="none" xmlns="http://www.w3.org/2000/svg">
<path fill-rule="evenodd" clip-rule="evenodd" d="M37.1228 17.1877C34.1384 17.5533 31.3103 18.6127 30.1165 19.594C23.154 25.3502 19.2228 32.9596 17.1821 39.594C16.3035 42.4046 15.715 45.2978 15.4259 48.2283C15.3196 49.4252 15.2228 50.6783 15.404 51.8752C16.6009 53.2315 18.2946 54.2158 19.8665 55.0596C23.1509 56.8252 28.0853 58.6565 34.7196 59.394C38.4759 59.8127 43.2196 60.0502 47.5946 59.7002C52.1353 59.3346 55.6165 58.3815 57.4228 56.9346C60.4665 54.5002 61.2353 51.6596 60.9571 49.1721C60.6603 46.4971 59.1571 44.2346 57.6446 43.2252C55.0353 41.4877 52.0978 41.3127 49.329 42.0377C46.479 42.7877 44.1384 44.4127 43.0321 45.744C42.7546 46.0788 42.4102 46.3521 42.021 46.5462C41.6318 46.7403 41.2064 46.8511 40.772 46.8714C40.3375 46.8917 39.9036 46.8211 39.498 46.6641C39.0924 46.507 38.7241 46.2671 38.4165 45.9596C36.6978 44.2408 33.7759 43.7408 29.8603 46.3502C29.4331 46.6355 28.9421 46.811 28.4309 46.8613C27.9197 46.9116 27.404 46.8351 26.9294 46.6386C26.4548 46.4421 26.0359 46.1316 25.7099 45.7347C25.3839 45.3377 25.1608 44.8665 25.0603 44.3627C24.1665 39.8815 24.6321 35.119 25.4571 31.1908C26.2884 27.2565 27.5384 23.8721 28.4571 22.0408C28.7169 21.5225 29.1159 21.0866 29.6092 20.782C30.1026 20.4774 30.671 20.316 31.2509 20.316C31.8307 20.316 32.3991 20.4774 32.8925 20.782C33.3859 21.0866 33.7848 21.5225 34.0446 22.0408C34.679 23.3033 35.8384 24.4346 37.1884 24.9096C38.2353 24.2502 39.1446 23.3283 39.8821 22.344C41.2384 20.5377 41.6915 18.8283 41.0884 17.319C39.8634 16.8815 38.3821 17.0346 37.1228 17.1877ZM41.7571 11.0502C43.2696 11.3408 45.479 12.0971 46.5446 14.2283C48.879 18.8971 46.9509 23.3346 44.8821 26.094C43.5321 27.894 41.7946 29.5877 39.7728 30.6252C39.3509 30.844 38.4915 31.2502 37.5009 31.2502C35.654 31.2502 33.8446 30.4096 32.3603 29.3596C32.079 30.3158 31.8071 31.3658 31.5728 32.4783C31.1093 34.6129 30.858 36.7881 30.8228 38.9721C34.1134 37.9096 37.479 38.0221 40.379 39.6596C42.5585 37.9481 45.0651 36.7006 47.7446 35.994C51.8071 34.9283 56.6821 35.0752 61.1103 38.0252C64.2821 40.1408 66.6853 44.1252 67.1696 48.4846C67.6759 53.0283 66.0978 57.9971 61.3259 61.8158C57.9571 64.5096 52.8228 65.5502 48.0978 65.9283C43.2071 66.3221 38.0415 66.0533 34.0321 65.6065C26.6009 64.7815 20.8946 62.7065 16.9071 60.5658C14.2915 59.1596 10.7134 57.2158 9.57901 54.2377C8.81338 52.219 9.01338 49.769 9.20088 47.669C9.45088 44.9158 10.0634 41.4783 11.2103 37.7533C13.4978 30.319 17.9759 21.5221 26.1353 14.7783C28.6446 12.7033 32.8446 11.4158 36.3603 10.9846C38.1728 10.7627 40.079 10.7315 41.7571 11.0502Z" fill="white"/>
</svg>
