<svg width="75" height="75" viewBox="0 0 75 75" fill="none" xmlns="http://www.w3.org/2000/svg">
<path d="M46.3437 48.2812C45.2187 46.5625 44.3125 44.9687 43.4687 43.5C39.8125 37.2187 36.8437 32.9687 28.125 31.6562V17.1875C28.125 11.1562 23.2187 6.25 17.1875 6.25C11.1562 6.25 6.25 11.1562 6.25 17.1875V68.75H12.5V62.5H21.875V68.75H28.125V38C33.625 39.0625 35.2812 41.8437 38.0312 46.625C38.9375 48.2187 39.9375 49.9062 41.1562 51.75C48.1562 62.25 55.2187 68.75 68.75 68.75V62.5C57.9062 62.5 52.5 57.5 46.3437 48.2812ZM17.1875 12.5C19.7812 12.5 21.875 14.5937 21.875 17.1875V31.25H12.5V17.1875C12.5 14.5937 14.5937 12.5 17.1875 12.5ZM12.5 56.25V50H21.875V56.25H12.5ZM21.875 43.75H12.5V37.5H21.875V43.75Z" fill="white"/>
</svg>
