<svg width="75" height="75" viewBox="0 0 75 75" fill="none" xmlns="http://www.w3.org/2000/svg">
<path d="M12.2729 13.6873C15.6666 11.9029 20.1697 11.0279 24.6729 13.1936C31.0885 3.93418 43.9135 3.93418 50.3291 13.1936C54.8291 11.0279 59.3354 11.9029 62.7291 13.6842C64.2979 14.5092 65.0822 14.9217 65.4822 16.0998C65.8854 17.2811 65.4072 18.2779 64.451 20.2748L50.6791 49.0436C50.026 50.4029 49.701 51.0842 49.551 51.7154C49.3979 52.3467 49.3572 54.0904 49.2729 57.5811C49.1322 63.6029 45.251 68.7498 37.501 68.7498C29.751 68.7498 25.8729 63.5998 25.7291 57.5811C25.6447 54.0904 25.6041 52.3467 25.451 51.7154C25.2979 51.0842 24.976 50.4029 24.326 49.0436L10.5479 20.2748C9.5916 18.2748 9.11348 17.2811 9.5166 16.0998C9.9166 14.9217 10.701 14.5092 12.2697 13.6842M25.001 53.1248H50.001M25.001 12.4998L34.376 53.1248M50.001 12.4998L40.626 53.1248" stroke="white" stroke-width="2" stroke-linecap="round" stroke-linejoin="round"/>
<path d="M18.75 37.5C22.5 41.6656 27.5 41.6656 31.25 37.5C35 41.6656 40 41.6656 43.75 37.5C47.5 41.6656 52.5 41.6656 56.25 37.5" stroke="white" stroke-width="2" stroke-linecap="round" stroke-linejoin="round"/>
</svg>
