<svg width="40" height="42" viewBox="0 0 40 42" fill="none" xmlns="http://www.w3.org/2000/svg">
<path d="M35.3658 11.1563L22.3339 3.06424C21.6209 2.61908 20.7972 2.38306 19.9566 2.38306C19.1161 2.38306 18.2924 2.61908 17.5794 3.06424L4.54954 11.2026C3.80868 11.6698 3.22068 12.3435 2.858 13.1408C2.49532 13.938 2.3738 14.824 2.50842 15.6894L5.87004 35.8733C6.04772 36.9299 6.5975 37.8881 7.42001 38.5748C8.24252 39.2614 9.28352 39.6312 10.3549 39.6174H29.6429C30.7147 39.6317 31.7561 39.2621 32.5791 38.5754C33.402 37.8887 33.9521 36.9302 34.1298 35.8733L37.4914 15.6894C37.6266 14.8081 37.4963 13.9064 37.117 13.0994C36.7377 12.2924 36.1266 11.6166 35.3617 11.1583" stroke="white" stroke-width="4" stroke-linecap="round" stroke-linejoin="round"/>
<path d="M25.2576 20.0696H14.7481C13.2967 20.0696 12.1191 21.1566 12.1191 22.5012V29.7941C12.1191 31.1368 13.2967 32.2258 14.7481 32.2258H25.2597C26.711 32.2258 27.8886 31.1368 27.8886 29.7941V22.5012C27.8886 21.1586 26.711 20.0696 25.2597 20.0696" stroke="white" stroke-width="4" stroke-linecap="round" stroke-linejoin="round"/>
<path d="M15.1387 20.0697V17.6401C15.1387 17.0017 15.2644 16.3695 15.5087 15.7797C15.753 15.19 16.1111 14.6541 16.5625 14.2026C17.0139 13.7512 17.5498 13.3932 18.1396 13.1489C18.7294 12.9045 19.3615 12.7788 19.9999 12.7788C20.6383 12.7788 21.2705 12.9045 21.8603 13.1489C22.4501 13.3932 22.986 13.7512 23.4374 14.2026C23.8888 14.6541 24.2469 15.19 24.4912 15.7797C24.7355 16.3695 24.8612 17.0017 24.8612 17.6401V20.0697" stroke="white" stroke-width="4" stroke-linecap="round" stroke-linejoin="round"/>
</svg>
