<svg width="75" height="75" viewBox="0 0 75 75" fill="none" xmlns="http://www.w3.org/2000/svg">
<path d="M18.7499 12.5C17.5067 12.5 16.3144 12.9939 15.4354 13.8729C14.5563 14.752 14.0624 15.9443 14.0624 17.1875V19.5312C14.0624 20.1529 13.8155 20.749 13.3759 21.1885C12.9364 21.6281 12.3403 21.875 11.7187 21.875C11.0971 21.875 10.5009 21.6281 10.0614 21.1885C9.62184 20.749 9.37491 20.1529 9.37491 19.5312V17.1875C9.37491 14.7011 10.3626 12.3165 12.1208 10.5584C13.8789 8.80022 16.2635 7.8125 18.7499 7.8125C21.2363 7.8125 23.6209 8.80022 25.379 10.5584C27.1372 12.3165 28.1249 14.7011 28.1249 17.1875V28.125H51.5624V17.1875C51.5624 15.9443 51.0686 14.752 50.1895 13.8729C49.3104 12.9939 48.1181 12.5 46.8749 12.5C45.6317 12.5 44.4394 12.9939 43.5603 13.8729C42.6813 14.752 42.1874 15.9443 42.1874 17.1875V19.5312C42.1874 20.1529 41.9405 20.749 41.5009 21.1885C41.0614 21.6281 40.4653 21.875 39.8437 21.875C39.2221 21.875 38.6259 21.6281 38.1864 21.1885C37.7468 20.749 37.4999 20.1529 37.4999 19.5312V17.1875C37.4999 14.7011 38.4876 12.3165 40.2458 10.5584C42.0039 8.80022 44.3885 7.8125 46.8749 7.8125C49.3613 7.8125 51.7459 8.80022 53.504 10.5584C55.2622 12.3165 56.2499 14.7011 56.2499 17.1875V44.8672C54.7037 45.1541 53.135 45.3031 51.5624 45.3125V32.8125H28.1249V38.3172C26.5819 37.9638 25.0153 37.7226 23.4374 37.5953V17.1875C23.4374 15.9443 22.9436 14.752 22.0645 13.8729C21.1854 12.9939 19.9931 12.5 18.7499 12.5ZM8.35148 47.6312C7.95491 47.1526 7.76472 46.536 7.82274 45.9172C7.88076 45.2983 8.18223 44.7278 8.66085 44.3312L8.66398 44.3281L8.6671 44.3266L8.67335 44.3219L8.68898 44.3094L8.72804 44.2766C8.90111 44.1394 9.07991 44.0096 9.26398 43.8875C9.74117 43.5673 10.2357 43.2736 10.7452 43.0078C12.4855 42.1098 14.3448 41.4643 16.2671 41.0906C21.0952 40.1219 27.9421 40.3719 36.4593 44.7062C44.2093 48.6484 51.0593 48.8437 55.9515 48.0875C57.9219 47.7854 59.8547 47.2748 61.7171 46.5641C62.3859 46.3047 62.8968 46.0719 63.228 45.9109C63.3947 45.8286 63.5155 45.7672 63.5905 45.7266L63.6671 45.6859L63.6702 45.6828H63.6734L63.6765 45.6813C64.2135 45.3904 64.843 45.3206 65.4307 45.4869C66.0184 45.6532 66.518 46.0423 66.8231 46.5714C67.1282 47.1005 67.2147 47.7279 67.0641 48.3198C66.9136 48.9117 66.5379 49.4215 66.0171 49.7406L66.014 49.7422L66.0062 49.7469L65.9905 49.7562L65.9452 49.7813C65.7284 49.9033 65.5074 50.018 65.2827 50.125C64.8421 50.3391 64.2124 50.625 63.4109 50.9359C61.2339 51.7703 58.9735 52.368 56.6687 52.7188C50.9655 53.6031 43.0921 53.3406 34.3343 48.8844C26.7218 45.0109 20.9484 44.9313 17.189 45.6859C15.289 46.0672 13.8546 46.6703 12.9187 47.1609C12.487 47.3876 12.071 47.6428 11.6734 47.925L11.6374 47.9516C11.1582 48.3425 10.544 48.5282 9.92848 48.4682C9.31298 48.4082 8.74614 48.1073 8.35148 47.6312ZM8.35148 61.6938C7.95491 61.2151 7.76472 60.5985 7.82274 59.9797C7.88076 59.3608 8.18223 58.7903 8.66085 58.3938L8.66398 58.3906L8.6671 58.3891L8.67335 58.3828L8.68898 58.3719L8.72804 58.3391C8.90111 58.2019 9.07991 58.0721 9.26398 57.95C9.74117 57.6298 10.2357 57.3361 10.7452 57.0703C12.4855 56.1723 14.3448 55.5268 16.2671 55.1531C21.0952 54.1844 27.9421 54.4344 36.4593 58.7687C44.2093 62.7109 51.0593 62.9063 55.9515 62.15C57.9219 61.848 59.8547 61.3373 61.7171 60.6266C62.3859 60.3672 62.8968 60.1344 63.228 59.9734C63.3947 59.8901 63.5155 59.8286 63.5905 59.7891L63.6671 59.7484L63.6702 59.7453H63.6734L63.6765 59.7438C64.2135 59.4529 64.843 59.3831 65.4307 59.5494C66.0184 59.7157 66.518 60.1048 66.8231 60.6339C67.1282 61.163 67.2147 61.7904 67.0641 62.3823C66.9136 62.9742 66.5379 63.484 66.0171 63.8031L66.014 63.8047L66.0124 63.8062L66.0062 63.8094L65.9905 63.8188L65.9452 63.8438C65.7284 63.9658 65.5074 64.0805 65.2827 64.1875C64.8421 64.4016 64.2124 64.6875 63.4109 64.9984C61.2339 65.8328 58.9735 66.4305 56.6687 66.7813C50.9655 67.6656 43.0921 67.4031 34.3343 62.9469C26.7218 59.0734 20.9484 58.9937 17.189 59.7484C15.289 60.1297 13.8546 60.7328 12.9187 61.2234C12.487 61.4501 12.071 61.7053 11.6734 61.9875L11.6374 62.0141C11.1582 62.405 10.544 62.5907 9.92848 62.5307C9.31298 62.4707 8.74614 62.1698 8.35148 61.6938Z" fill="white"/>
</svg>
