<svg width="46" height="46" viewBox="0 0 46 46" fill="none" xmlns="http://www.w3.org/2000/svg">
<path d="M15.4951 25.1037L18.6221 27.2073L23 24.9899L27.3779 27.2073L30.3912 25.2174L28.117 20.7258H17.6556L15.4951 25.1037ZM7.59217 41.1938H38.351L32.438 29.311L27.719 32.438L23 30.1069L18.281 32.438L13.4483 29.2541L7.59217 41.1938ZM0.257812 45.7422L13.562 18.7358C13.941 17.9778 14.5005 17.3622 15.2404 16.8892C15.9802 16.4161 16.7853 16.1789 17.6556 16.1773H20.7258V0.257812H36.6453L34.3711 4.80625L36.6453 9.35469H25.2742V16.1773H28.117C28.9888 16.1773 29.7848 16.4048 30.5049 16.8596C31.2251 17.3145 31.7936 17.9209 32.2106 18.679L45.7422 45.7422H0.257812Z" fill="white"/>
</svg>
