<svg width="75" height="75" viewBox="0 0 75 75" fill="none" xmlns="http://www.w3.org/2000/svg">
<path d="M23.5406 37.0688L23.5718 37.0594M41.0125 59.3813C39.45 60.9906 38.1375 62.0281 37.7 62.1625C36.2 62.6156 20.7312 58.1625 18.2062 51.7563C15.675 45.3469 12.4843 33.5813 12.3 32.3188C12.1125 31.0562 17.175 26.9312 23.5406 24.1625M29.7562 49.3344C29.0468 50.1531 28.5375 51.0844 28.0187 51.9813M42.1875 37.5C43.75 39.0625 45.3125 40.7781 48.4375 40.7781C51.5625 40.7781 53.125 39.0625 54.6875 37.5M42.1875 25H42.2187M54.6875 25H54.7187M32.8125 17.1875C32.8125 16.2813 40.625 12.5 48.4375 12.5C56.25 12.5 64.0625 16.05 64.0625 17.1875V37.5C64.0625 43.6437 50.6531 53.125 48.4375 53.125C46.1156 53.125 32.8125 43.6437 32.8125 37.5V17.1875Z" stroke="white" stroke-width="3" stroke-linecap="round"/>
</svg>
