<svg width="75" height="75" viewBox="0 0 75 75" fill="none" xmlns="http://www.w3.org/2000/svg">
<path d="M4.6875 9.375H10.1562L12.5 18.75M12.5 18.75L20.3125 50H60.9375L68.75 18.75H12.5Z" stroke="black" stroke-width="2" stroke-linecap="round" stroke-linejoin="round"/>
<path d="M20.3125 65.625C22.9013 65.625 25 63.5263 25 60.9375C25 58.3487 22.9013 56.25 20.3125 56.25C17.7237 56.25 15.625 58.3487 15.625 60.9375C15.625 63.5263 17.7237 65.625 20.3125 65.625Z" stroke="black" stroke-width="2" stroke-linecap="round" stroke-linejoin="round"/>
<path d="M60.9375 65.625C63.5263 65.625 65.625 63.5263 65.625 60.9375C65.625 58.3487 63.5263 56.25 60.9375 56.25C58.3487 56.25 56.25 58.3487 56.25 60.9375C56.25 63.5263 58.3487 65.625 60.9375 65.625Z" stroke="black" stroke-width="2" stroke-linecap="round" stroke-linejoin="round"/>
<path d="M4.6875 9.375H10.1562L12.5 18.75M12.5 18.75L20.3125 50H60.9375L68.75 18.75H12.5Z" stroke="white" stroke-width="5" stroke-linecap="round" stroke-linejoin="round"/>
<path d="M20.3125 65.625C22.9013 65.625 25 63.5263 25 60.9375C25 58.3487 22.9013 56.25 20.3125 56.25C17.7237 56.25 15.625 58.3487 15.625 60.9375C15.625 63.5263 17.7237 65.625 20.3125 65.625Z" stroke="white" stroke-width="5" stroke-linecap="round" stroke-linejoin="round"/>
<path d="M60.9375 65.625C63.5263 65.625 65.625 63.5263 65.625 60.9375C65.625 58.3487 63.5263 56.25 60.9375 56.25C58.3487 56.25 56.25 58.3487 56.25 60.9375C56.25 63.5263 58.3487 65.625 60.9375 65.625Z" stroke="white" stroke-width="5" stroke-linecap="round" stroke-linejoin="round"/>
</svg>
