<svg width="79" height="79" viewBox="0 0 79 79" fill="none" xmlns="http://www.w3.org/2000/svg">
<path d="M18.4721 51.7142L11.5471 74.4521M1.97852 71.8921L21.1093 77M8.39412 32.9733L20.8707 2L44.4247 8.27918L37.577 40.7619C37.1764 42.7028 36.3491 44.5446 35.1478 46.1702C33.9465 47.7959 32.3974 49.1699 30.5987 50.205C28.8001 51.2402 26.7913 51.9139 24.6998 52.1833C22.6083 52.4528 20.4798 52.3121 18.4495 51.7702C16.4191 51.2283 14.5313 50.2971 12.9058 49.0356C11.2803 47.7742 9.95262 46.21 9.00708 44.4425C8.06154 42.6749 7.51878 40.7426 7.41326 38.7682C7.30774 36.7938 7.64176 34.8204 8.39412 32.9733Z" stroke="white" stroke-width="3" stroke-linecap="round" stroke-linejoin="round"/>
<path d="M14.6387 17.438L40.9845 24.5323" stroke="white" stroke-width="3"/>
<path d="M49.582 50.7965C52.3225 52.0625 55.4064 52.5273 58.4327 52.1304C61.4591 51.7335 64.2879 50.4933 66.5516 48.571C68.8152 46.6487 70.4089 44.1332 71.1255 41.3515C71.8421 38.5698 71.6484 35.6506 70.5697 32.9733L58.0803 2L54.3663 2.98414M60.4853 51.7142L67.4103 74.4521M76.9789 71.8921L57.8482 77M64.3153 17.5108L53.5539 20.4089" stroke="white" stroke-width="3" stroke-linecap="round" stroke-linejoin="round"/>
</svg>
