<svg width="76" height="76" viewBox="0 0 76 76" fill="none" xmlns="http://www.w3.org/2000/svg">
<path d="M38.2812 0.59668C17.5813 0.59668 0.78125 17.3967 0.78125 38.0967C0.78125 58.7967 17.5813 75.5967 38.2812 75.5967C58.9812 75.5967 75.7812 58.7967 75.7812 38.0967C75.7812 17.3967 58.9812 0.59668 38.2812 0.59668ZM42.0312 12.9717L47.0938 9.40918C53.8787 11.5083 59.699 15.9466 63.5187 21.9342L62.0563 26.9592L56.9937 28.6842L42.0312 18.2217V12.9717ZM29.4687 9.40918L34.5312 12.9717V18.2217L19.5688 28.6842L14.5062 26.9592L13.0437 21.9342C16.8875 15.9687 22.6987 11.5373 29.4687 9.40918ZM19.8312 57.2592L15.5563 57.6342C10.856 52.2112 8.27253 45.2731 8.28125 38.0967C8.28125 37.6467 8.31875 37.2342 8.35625 36.7842L12.1062 34.0467L17.2813 35.8467L22.7563 52.1217L19.8312 57.2592ZM47.6562 66.5592C44.6937 67.5342 41.5438 68.0967 38.2812 68.0967C35.0187 68.0967 31.8688 67.5342 28.9062 66.5592L26.3188 60.9717L28.7187 56.8467H47.8813L50.2812 61.0092L47.6562 66.5592ZM46.7938 49.3467H29.7687L24.7063 34.2717L38.2812 24.7467L51.8938 34.2717L46.7938 49.3467ZM61.0062 57.6342L56.7313 57.2592L53.7687 52.1217L59.2438 35.8467L64.4562 34.0842L68.2062 36.8217C68.2437 37.2342 68.2812 37.6467 68.2812 38.0967C68.2812 45.5592 65.5437 52.3842 61.0062 57.6342Z" fill="white"/>
</svg>
