<svg width="19" height="19" viewBox="0 0 19 19" fill="none" xmlns="http://www.w3.org/2000/svg">
<path d="M2.32178 4.0761V7.30347C2.32176 7.91409 2.44578 8.51835 2.68632 9.07959C2.92685 9.64084 3.27889 10.1474 3.72107 10.5685C4.16326 10.9896 4.68637 11.3165 5.25869 11.5293C5.83101 11.7422 6.4406 11.8366 7.05049 11.8068C7.24588 12.4622 7.56723 13.0732 7.99653 13.6057L6.24571 15.3557C6.14617 15.4626 6.09197 15.6039 6.09455 15.7499C6.09712 15.8959 6.15627 16.0352 6.25952 16.1384C6.36278 16.2417 6.50208 16.3008 6.64809 16.3034C6.79409 16.306 6.93539 16.2518 7.04222 16.1522L8.79304 14.4022C9.56573 15.0245 10.4987 15.4155 11.4841 15.5301C12.4696 15.6447 13.4674 15.4783 14.3623 15.05C15.2572 14.6217 16.0127 13.949 16.5415 13.1096C17.0704 12.2701 17.351 11.2983 17.351 10.3062V6.36268C17.351 6.01393 17.2125 5.67945 16.9659 5.43284C16.7193 5.18624 16.3848 5.04769 16.036 5.04769H12.0918C11.6537 5.04769 11.2277 5.10104 10.8204 5.20173C10.4376 4.47521 9.86358 3.86705 9.1604 3.44289C8.45721 3.01872 7.65153 2.79467 6.83032 2.79492H3.60296C2.89587 2.79492 2.32178 3.36826 2.32178 4.0761ZM9.59707 13.5997L12.6749 10.5233C12.7744 10.4165 12.8286 10.2752 12.8261 10.1292C12.8235 9.98318 12.7643 9.84388 12.6611 9.74062C12.5578 9.63737 12.4185 9.57822 12.2725 9.57564C12.1265 9.57307 11.9852 9.62726 11.8784 9.72681L8.79981 12.8031C8.33514 12.1902 8.05079 11.4597 7.97875 10.6939C7.90671 9.92812 8.04985 9.15742 8.39205 8.46856C8.73425 7.7797 9.26194 7.20003 9.91571 6.7948C10.5695 6.38956 11.3234 6.17485 12.0925 6.17483H16.036C16.0858 6.17483 16.1336 6.19462 16.1689 6.22985C16.2041 6.26508 16.2239 6.31286 16.2239 6.36268V10.3062C16.2239 11.0753 16.0092 11.8291 15.6041 12.4829C15.199 13.1366 14.6194 13.6643 13.9307 14.0066C13.2419 14.3489 12.4713 14.4921 11.7055 14.4202C10.9398 14.3483 10.2093 14.0641 9.59632 13.5997M6.83032 3.92206C8.07543 3.92206 9.1635 4.59458 9.75036 5.59623C8.92669 6.00722 8.22472 6.6263 7.714 7.39214L6.28779 5.96593C6.18096 5.86638 6.03966 5.81219 5.89366 5.81476C5.74765 5.81734 5.60835 5.87649 5.50509 5.97974C5.40184 6.083 5.34269 6.2223 5.34012 6.3683C5.33754 6.51431 5.39174 6.65561 5.49128 6.76244L7.17222 8.44413C6.90238 9.15857 6.79136 9.9232 6.84685 10.6849H6.83032C5.93352 10.6849 5.07344 10.3286 4.43931 9.69448C3.80517 9.06035 3.44891 8.20027 3.44891 7.30347V4.0761C3.44891 3.99119 3.51804 3.92206 3.60296 3.92206H6.83032Z" fill="white"/>
</svg>
