<svg width="19" height="19" viewBox="0 0 19 19" fill="none" xmlns="http://www.w3.org/2000/svg">
<g id="fluent:leaf-two-24-regular">
<path id="Vector" d="M2.31055 3.64104V6.86841C2.31053 7.47903 2.43455 8.08329 2.67509 8.64453C2.91562 9.20578 3.26766 9.71232 3.70984 10.1334C4.15203 10.5545 4.67514 10.8814 5.24746 11.0943C5.81978 11.3071 6.42937 11.4015 7.03926 11.3717C7.23465 12.0271 7.556 12.6382 7.9853 13.1706L6.23448 14.9207C6.13494 15.0275 6.08074 15.1688 6.08332 15.3148C6.08589 15.4608 6.14504 15.6001 6.24829 15.7034C6.35155 15.8066 6.49085 15.8658 6.63686 15.8683C6.78286 15.8709 6.92416 15.8167 7.03099 15.7172L8.78181 13.9671C9.5545 14.5894 10.4874 14.9804 11.4729 15.0951C12.4584 15.2097 13.4562 15.0432 14.3511 14.6149C15.246 14.1866 16.0015 13.5139 16.5303 12.6745C17.0591 11.8351 17.3398 10.8632 17.3398 9.8711V5.92763C17.3398 5.57887 17.2012 5.24439 16.9546 4.99779C16.708 4.75118 16.3735 4.61263 16.0248 4.61263H12.0806C11.6425 4.61263 11.2164 4.66598 10.8092 4.76668C10.4263 4.04015 9.85235 3.43199 9.14917 3.00783C8.44598 2.58366 7.6403 2.35961 6.81909 2.35986H3.59173C2.88463 2.35986 2.31055 2.9332 2.31055 3.64104ZM9.58584 13.1646L12.6637 10.0883C12.7632 9.98143 12.8174 9.84013 12.8148 9.69412C12.8123 9.54812 12.7531 9.40882 12.6499 9.30556C12.5466 9.20231 12.4073 9.14316 12.2613 9.14058C12.1153 9.13801 11.974 9.1922 11.8672 9.29175L8.78858 12.3681C8.32391 11.7551 8.03956 11.0246 7.96752 10.2588C7.89548 9.49306 8.03862 8.72236 8.38082 8.0335C8.72302 7.34464 9.25071 6.76497 9.90447 6.35974C10.5582 5.9545 11.3121 5.73979 12.0813 5.73977H16.0248C16.0746 5.73977 16.1224 5.75956 16.1576 5.79479C16.1929 5.83002 16.2126 5.8778 16.2126 5.92763V9.8711C16.2127 10.6402 15.998 11.3941 15.5929 12.0478C15.1877 12.7016 14.6082 13.2293 13.9194 13.5715C13.2307 13.9138 12.4601 14.057 11.6943 13.9852C10.9286 13.9133 10.1981 13.6291 9.58508 13.1646M6.81909 3.487C8.0642 3.487 9.15226 4.15952 9.73913 5.16117C8.91546 5.57216 8.21349 6.19124 7.70277 6.95708L6.27656 5.53087C6.16973 5.43133 6.02843 5.37713 5.88243 5.37971C5.73642 5.38228 5.59712 5.44143 5.49386 5.54468C5.39061 5.64794 5.33146 5.78724 5.32889 5.93324C5.32631 6.07925 5.38051 6.22055 5.48005 6.32738L7.16099 8.00907C6.89115 8.72351 6.78013 9.48814 6.83562 10.2498H6.81909C5.92229 10.2498 5.06221 9.89356 4.42808 9.25943C3.79394 8.62529 3.43768 7.76521 3.43768 6.86841V3.64104C3.43768 3.55613 3.50681 3.487 3.59173 3.487H6.81909Z" fill="white"/>
</g>
</svg>
