<svg width="60" height="57" viewBox="0 0 60 57" fill="none" xmlns="http://www.w3.org/2000/svg">
<path fill-rule="evenodd" clip-rule="evenodd" d="M41.5525 4.94226V9.57312L47.0328 13.9574V4.94226H41.5525ZM51.143 17.2456V4.25722C51.143 2.36652 49.6086 0.832031 47.7178 0.832031H40.8675C38.9768 0.832031 37.4423 2.36652 37.4423 4.25722V6.28494L36.327 5.39165C34.5049 3.93351 32.2406 3.13908 29.9068 3.13908C27.5731 3.13908 25.3088 3.93351 23.4867 5.39165L1.22292 23.2026C0.797052 23.5431 0.523882 24.0388 0.463501 24.5807C0.40312 25.1226 0.560476 25.6663 0.900951 26.0921C1.24143 26.518 1.73713 26.7912 2.27901 26.8516C2.8209 26.9119 3.36458 26.7546 3.79044 26.4141L5.9305 24.6988V52.895H2.50531C1.96026 52.895 1.43753 53.1115 1.05212 53.4969C0.666716 53.8823 0.450195 54.405 0.450195 54.9501C0.450195 55.4951 0.666716 56.0178 1.05212 56.4033C1.43753 56.7887 1.96026 57.0052 2.50531 57.0052H57.3084C57.8534 57.0052 58.3762 56.7887 58.7616 56.4033C59.147 56.0178 59.3635 55.4951 59.3635 54.9501C59.3635 54.405 59.147 53.8823 58.7616 53.4969C58.3762 53.1115 57.8534 52.895 57.3084 52.895H53.8832V24.6988L56.026 26.4141C56.4526 26.7465 56.993 26.8974 57.5301 26.834C58.0671 26.7707 58.5576 26.4981 58.8951 26.0756C59.2326 25.653 59.3899 25.1144 59.3329 24.5766C59.276 24.0388 59.0093 23.5451 58.5908 23.2026L51.143 17.2456ZM49.773 21.4106L33.7595 8.60037C32.6661 7.72521 31.3073 7.24839 29.9068 7.24839C28.5063 7.24839 27.1476 7.72521 26.0542 8.60037L10.0407 21.4106V52.895H19.6313V41.1123C19.6313 39.2928 19.6313 37.7227 19.8012 36.465C19.982 35.1168 20.3903 33.8262 21.437 32.7795C22.4838 31.7327 23.7771 31.3245 25.1225 31.1436C26.3803 30.9737 27.9504 30.9737 29.7726 30.9737H30.0411C31.8633 30.9737 33.4334 30.9737 34.6912 31.1436C36.0393 31.3245 37.3299 31.7327 38.3767 32.7795C39.4234 33.8262 39.8317 35.1168 40.0125 36.465C40.1824 37.7227 40.1824 39.2928 40.1824 41.115V52.895H49.773V21.4106ZM36.0722 52.895V41.2493C36.0722 39.2545 36.0667 37.9611 35.9407 37.013C35.8201 36.1225 35.6283 35.843 35.4694 35.6868C35.3104 35.5306 35.0337 35.336 34.1431 35.2155C33.1923 35.0894 31.9017 35.084 29.9068 35.084C27.912 35.084 26.6187 35.0894 25.6706 35.2155C24.78 35.336 24.5005 35.5306 24.3443 35.6868C24.1881 35.843 23.9936 36.1225 23.873 37.013C23.747 37.9639 23.7415 39.2545 23.7415 41.2493V52.895H36.0722ZM29.9068 17.273C29.457 17.273 29.0116 17.3615 28.5961 17.5337C28.1805 17.7058 27.8029 17.9581 27.4849 18.2762C27.1668 18.5942 26.9145 18.9718 26.7424 19.3874C26.5703 19.8029 26.4817 20.2483 26.4817 20.6981C26.4817 21.1479 26.5703 21.5933 26.7424 22.0089C26.9145 22.4245 27.1668 22.8021 27.4849 23.1201C27.8029 23.4382 28.1805 23.6905 28.5961 23.8626C29.0116 24.0347 29.457 24.1233 29.9068 24.1233C30.8153 24.1233 31.6865 23.7625 32.3288 23.1201C32.9712 22.4778 33.332 21.6066 33.332 20.6981C33.332 19.7897 32.9712 18.9185 32.3288 18.2762C31.6865 17.6338 30.8153 17.273 29.9068 17.273ZM22.3714 20.6981C22.3714 18.6996 23.1653 16.783 24.5785 15.3698C25.9917 13.9566 27.9083 13.1627 29.9068 13.1627C31.9054 13.1627 33.822 13.9566 35.2352 15.3698C36.6484 16.783 37.4423 18.6996 37.4423 20.6981C37.4423 22.6967 36.6484 24.6133 35.2352 26.0265C33.822 27.4397 31.9054 28.2336 29.9068 28.2336C27.9083 28.2336 25.9917 27.4397 24.5785 26.0265C23.1653 24.6133 22.3714 22.6967 22.3714 20.6981Z" fill="#AA601F"/>
</svg>
