<svg width="60" height="57" viewBox="0 0 60 57" fill="none" xmlns="http://www.w3.org/2000/svg">
<path fill-rule="evenodd" clip-rule="evenodd" d="M41.365 4.85877V9.48963L46.8453 13.8739V4.85877H41.365ZM50.9555 17.1621V4.17373C50.9555 2.28302 49.4211 0.748535 47.5303 0.748535H40.68C38.7893 0.748535 37.2548 2.28302 37.2548 4.17373V6.20144L36.1395 5.30815C34.3174 3.85002 32.0531 3.05559 29.7193 3.05559C27.3856 3.05559 25.1213 3.85002 23.2992 5.30815L1.03542 23.1192C0.609552 23.4596 0.336382 23.9553 0.276001 24.4972C0.21562 25.0391 0.372976 25.5828 0.713451 26.0086C1.05393 26.4345 1.54963 26.7077 2.09151 26.7681C2.6334 26.8284 3.17708 26.6711 3.60294 26.3306L5.743 24.6153V52.8115H2.31781C1.77276 52.8115 1.25003 53.028 0.864625 53.4134C0.479216 53.7988 0.262695 54.3215 0.262695 54.8666C0.262695 55.4116 0.479216 55.9344 0.864625 56.3198C1.25003 56.7052 1.77276 56.9217 2.31781 56.9217H57.1209C57.6659 56.9217 58.1887 56.7052 58.5741 56.3198C58.9595 55.9344 59.176 55.4116 59.176 54.8666C59.176 54.3215 58.9595 53.7988 58.5741 53.4134C58.1887 53.028 57.6659 52.8115 57.1209 52.8115H53.6957V24.6153L55.8385 26.3306C56.2651 26.663 56.8055 26.8139 57.3426 26.7505C57.8796 26.6872 58.3701 26.4146 58.7076 25.9921C59.0451 25.5695 59.2024 25.0309 59.1454 24.4931C59.0885 23.9553 58.8218 23.4617 58.4033 23.1192L50.9555 17.1621ZM49.5855 21.3271L33.572 8.51687C32.4786 7.64171 31.1198 7.16489 29.7193 7.16489C28.3188 7.16489 26.9601 7.64171 25.8667 8.51687L9.85323 21.3271V52.8115H19.4438V41.0288C19.4438 39.2093 19.4438 37.6392 19.6137 36.3815C19.7945 35.0333 20.2028 33.7427 21.2495 32.696C22.2963 31.6493 23.5896 31.241 24.935 31.0601C26.1928 30.8902 27.7629 30.8902 29.5851 30.8902H29.8536C31.6758 30.8902 33.2459 30.8902 34.5037 31.0601C35.8518 31.241 37.1424 31.6493 38.1892 32.696C39.2359 33.7427 39.6442 35.0333 39.825 36.3815C39.9949 37.6392 39.9949 39.2093 39.9949 41.0315V52.8115H49.5855V21.3271ZM35.8847 52.8115V41.1658C35.8847 39.171 35.8792 37.8776 35.7532 36.9295C35.6326 36.039 35.4408 35.7595 35.2819 35.6033C35.1229 35.4471 34.8462 35.2526 33.9556 35.132C33.0048 35.0059 31.7142 35.0005 29.7193 35.0005C27.7245 35.0005 26.4312 35.0059 25.4831 35.132C24.5925 35.2526 24.313 35.4471 24.1568 35.6033C24.0006 35.7595 23.8061 36.039 23.6855 36.9295C23.5595 37.8804 23.554 39.171 23.554 41.1658V52.8115H35.8847ZM29.7193 17.1895C29.2695 17.1895 28.8241 17.2781 28.4086 17.4502C27.993 17.6223 27.6154 17.8746 27.2974 18.1927C26.9793 18.5107 26.727 18.8883 26.5549 19.3039C26.3828 19.7194 26.2942 20.1648 26.2942 20.6147C26.2942 21.0645 26.3828 21.5099 26.5549 21.9254C26.727 22.341 26.9793 22.7186 27.2974 23.0366C27.6154 23.3547 27.993 23.607 28.4086 23.7791C28.8241 23.9512 29.2695 24.0398 29.7193 24.0398C30.6278 24.0398 31.499 23.679 32.1413 23.0366C32.7837 22.3943 33.1445 21.5231 33.1445 20.6147C33.1445 19.7062 32.7837 18.835 32.1413 18.1927C31.499 17.5503 30.6278 17.1895 29.7193 17.1895ZM22.1839 20.6147C22.1839 18.6161 22.9778 16.6995 24.391 15.2863C25.8042 13.8731 27.7208 13.0792 29.7193 13.0792C31.7179 13.0792 33.6345 13.8731 35.0477 15.2863C36.4609 16.6995 37.2548 18.6161 37.2548 20.6147C37.2548 22.6132 36.4609 24.5298 35.0477 25.943C33.6345 27.3562 31.7179 28.1501 29.7193 28.1501C27.7208 28.1501 25.8042 27.3562 24.391 25.943C22.9778 24.5298 22.1839 22.6132 22.1839 20.6147Z" fill="#F8AF41"/>
</svg>
