<svg width="31" height="32" viewBox="0 0 31 32" fill="none" xmlns="http://www.w3.org/2000/svg">
<path d="M29.2207 16.3799V20.8415C29.2207 22.4192 28.594 23.9323 27.4783 25.0479C26.3627 26.1635 24.8496 26.7902 23.2719 26.7902H8.39996C6.82224 26.7902 5.30914 26.1635 4.19353 25.0479C3.07792 23.9323 2.45117 22.4192 2.45117 20.8415V17.2722C2.45117 17.0355 2.54518 16.8086 2.71253 16.6412C2.87987 16.4739 3.10683 16.3799 3.34349 16.3799H29.2207ZM29.2207 16.3799V7.45669C29.2207 5.87897 28.594 4.36588 27.4783 3.25026C26.3627 2.13465 24.8496 1.5079 23.2719 1.5079H15.8359M21.7847 26.7902L23.2719 29.7646M9.88715 26.7902L8.39996 29.7646" stroke="#326555" stroke-width="3" stroke-linecap="round" stroke-linejoin="round"/>
<path d="M20.894 8.94382H10.7811C10.2888 8.94382 9.8947 8.54526 9.94824 8.05448C10.1654 6.08097 11.1722 1.50784 15.8375 1.50784C20.5029 1.50784 21.5097 6.08097 21.7268 8.05448C21.7804 8.54526 21.3863 8.94382 20.894 8.94382Z" stroke="#326555" stroke-width="3" stroke-linecap="round" stroke-linejoin="round"/>
</svg>
