<svg width="27" height="27" viewBox="0 0 27 27" fill="none" xmlns="http://www.w3.org/2000/svg">
<path d="M18.1352 16.7271C22.704 16.7271 26.4087 13.0381 26.4087 8.48765C26.4087 3.93854 22.704 0.249512 18.1352 0.249512C13.5665 0.249512 9.86568 3.93854 9.86568 8.48765C9.86568 10.5953 10.8266 12.1282 10.8266 12.1282L0.822452 22.0905C0.373432 22.5382 -0.254934 23.7006 0.822452 24.7741L1.97707 25.9235C2.42609 26.3071 3.55453 26.8438 4.47745 25.9235L5.82581 24.583C7.17156 25.9235 8.71106 25.1577 9.28837 24.3905C10.2492 23.05 9.09593 21.7082 9.09593 21.7082L9.48081 21.3246C11.3266 23.1652 12.9434 22.0918 13.5207 21.3246C14.4829 19.9841 13.5207 18.6423 13.5207 18.6423C13.1358 17.8765 12.3661 17.8765 13.3282 16.9182L14.4829 15.7688C15.4058 16.5347 17.304 16.7271 18.1379 16.7271H18.1352Z" fill="#131313"/>
<path d="M22.6696 8.48918C22.6664 9.90819 22.0998 11.2678 21.0943 12.2692C20.0889 13.2705 18.727 13.8315 17.308 13.829C15.889 13.8315 14.527 13.2705 13.5216 12.2692C12.5161 11.2678 11.9495 9.90819 11.9463 8.48918C11.9476 7.78636 12.0873 7.09067 12.3574 6.44183C12.6275 5.79299 13.0228 5.20371 13.5207 4.70764C14.0186 4.21157 14.6093 3.81843 15.2591 3.55065C15.9089 3.28287 16.6051 3.1457 17.308 3.14698C18.0108 3.1457 18.707 3.28287 19.3568 3.55065C20.0066 3.81843 20.5973 4.21157 21.0952 4.70764C21.5931 5.20371 21.9884 5.79299 22.2585 6.44183C22.5286 7.09067 22.6683 7.78636 22.6696 8.48918Z" fill="white" stroke="#131313" stroke-width="3.10246"/>
</svg>
