<svg width="26" height="27" viewBox="0 0 26 27" fill="none" xmlns="http://www.w3.org/2000/svg">
<path d="M24.2747 5.02637H17.3477V6.75814H24.2747V24.9417H17.3477V26.6735H26.0065V6.75814C26.0065 6.29884 25.824 5.85836 25.4993 5.53359C25.1745 5.20882 24.734 5.02637 24.2747 5.02637Z" fill="#316054"/>
<path d="M14.6458 0.696289H2.73118C2.24433 0.696289 1.77742 0.88969 1.43316 1.23395C1.08891 1.5782 0.895508 2.04511 0.895508 2.53196V26.6728H16.4814V2.53196C16.4814 2.04511 16.288 1.5782 15.9438 1.23395C15.5995 0.88969 15.1326 0.696289 14.6458 0.696289ZM14.7497 24.9411H12.152V22.3434H5.22493V24.9411H2.62728V2.53196C2.62728 2.51832 2.62996 2.50481 2.63519 2.4922C2.64041 2.47959 2.64806 2.46814 2.65771 2.45849C2.66736 2.44884 2.67881 2.44119 2.69142 2.43597C2.70403 2.43075 2.71754 2.42806 2.73118 2.42806H14.6458C14.6594 2.42806 14.6729 2.43075 14.6855 2.43597C14.6981 2.44119 14.7096 2.44884 14.7192 2.45849C14.7289 2.46814 14.7365 2.47959 14.7417 2.4922C14.747 2.50481 14.7497 2.51832 14.7497 2.53196V24.9411Z" fill="#316054"/>
<path d="M4.35938 5.02637H6.09114V6.75814H4.35938V5.02637Z" fill="#37493C"/>
<path d="M7.82324 5.02637H9.55501V6.75814H7.82324V5.02637Z" fill="#37493C"/>
<path d="M11.2861 5.02637H13.0179V6.75814H11.2861V5.02637Z" fill="#37493C"/>
<path d="M4.35938 9.35547H6.09114V11.0872H4.35938V9.35547Z" fill="#37493C"/>
<path d="M7.82324 9.35547H9.55501V11.0872H7.82324V9.35547Z" fill="#37493C"/>
<path d="M11.2861 9.35547H13.0179V11.0872H11.2861V9.35547Z" fill="#37493C"/>
<path d="M4.35938 13.6846H6.09114V15.4163H4.35938V13.6846Z" fill="#37493C"/>
<path d="M7.82324 13.6846H9.55501V15.4163H7.82324V13.6846Z" fill="#37493C"/>
<path d="M11.2861 13.6846H13.0179V15.4163H11.2861V13.6846Z" fill="#37493C"/>
<path d="M4.35938 18.0137H6.09114V19.7454H4.35938V18.0137Z" fill="#37493C"/>
<path d="M7.82324 18.0137H9.55501V19.7454H7.82324V18.0137Z" fill="#37493C"/>
<path d="M11.2861 18.0137H13.0179V19.7454H11.2861V18.0137Z" fill="#37493C"/>
<path d="M17.3477 9.35547H19.0794V11.0872H17.3477V9.35547Z" fill="#37493C"/>
<path d="M20.8115 9.35547H22.5433V11.0872H20.8115V9.35547Z" fill="#316054"/>
<path d="M17.3477 13.6846H19.0794V15.4163H17.3477V13.6846Z" fill="#37493C"/>
<path d="M20.8115 13.6846H22.5433V15.4163H20.8115V13.6846Z" fill="#37493C"/>
<path d="M17.3477 18.0137H19.0794V19.7454H17.3477V18.0137Z" fill="#37493C"/>
<path d="M20.8115 18.0137H22.5433V19.7454H20.8115V18.0137Z" fill="#37493C"/>
</svg>
