<svg width="24" height="25" viewBox="0 0 24 25" fill="none" xmlns="http://www.w3.org/2000/svg">
<path d="M21.8692 4.0459H15.4727V5.64503H21.8692V22.436H15.4727V24.0351H23.4683V5.64503C23.4683 5.22092 23.2999 4.81417 23 4.51427C22.7001 4.21438 22.2933 4.0459 21.8692 4.0459Z" fill="#F8AF41"/>
<path d="M12.9774 0.0498047H1.97536C1.52579 0.0498047 1.09464 0.228393 0.776752 0.546283C0.458862 0.864173 0.280273 1.29532 0.280273 1.74489V24.0368H14.6725V1.74489C14.6725 1.29532 14.4939 0.864173 14.176 0.546283C13.8581 0.228393 13.427 0.0498047 12.9774 0.0498047ZM13.0734 22.4377H10.6747V20.039H4.27811V22.4377H1.87941V1.74489C1.87941 1.73229 1.88189 1.71981 1.88671 1.70817C1.89153 1.69653 1.8986 1.68595 1.90751 1.67704C1.91642 1.66813 1.927 1.66107 1.93864 1.65624C1.95028 1.65142 1.96276 1.64894 1.97536 1.64894H12.9774C12.99 1.64894 13.0025 1.65142 13.0141 1.65624C13.0258 1.66107 13.0363 1.66813 13.0453 1.67704C13.0542 1.68595 13.0612 1.69653 13.0661 1.70817C13.0709 1.71981 13.0734 1.73229 13.0734 1.74489V22.4377Z" fill="#F8AF41"/>
<path d="M3.47852 4.0459H5.07765V5.64503H3.47852V4.0459Z" fill="#F8AF41"/>
<path d="M6.67676 4.0459H8.27589V5.64503H6.67676V4.0459Z" fill="#F8AF41"/>
<path d="M9.87549 4.0459H11.4746V5.64503H9.87549V4.0459Z" fill="#F8AF41"/>
<path d="M3.47852 8.0459H5.07765V9.64503H3.47852V8.0459Z" fill="#F8AF41"/>
<path d="M6.67676 8.0459H8.27589V9.64503H6.67676V8.0459Z" fill="#F8AF41"/>
<path d="M9.87549 8.0459H11.4746V9.64503H9.87549V8.0459Z" fill="#F8AF41"/>
<path d="M3.47852 12.043H5.07765V13.6421H3.47852V12.043Z" fill="#F8AF41"/>
<path d="M6.67676 12.043H8.27589V13.6421H6.67676V12.043Z" fill="#F8AF41"/>
<path d="M9.87549 12.043H11.4746V13.6421H9.87549V12.043Z" fill="#F8AF41"/>
<path d="M3.47852 16.0405H5.07765V17.6397H3.47852V16.0405Z" fill="#F8AF41"/>
<path d="M6.67676 16.0405H8.27589V17.6397H6.67676V16.0405Z" fill="#F8AF41"/>
<path d="M9.87549 16.0405H11.4746V17.6397H9.87549V16.0405Z" fill="#F8AF41"/>
<path d="M15.4727 8.0459H17.0718V9.64503H15.4727V8.0459Z" fill="#F8AF41"/>
<path d="M18.6704 8.0459H20.2695V9.64503H18.6704V8.0459Z" fill="#F8AF41"/>
<path d="M15.4727 12.043H17.0718V13.6421H15.4727V12.043Z" fill="#F8AF41"/>
<path d="M18.6704 12.043H20.2695V13.6421H18.6704V12.043Z" fill="#F8AF41"/>
<path d="M15.4727 16.0405H17.0718V17.6397H15.4727V16.0405Z" fill="#F8AF41"/>
<path d="M18.6704 16.0405H20.2695V17.6397H18.6704V16.0405Z" fill="#F8AF41"/>
</svg>
