<svg width="26" height="26" viewBox="0 0 26 26" fill="none" xmlns="http://www.w3.org/2000/svg">
<g id="Group 4609">
<g id="Group 4608">
<path id="Vector" d="M24.2747 4.35156H17.3477V6.08333H24.2747V24.2669H17.3477V25.9987H26.0065V6.08333C26.0065 5.62404 25.824 5.18356 25.4993 4.85879C25.1745 4.53402 24.734 4.35156 24.2747 4.35156Z" fill="black"/>
<path id="Vector_2" d="M14.6458 0.0219727H2.73118C2.24433 0.0219727 1.77742 0.215373 1.43316 0.559629C1.08891 0.903885 0.895508 1.3708 0.895508 1.85765V25.9985H16.4814V1.85765C16.4814 1.3708 16.288 0.903885 15.9438 0.559629C15.5995 0.215373 15.1326 0.0219727 14.6458 0.0219727ZM14.7497 24.2667H12.152V21.6691H5.22493V24.2667H2.62728V1.85765C2.62728 1.844 2.62996 1.83049 2.63519 1.81788C2.64041 1.80528 2.64806 1.79382 2.65771 1.78417C2.66736 1.77453 2.67881 1.76687 2.69142 1.76165C2.70403 1.75643 2.71754 1.75374 2.73118 1.75374H14.6458C14.6594 1.75374 14.6729 1.75643 14.6855 1.76165C14.6981 1.76687 14.7096 1.77453 14.7192 1.78417C14.7289 1.79382 14.7365 1.80528 14.7417 1.81788C14.747 1.83049 14.7497 1.844 14.7497 1.85765V24.2667Z" fill="#131313"/>
<path id="Vector_3" d="M4.35938 4.35156H6.09114V6.08333H4.35938V4.35156Z" fill="#37493C"/>
<path id="Vector_4" d="M7.82324 4.35156H9.55501V6.08333H7.82324V4.35156Z" fill="#37493C"/>
<path id="Vector_5" d="M11.2861 4.35156H13.0179V6.08333H11.2861V4.35156Z" fill="#37493C"/>
<path id="Vector_6" d="M4.35938 8.68066H6.09114V10.4124H4.35938V8.68066Z" fill="#37493C"/>
<path id="Vector_7" d="M7.82324 8.68066H9.55501V10.4124H7.82324V8.68066Z" fill="#37493C"/>
<path id="Vector_8" d="M11.2861 8.68066H13.0179V10.4124H11.2861V8.68066Z" fill="#37493C"/>
<path id="Vector_9" d="M4.35938 13.0098H6.09114V14.7415H4.35938V13.0098Z" fill="#37493C"/>
<path id="Vector_10" d="M7.82324 13.0098H9.55501V14.7415H7.82324V13.0098Z" fill="#37493C"/>
<path id="Vector_11" d="M11.2861 13.0098H13.0179V14.7415H11.2861V13.0098Z" fill="#37493C"/>
<path id="Vector_12" d="M4.35938 17.3398H6.09114V19.0716H4.35938V17.3398Z" fill="#37493C"/>
<path id="Vector_13" d="M7.82324 17.3398H9.55501V19.0716H7.82324V17.3398Z" fill="#37493C"/>
<path id="Vector_14" d="M11.2861 17.3398H13.0179V19.0716H11.2861V17.3398Z" fill="#37493C"/>
<path id="Vector_15" d="M17.3477 8.68066H19.0794V10.4124H17.3477V8.68066Z" fill="#37493C"/>
<path id="Vector_16" d="M20.8115 8.68066H22.5433V10.4124H20.8115V8.68066Z" fill="black"/>
<path id="Vector_17" d="M17.3477 13.0098H19.0794V14.7415H17.3477V13.0098Z" fill="#37493C"/>
<path id="Vector_18" d="M20.8115 13.0098H22.5433V14.7415H20.8115V13.0098Z" fill="#37493C"/>
<path id="Vector_19" d="M17.3477 17.3398H19.0794V19.0716H17.3477V17.3398Z" fill="#37493C"/>
<path id="Vector_20" d="M20.8115 17.3398H22.5433V19.0716H20.8115V17.3398Z" fill="#37493C"/>
</g>
</g>
</svg>
