<svg width="72" height="71" viewBox="0 0 72 71" fill="none" xmlns="http://www.w3.org/2000/svg">
<path d="M0.515137 35.8498C0.515137 16.7344 16.0112 1.23828 35.1267 1.23828H35.9886C55.104 1.23828 70.6001 16.7344 70.6001 35.8498C70.6001 54.9652 55.104 70.4613 35.9886 70.4613H35.1267C16.0112 70.4613 0.515137 54.9652 0.515137 35.8498Z" fill="#F8AF41" stroke="white"/>
<path d="M46.9488 35.0211H49.9862C49.9862 26.545 44.1043 20.1523 36.3027 20.1523V23.4569C42.4717 23.4569 46.9488 28.3195 46.9488 35.0211Z" fill="white"/>
<path d="M36.3177 30.0665C39.5115 30.0665 40.8738 31.5486 40.8738 35.0233H43.9112C43.9112 29.6947 41.2155 26.7619 36.3177 26.7619V30.0665ZM41.5147 39.0598C41.2229 38.7712 40.8394 38.6173 40.4452 38.6305C40.0511 38.6438 39.6771 38.8232 39.4022 39.1308L35.768 43.197C34.8932 43.0153 33.1345 42.4188 31.3243 40.4543C29.514 38.4831 28.9657 36.5648 28.8032 35.6197L32.5377 31.6642C32.8208 31.3654 32.9859 30.9584 32.9981 30.5295C33.0103 30.1005 32.8686 29.6832 32.603 29.3659L26.9914 22.6528C26.7257 22.3345 26.3564 22.1414 25.962 22.1146C25.5675 22.0877 25.179 22.2292 24.8789 22.509L21.5834 25.5839C21.3208 25.8706 21.1641 26.2521 21.1429 26.6562C21.1202 27.0693 20.6858 36.854 27.6597 44.4445C33.7435 51.0618 41.3643 51.5459 43.4632 51.5459C43.77 51.5459 43.9583 51.536 44.0084 51.5327C44.3797 51.5101 44.7303 51.3388 44.9925 51.0519L47.8173 47.4648C48.0746 47.1385 48.205 46.716 48.1806 46.2868C48.1562 45.8577 47.979 45.4558 47.6867 45.1665L41.5147 39.0598Z" fill="white"/>
</svg>
