<svg width="72" height="91" viewBox="0 0 72 91" fill="none" xmlns="http://www.w3.org/2000/svg">
<path d="M33.9685 0.298111C32.6683 0.898186 30.9181 2.84845 30.5181 4.19862C30.218 5.09875 29.918 5.24876 28.7178 5.04874C23.3671 3.94859 19.4666 10.5995 23.0171 14.8C24.2172 16.2502 24.2172 16.4002 23.5171 17.4504C22.467 18.9006 22.517 22.5511 23.5171 24.1513C24.6173 25.8015 26.7176 26.8516 28.9178 26.8516C30.018 26.8516 30.9181 27.2017 31.3182 27.7518C31.6682 28.2518 32.5683 29.1019 33.3684 29.552C34.3186 30.2021 34.7186 30.9022 34.7186 31.9023V33.3525L32.6683 31.9023C30.268 30.1521 26.5175 29.2019 22.717 29.452L19.9667 29.602L19.8166 31.9523C19.4166 38.4032 25.9174 44.854 32.8184 44.854H34.7186V50.5048C34.7186 55.9055 34.6686 56.2555 33.2684 58.5058C31.3182 61.5062 28.3678 63.4565 25.2174 63.7565C23.0171 63.9566 22.617 63.8565 21.2168 62.4564C19.2166 60.4561 19.2166 58.4558 21.2168 56.2055C22.0669 55.2554 22.717 54.1553 22.717 53.7552C22.717 52.8051 21.7169 51.855 20.7168 51.855C19.8166 51.855 17.6664 53.9552 16.7162 55.8055C15.9661 57.3057 15.9161 61.3562 16.6662 62.7564C17.1663 63.6565 16.9663 63.9066 14.966 64.8567C11.0655 66.7569 8.9652 72.2077 11.1155 74.858C12.6157 76.6582 13.9159 75.7581 14.1159 72.7077C14.2659 70.3574 15.9661 67.8571 17.4163 67.8571C18.0664 67.8571 18.0664 68.0571 17.4163 69.7073C16.0661 72.9077 17.3163 77.3083 20.2167 79.3586C21.2668 80.1087 22.1669 80.3587 22.9671 80.1587C24.7673 79.7086 24.5673 78.0084 22.467 76.0582C18.9665 72.8577 20.8168 68.4071 25.9675 67.657C29.2679 67.157 32.6683 65.3567 34.7686 63.0064L36.4688 61.1062L38.4191 63.2565C40.6694 65.7568 43.1197 67.107 45.9701 67.607C49.3706 68.1571 50.6207 68.8572 51.4708 70.7075C52.521 72.9077 52.1209 74.558 50.1707 76.3582C47.2203 79.0086 49.4206 81.7089 52.671 79.4086C54.7713 77.9084 55.8714 75.2581 55.6214 72.2077C55.4714 70.7575 55.2213 69.2073 55.0213 68.7072C54.3712 67.357 55.6214 67.657 57.2716 69.3073C58.4218 70.5074 58.7218 71.2075 58.7218 73.0578C58.7218 74.858 58.9218 75.3581 59.7219 75.6081C61.5722 76.2082 62.3723 74.958 62.1222 71.7576C61.8722 68.2571 60.7221 66.5069 57.8217 65.1067C56.3715 64.4066 55.8214 63.9066 56.0714 63.3565C56.2215 62.9564 56.4715 61.4562 56.6215 60.006C56.8215 57.8057 56.6215 57.0556 55.5214 55.1554C54.1712 52.8551 52.521 51.955 50.9708 52.555C49.9706 52.9051 50.0206 55.1554 50.9708 55.5554C51.4208 55.7055 52.1209 56.6556 52.521 57.6057C53.1211 59.1059 53.1211 59.556 52.521 61.0562C51.6709 63.1064 50.4207 63.8565 48.0204 63.8565C45.5701 63.8565 44.0699 63.2065 41.7195 61.0562C38.5691 58.2058 38.2191 57.2057 38.2191 50.7048V45.004L40.9194 44.704C47.3203 44.0539 52.1209 39.3033 53.021 32.7524C53.4711 29.652 52.721 29.1519 47.8204 29.452C43.8698 29.702 41.4695 30.5521 39.3692 32.5024L38.2191 33.5025V32.1523C38.2191 30.1021 41.8196 26.8516 44.1199 26.8516C48.7705 26.8516 51.6209 22.001 49.4206 17.7504C48.6705 16.3002 48.7205 16.2002 49.8206 15.0001C50.7207 14.0499 50.9708 13.1998 50.9708 11.0495C50.9708 8.69923 50.7707 8.19916 49.3206 6.74896C47.9204 5.34878 47.3203 5.09875 45.17 5.04874C42.7697 5.04874 42.5697 4.89872 41.9696 3.49854C41.5695 2.59841 40.7194 1.54828 40.0193 1.09821C38.5191 0.0980835 35.3687 -0.301971 33.9685 0.298111ZM38.3191 5.09875C38.8192 6.19889 38.7692 6.54893 37.869 7.44906C35.8188 9.44933 32.8684 7.34904 34.2185 4.84872C35.0187 3.34851 37.569 3.49854 38.3191 5.09875ZM29.1179 9.44933C29.4679 9.79937 29.7179 10.4995 29.7179 11.0995C29.7179 11.6996 29.4679 12.3997 29.1179 12.7498C28.7678 13.0998 28.0677 13.3498 27.4677 13.3498C25.4674 13.3498 24.4172 10.8495 25.8174 9.44933C26.1675 9.09927 26.8676 8.84924 27.4677 8.84924C28.0677 8.84924 28.7678 9.09927 29.1179 9.44933ZM46.6202 9.44933C46.9702 9.79937 47.2203 10.4995 47.2203 11.0995C47.2203 11.6996 46.9702 12.3997 46.6202 12.7498C45.22 14.1499 42.7197 13.0998 42.7197 11.0995C42.7197 10.4995 42.9697 9.79937 43.3198 9.44933C43.6698 9.09927 44.3699 8.84924 44.97 8.84924C45.5701 8.84924 46.2701 9.09927 46.6202 9.44933ZM38.1191 13.1498C39.5193 14.0999 39.5693 16.0002 38.2191 17.3504C36.9189 18.6505 35.9188 18.6005 34.4686 17.1003C32.9684 15.6501 32.9184 14.65 34.2185 13.3498C35.4187 12.1497 36.6189 12.0997 38.1191 13.1498ZM30.118 18.9506C31.0681 19.9007 30.8181 21.701 29.6179 22.5511C28.6678 23.2011 28.3678 23.2512 27.4677 22.6511C26.1675 21.801 25.9174 20.2007 26.9676 19.1506C27.9177 18.2005 29.2679 18.1005 30.118 18.9506ZM45.9201 19.4006C47.4203 21.5509 44.92 24.0513 42.7697 22.5511C41.5195 21.6509 41.4195 20.2508 42.5196 19.1506C43.6198 18.0505 45.02 18.1505 45.9201 19.4006ZM37.619 22.6511C38.2191 23.0511 38.7191 23.7512 38.7191 24.2013C38.7191 25.2514 37.269 26.8516 36.3688 26.8516C35.6187 26.8516 33.7185 25.1014 33.7185 24.3513C33.7185 23.7512 35.5687 21.851 36.1188 21.851C36.3188 21.851 37.0189 22.201 37.619 22.6511ZM28.3678 34.1526C30.6181 35.3028 32.1683 36.803 33.2684 38.9532L34.2185 40.8535H32.5183C29.0179 40.8535 26.0175 38.8032 24.1672 35.2027L23.2171 33.3525H24.9673C25.9675 33.3525 27.4677 33.7025 28.3678 34.1526ZM48.2704 35.2027C46.4202 38.8032 43.4198 40.8535 39.9193 40.8535H38.2191L39.1692 38.9532C41.0195 35.3528 43.8198 33.4525 47.3703 33.4025L49.2205 33.3525L48.2704 35.2027Z" fill="#326555"/>
<path d="M49.3211 45.3541C45.1705 46.3043 41.32 50.7048 40.87 55.0054C40.3699 59.156 43.6703 59.556 44.6705 55.5555C45.0205 54.3053 45.6206 52.7051 46.0206 52.055C47.1708 50.3548 49.8212 48.8546 51.6714 48.8546C55.6719 48.8546 60.9226 53.7052 62.6729 59.0059C64.4731 64.4067 67.7235 78.4585 68.0236 82.159C68.4736 87.0597 68.6737 86.9596 56.472 86.7596C47.1708 86.6096 46.7707 86.5596 45.5706 85.4594C43.0703 83.1091 42.5702 81.0089 43.0703 75.1581C43.5203 69.6073 43.2703 68.3572 41.7701 68.3572C40.2199 68.3572 39.8198 69.4073 39.3198 74.758C38.7697 81.0089 39.2197 83.6092 41.42 86.5096C43.9704 89.86 45.0705 90.2101 55.1219 90.5601C65.2732 90.9602 68.7737 90.5101 70.7239 88.6099C71.8741 87.4597 71.9741 86.9596 71.9241 83.4592C71.8241 76.9083 66.8234 57.4057 64.1731 53.2552C60.4726 47.5544 54.2217 44.204 49.3211 45.3541Z" fill="#326555"/>
<path d="M15.8664 46.554C12.716 48.0542 9.46559 51.2546 7.61534 54.7051C6.16515 57.3054 1.76457 74.1577 0.764436 80.9086C0.0643434 85.4092 0.664423 87.9595 2.86471 89.5597C4.21489 90.5599 4.91499 90.6099 15.3664 90.6099C27.968 90.6099 28.5681 90.4598 31.2185 86.7594C33.6188 83.4589 33.9688 81.7087 33.3187 75.2578C32.6687 69.257 32.1186 68.0069 30.2183 68.6069C29.1182 68.957 29.1182 69.057 29.4682 75.0578C29.8683 81.9087 29.5683 83.1589 26.7179 85.5592L25.1177 86.8594H15.2664C4.51493 86.8594 4.21489 86.7594 4.21489 84.059C4.21489 80.4585 9.11554 59.9558 10.7658 56.7554C13.1661 52.0047 18.1167 48.4543 21.5172 49.0043C24.9176 49.5544 27.2679 52.1048 27.968 56.0053C28.1681 57.1054 28.6681 57.9555 29.2182 58.1056C33.6188 59.5057 31.7185 50.5045 26.8179 47.1541C23.8175 45.0038 19.5169 44.8038 15.8664 46.554Z" fill="#326555"/>
</svg>
