<svg width="16" height="19" viewBox="0 0 16 19" fill="none" xmlns="http://www.w3.org/2000/svg">
<path d="M4.39676 2.63359V0.945312M11.1499 2.63359V0.945312M7.77331 17.828C4.39085 17.828 2.70004 17.828 1.64909 16.7155C0.598144 15.6029 0.598145 13.8116 0.598145 10.2308C0.598145 6.64999 0.598144 4.85873 1.64909 3.74616C2.70004 2.63359 4.39085 2.63359 7.77331 2.63359C11.1558 2.63359 12.8466 2.63359 13.8975 3.74616C14.9485 4.85873 14.9485 6.64999 14.9485 10.2308C14.9485 13.8116 14.9485 15.6029 13.8975 16.7155C12.8466 17.828 11.1558 17.828 7.77331 17.828Z" stroke="white" stroke-linecap="round" stroke-linejoin="round"/>
<path d="M9.47684 7.2703C9.47684 7.71806 9.29897 8.14748 8.98236 8.46409C8.66574 8.78071 8.23632 8.95858 7.78857 8.95858C7.34081 8.95858 6.91139 8.78071 6.59478 8.46409C6.27817 8.14748 6.10029 7.71806 6.10029 7.2703C6.10029 6.82255 6.27817 6.39313 6.59478 6.07652C6.91139 5.7599 7.34081 5.58203 7.78857 5.58203C8.23632 5.58203 8.66574 5.7599 8.98236 6.07652C9.29897 6.39313 9.47684 6.82255 9.47684 7.2703ZM4.45001 13.3675C5.3431 11.9916 6.7621 11.4766 7.78857 11.4775C8.81504 11.4783 10.1927 11.9924 11.0858 13.3683C11.1432 13.457 11.1592 13.5659 11.1069 13.6587C10.8984 14.0293 10.2492 14.7645 9.78157 14.8144C9.24301 14.8709 7.83415 14.8794 7.78941 14.8794C7.74467 14.8794 6.2936 14.8709 5.75504 14.8144C5.2857 14.7637 4.63741 14.0293 4.42806 13.6579C4.37657 13.5659 4.39261 13.457 4.45001 13.3675Z" stroke="white" stroke-linecap="round" stroke-linejoin="round"/>
</svg>
