<svg width="69" height="68" viewBox="0 0 69 68" fill="none" xmlns="http://www.w3.org/2000/svg">
<path d="M32.2503 0.213036C24.4737 1.15534 18.2504 6.90237 16.5936 14.6997C16.3761 15.7145 16.3451 16.0976 16.3451 18.2722C16.3554 21.0473 16.4797 21.8653 17.2356 24.1124C18.4471 27.6745 20.8288 30.8638 23.956 33.1109C25.7267 34.3638 28.3051 35.5132 30.4486 35.9792C30.9249 36.0828 31.3495 36.1863 31.3702 36.2174C31.3909 36.2381 31.4012 37.315 31.3909 38.599L31.3598 40.9393L30.7385 40.5251C28.3051 38.9097 25.9649 37.957 23.024 37.3978C22.0093 37.2115 21.4708 37.17 19.3791 37.17H16.9146L16.5936 37.491C16.2829 37.8017 16.2726 37.8431 16.2726 38.6922C16.2829 41.8194 18.2711 45.0191 21.5536 47.204C24.2459 48.9954 26.6794 49.7306 29.4959 49.6064C30.2415 49.5753 30.9663 49.5236 31.132 49.4821L31.4116 49.42V55.5916V61.7632H22.2992H13.1868V59.3815V56.9999L13.4664 57.0723C13.6321 57.1138 14.2016 57.1448 14.74 57.1448C16.2519 57.1345 17.6187 56.7099 18.9235 55.8608C20.8598 54.5975 22.1542 52.599 22.3613 50.528C22.4338 49.8653 22.4235 49.8549 22.0714 49.5028C21.5433 48.9747 20.5699 48.6952 19.0684 48.633C17.9915 48.5916 17.7533 48.6227 16.9146 48.8608C15.8273 49.1715 15.1439 49.4925 14.2741 50.1138C13.6631 50.5487 12.8347 51.3667 12.3895 51.9777L12.1616 52.2883L11.8717 51.9259C10.1528 49.7514 7.93681 48.6123 5.4309 48.6123C3.888 48.6123 2.28298 49.1301 2.0241 49.6996C1.62026 50.5694 2.39688 52.8682 3.55664 54.2765C4.59214 55.5294 6.28001 56.5649 7.90574 56.9584C8.70308 57.1448 10.3185 57.2173 10.8362 57.0723L11.1158 56.9999V59.3815V61.7528L6.14539 61.7839L1.17499 61.8149L0.895409 62.1049L0.605469 62.3845V64.7661V67.1478L0.895409 67.4273L1.17499 67.7173H34.4145H67.6541L67.9337 67.4273L68.2236 67.1478V64.7661V62.3845L67.9337 62.1049L67.6541 61.8149L62.6837 61.7839L57.7133 61.7528V59.3815V56.9999L58.0032 57.0723C58.1586 57.1138 58.7488 57.1448 59.3183 57.1345C62.8079 57.0931 66.0905 54.5043 66.7739 51.2528C67.0535 49.9067 66.95 49.565 66.163 49.1818C64.9618 48.602 63.2118 48.4466 61.7207 48.778C59.9086 49.1818 58.0861 50.3934 56.9056 51.9777L56.6778 52.2883L56.45 51.9777C55.6112 50.849 54.41 49.8756 53.1364 49.2957C51.2207 48.4156 48.8701 48.3741 47.1926 49.1818C46.4678 49.5339 46.3539 49.8238 46.5092 50.8593C46.737 52.278 47.3997 53.5827 48.4559 54.6596C49.9988 56.2543 51.9352 57.1138 54.0373 57.1345C54.6068 57.1448 55.197 57.1138 55.3627 57.0723L55.6423 56.9999V59.3815V61.7632H46.5299H37.4175V55.5916V49.42L37.7074 49.4821C37.8628 49.5132 38.598 49.5753 39.3332 49.6064C42.129 49.741 44.5832 48.9954 47.2547 47.2144C50.7133 44.9156 52.6186 41.6952 52.5461 38.2884C52.5358 37.957 52.4633 37.7603 52.2355 37.5117L51.9352 37.17L50.0609 37.139C49.0254 37.1079 47.7311 37.1493 47.1823 37.2115C43.8997 37.5946 40.9175 38.6508 38.4633 40.2972C37.9249 40.6597 37.4693 40.9496 37.4486 40.9496C37.4278 40.9496 37.4175 39.883 37.4175 38.568V36.1863L37.7074 36.1242C41.6009 35.2854 44.3139 33.8875 46.9855 31.3195C49.2429 29.1553 50.8376 26.5769 51.7488 23.6568C52.3908 21.5858 52.484 20.8816 52.484 18.2204C52.484 16.108 52.4529 15.7041 52.2355 14.6997C50.6719 7.36834 45.1113 1.83878 37.8835 0.420135C35.9367 0.0370026 34.2074 -0.0251236 32.2503 0.213036ZM36.6512 2.23226C41.3213 2.87428 45.5979 5.67012 48.166 9.72928C48.7148 10.6095 49.6157 12.5976 49.8953 13.571C50.4234 15.3831 50.5994 16.781 50.5373 18.7381C50.4544 21.3372 49.9781 23.2633 48.8805 25.4378C45.4219 32.3032 37.8317 35.7825 30.4279 33.9082C26.6586 32.9555 23.2104 30.5428 21.0773 27.3431C19.2548 24.6198 18.4161 22.0932 18.2918 18.9349C18.1158 14.2544 19.6794 10.216 22.9516 6.90237C25.5196 4.30326 28.5018 2.80179 32.3435 2.19084C32.9131 2.09765 35.8953 2.12872 36.6512 2.23226ZM35.3983 49.0783V61.7114L34.3938 61.7424L33.379 61.7735V49.1508C33.379 42.2129 33.4101 36.497 33.4515 36.4555C33.4929 36.4141 33.9486 36.4038 34.4663 36.4141L35.3983 36.4452V49.0783ZM22.7341 39.386C25.6439 39.8934 28.7918 41.3535 30.956 43.207L31.4012 43.5901L31.4116 45.4644C31.4116 47.1523 31.3909 47.3594 31.2356 47.4111C31.132 47.4525 30.5728 47.5354 29.993 47.6079C28.1291 47.815 26.1513 47.4318 24.3184 46.5206C21.2223 44.9674 19.0167 42.5236 18.4161 39.9866C18.1779 38.9718 18.0433 39.0443 19.8968 39.1168C20.7874 39.1478 22.0714 39.2721 22.7341 39.386ZM50.5683 39.21C50.558 39.562 50.2266 40.7114 49.9574 41.3017C49.2636 42.8342 47.9589 44.315 46.271 45.4644C43.7651 47.173 41.311 47.8771 38.8361 47.6079C38.2562 47.5354 37.6971 47.4525 37.5935 47.4111C37.4382 47.3594 37.4175 47.1523 37.4175 45.4644V43.5901L38.0388 43.0724C40.2133 41.2706 43.2059 39.8934 46.0432 39.3964C47.4204 39.1582 47.7518 39.1271 49.3568 39.1064C50.268 39.0857 50.5683 39.1168 50.5683 39.21ZM6.71492 50.7351C7.95752 51.0664 9.24154 51.8431 9.97674 52.7336C10.3806 53.2099 11.0122 54.4629 11.0122 54.7735C11.0122 55.0635 10.7119 55.136 9.55219 55.136C7.47083 55.136 5.30664 53.7795 4.3954 51.9052C3.95013 50.994 3.93978 50.7661 4.33327 50.673C4.91315 50.5487 6.09362 50.5798 6.71492 50.7351ZM19.9383 50.6833C20.311 50.7869 20.311 50.7972 20.2075 51.1803C19.9072 52.2573 18.9856 53.4274 17.8155 54.204C16.6868 54.9599 15.0714 55.3016 13.6838 55.0738C13.3628 55.0221 13.2903 54.9599 13.2903 54.7735C13.2903 54.4422 13.9427 53.1892 14.3776 52.6715C14.8229 52.1537 15.8687 51.3874 16.5211 51.0975C17.6084 50.6212 19.0581 50.4451 19.9383 50.6833ZM51.2414 50.7351C52.9293 51.17 54.4308 52.3298 55.1556 53.7795C55.3627 54.204 55.5387 54.6493 55.5387 54.7735C55.5387 55.0531 55.2281 55.136 54.1512 55.136C51.9456 55.136 49.8642 53.8416 48.9115 51.8741C48.4352 50.8801 48.4352 50.8076 48.8287 50.6937C49.3568 50.5487 50.5683 50.559 51.2414 50.7351ZM64.4751 50.6937C64.9411 50.8179 64.9307 50.849 64.3923 51.988C63.7399 53.3238 62.1763 54.5664 60.6127 54.9806C60.0225 55.136 58.7074 55.1877 58.1378 55.0738C57.7029 54.9806 57.7133 54.7425 58.1896 53.8002C58.9041 52.3815 60.4367 51.17 62.0624 50.7454C62.7458 50.5694 63.9263 50.5383 64.4751 50.6937ZM66.2044 64.7143V65.6981H34.4145H2.62469V64.7143V63.7306H34.4145H66.2044V64.7143Z" fill="#326555"/>
<path d="M31.9811 4.25159C30.2001 4.56224 28.0566 5.41135 26.6173 6.37437C23.138 8.72495 20.9324 12.2249 20.3318 16.398C20.1661 17.4749 20.2489 20.0119 20.4664 21.0163C21.709 26.6391 25.7992 30.8225 31.3495 32.1273C32.3643 32.3654 32.7164 32.3965 34.3628 32.3965C35.7814 32.3965 36.4338 32.3551 37.1069 32.2101C40.058 31.5784 42.3258 30.3565 44.4175 28.2752C47.058 25.6347 48.4145 22.5489 48.5699 18.8418C48.7148 15.1865 47.6068 11.9246 45.277 9.11844C43.1335 6.5504 40.0995 4.82112 36.7548 4.24124C35.6158 4.04449 33.1202 4.05485 31.9811 4.25159ZM36.4442 6.20869C39.064 6.67466 41.3317 7.8862 43.2267 9.85365C45.3391 12.0386 46.4574 14.6687 46.6024 17.7545C46.8199 22.5489 44.1069 27.074 39.7474 29.2071C35.5743 31.2471 30.7903 30.7707 27.0522 27.9542C21.7401 23.9675 20.6321 16.2841 24.598 11.0134C26.493 8.5075 29.2785 6.76786 32.3022 6.21904C33.4101 6.0223 35.3258 6.0223 36.4442 6.20869Z" fill="#326555"/>
<path d="M8.06077 7.07849C7.47054 7.32701 7.23237 8.18647 7.63622 8.62138C7.73977 8.73529 8.54746 9.25304 9.43799 9.76043C10.3389 10.2782 11.6747 11.0445 12.4306 11.4794C13.9631 12.3595 14.3152 12.4424 14.8122 12.0178C15.2057 11.6865 15.2161 11.0341 14.8433 10.6717C14.4912 10.33 8.86846 7.08884 8.5371 7.03707C8.39213 7.006 8.17468 7.02671 8.06077 7.07849Z" fill="#326555"/>
<path d="M59.8666 7.18198C58.1476 8.12429 54.192 10.4645 53.9849 10.6716C53.6121 11.034 53.6225 11.6864 54.016 12.0178C54.5752 12.4941 54.7823 12.4216 57.9612 10.5991C59.5559 9.67754 60.9849 8.81807 61.1299 8.68346C61.6683 8.15535 61.337 7.18198 60.5603 7.03701C60.3532 6.99559 60.1254 7.04737 59.8666 7.18198Z" fill="#326555"/>
<path d="M4.36383 17.4127C3.79431 17.7751 3.73218 18.5932 4.24993 18.997C4.5088 19.1937 4.66413 19.2041 8.21589 19.2041H11.923L12.1922 18.8831C12.5443 18.4689 12.5443 17.9719 12.2129 17.5784L11.9644 17.2884L8.29873 17.2677C5.00584 17.2367 4.61235 17.2574 4.36383 17.4127Z" fill="#326555"/>
<path d="M56.9262 17.3402C56.2738 17.5991 56.1807 18.6139 56.7709 19.0695C56.8951 19.1627 57.8892 19.1937 60.6229 19.2041C64.1644 19.2041 64.3197 19.1937 64.5786 18.997C65.0963 18.5828 65.0342 17.7544 64.4543 17.4127C64.1851 17.2574 63.7605 17.2367 60.6437 17.247C58.7176 17.247 57.0401 17.2884 56.9262 17.3402Z" fill="#326555"/>
<path d="M13.4451 24.444C13.1655 24.5993 11.954 25.2931 10.7528 25.9869C9.56198 26.6807 8.38151 27.3537 8.14335 27.4884C7.56347 27.8094 7.3253 28.2857 7.49098 28.7827C7.55311 28.9795 7.70844 29.2176 7.8327 29.3005C8.29867 29.6318 8.65074 29.5076 10.8356 28.2546C14.6981 26.0283 14.8327 25.9351 15.0087 25.6141C15.2055 25.231 15.1226 24.7961 14.812 24.4958C14.4288 24.1437 14.0353 24.1333 13.4451 24.444Z" fill="#326555"/>
<path d="M54.3479 24.2677C53.7784 24.5162 53.5506 25.179 53.8612 25.676C54.1512 26.1213 59.95 29.4556 60.4367 29.4556C61.1719 29.4556 61.6068 28.7514 61.2961 28.0784C61.1615 27.8195 60.8923 27.602 60.1157 27.1568C59.5668 26.8358 58.2103 26.0591 57.1024 25.4275C55.0728 24.2574 54.7207 24.1124 54.3479 24.2677Z" fill="#326555"/>
<g clip-path="url(#clip0_1_572)">
<path d="M39.0898 15.6677V16.6819C39.0898 16.7747 39.0575 16.8509 38.9928 16.9106C38.9282 16.9702 38.8456 17 38.745 17H36.9346C36.7694 17.9546 36.306 18.7302 35.5446 19.3267C34.7831 19.9233 33.7917 20.2879 32.5704 20.4205C33.7701 21.6004 35.4188 23.3769 37.5165 25.75C37.6171 25.8561 37.6315 25.9688 37.5596 26.0881C37.5022 26.2074 37.398 26.2671 37.2471 26.2671H35.1458C35.0309 26.2671 34.9411 26.2273 34.8764 26.1478C32.6782 23.715 30.8894 21.8225 29.5101 20.4702C29.4454 20.4106 29.4131 20.3376 29.4131 20.2515V18.9887C29.4131 18.9025 29.4472 18.8279 29.5155 18.765C29.5837 18.702 29.6645 18.6705 29.7579 18.6705H30.9648C31.9131 18.6705 32.6764 18.528 33.2547 18.2429C33.833 17.9579 34.2012 17.5436 34.3592 17H29.7579C29.6573 17 29.5747 16.9702 29.5101 16.9106C29.4454 16.8509 29.4131 16.7747 29.4131 16.6819V15.6677C29.4131 15.5749 29.4454 15.4986 29.5101 15.439C29.5747 15.3793 29.6573 15.3495 29.7579 15.3495H34.2083C33.7989 14.6004 32.8362 14.2259 31.3204 14.2259H29.7579C29.6645 14.2259 29.5837 14.1944 29.5155 14.1314C29.4472 14.0685 29.4131 13.9939 29.4131 13.9077V12.5853C29.4131 12.4925 29.4454 12.4162 29.5101 12.3566C29.5747 12.2969 29.6573 12.2671 29.7579 12.2671H38.7234C38.824 12.2671 38.9066 12.2969 38.9713 12.3566C39.0359 12.4162 39.0683 12.4925 39.0683 12.5853V13.5995C39.0683 13.6923 39.0359 13.7685 38.9713 13.8282C38.9066 13.8878 38.824 13.9177 38.7234 13.9177H36.2127C36.5503 14.322 36.7802 14.7993 36.9023 15.3495H38.745C38.8456 15.3495 38.9282 15.3793 38.9928 15.439C39.0575 15.4986 39.0898 15.5749 39.0898 15.6677Z" fill="#326555"/>
</g>
<defs>
<clipPath id="clip0_1_572">
<rect width="10" height="14" fill="white" transform="translate(29.4131 12.2671)"/>
</clipPath>
</defs>
</svg>
