<svg width="33" height="29" viewBox="0 0 33 29" fill="none" xmlns="http://www.w3.org/2000/svg">
<path d="M3.61332 28.9798L0.929688 26.2979H32.2969L29.6167 28.9798H3.61332ZM2.70716 24.2189C2.90466 23.7856 3.15385 23.3807 3.45475 23.0043C3.7568 22.6303 4.08848 22.2846 4.44978 21.9675V8.20077H2.70716V6.65855H4.44978V5.017H2.70716V3.47478H4.44978V1.83323H2.70716V0.292755H13.4975C14.2724 0.292755 14.9351 0.56867 15.4858 1.1205C16.0365 1.67233 16.3124 2.33453 16.3135 3.10709V3.47652H30.5891V5.01874H16.3135V5.37598C16.3135 6.16248 16.0376 6.83049 15.4858 7.38C14.9351 7.92834 14.2729 8.20251 13.4992 8.20251H10.3451V20.1046C11.02 20.208 11.6782 20.3794 12.3195 20.6187C12.9607 20.8568 13.5561 21.1926 14.1056 21.6259C14.3914 19.8717 15.2279 18.4416 16.615 17.3356C18.0033 16.2284 19.599 15.6749 21.402 15.6749C23.4595 15.6749 25.2143 16.3835 26.6665 17.8009C28.1187 19.2182 28.8453 20.951 28.8465 22.9991V24.2189H2.70716ZM15.7838 22.4763H26.9627C26.8489 21.0276 26.2622 19.8223 25.2027 18.8604C24.1443 17.8973 22.878 17.4158 21.4037 17.4158C19.9156 17.4158 18.6353 17.8938 17.563 18.8499C16.4907 19.806 15.8976 21.016 15.7838 22.4763ZM10.3468 3.47827H14.5709V2.90669C14.5709 2.59302 14.4704 2.33627 14.2695 2.13645C14.0685 1.93547 13.8111 1.83498 13.4975 1.83498H10.3486L10.3468 3.47827ZM10.3468 6.66204H13.4975C13.8111 6.66204 14.0685 6.56155 14.2695 6.36056C14.4704 6.15958 14.5709 5.90283 14.5709 5.59032V5.02049H10.3486L10.3468 6.66204ZM5.99026 3.47827H8.80634V1.83498H5.99026V3.47827ZM5.99026 6.66204H8.80634V5.01526H5.99026V6.66204ZM5.99026 20.9115C6.43753 20.6768 6.8941 20.495 7.35996 20.366C7.82582 20.2371 8.30795 20.1406 8.80634 20.0767V8.20251H5.99026V20.9115Z" fill="#326555"/>
</svg>
