<svg width="21" height="22" viewBox="0 0 21 22" fill="none" xmlns="http://www.w3.org/2000/svg">
<path fill-rule="evenodd" clip-rule="evenodd" d="M16.1046 4.64893C16.2703 4.64893 16.4293 4.71477 16.5465 4.83198C16.6637 4.94919 16.7296 5.10816 16.7296 5.27392V10.8294C16.7296 10.9951 16.6637 11.1541 16.5465 11.2713C16.4293 11.3885 16.2703 11.4544 16.1046 11.4544C15.9388 11.4544 15.7799 11.3885 15.6626 11.2713C15.5454 11.1541 15.4796 10.9951 15.4796 10.8294V6.78223L6.50195 15.7599H10.5491C10.7149 15.7599 10.8738 15.8257 10.991 15.9429C11.1083 16.0601 11.1741 16.2191 11.1741 16.3849C11.1741 16.5506 11.1083 16.7096 10.991 16.8268C10.8738 16.944 10.7149 17.0098 10.5491 17.0098H4.99364C4.82788 17.0098 4.66892 16.944 4.55171 16.8268C4.4345 16.7096 4.36865 16.5506 4.36865 16.3849V10.8294C4.36865 10.7473 4.38482 10.666 4.41623 10.5902C4.44764 10.5144 4.49367 10.4455 4.55171 10.3874C4.60974 10.3294 4.67864 10.2834 4.75447 10.252C4.8303 10.2206 4.91157 10.2044 4.99364 10.2044C5.07572 10.2044 5.15699 10.2206 5.23282 10.252C5.30864 10.2834 5.37754 10.3294 5.43558 10.3874C5.49361 10.4455 5.53965 10.5144 5.57106 10.5902C5.60247 10.666 5.61863 10.7473 5.61863 10.8294V14.8765L14.5963 5.89891H10.5491C10.3834 5.89891 10.2244 5.83306 10.1072 5.71585C9.98997 5.59864 9.92412 5.43967 9.92412 5.27392C9.92412 5.10816 9.98997 4.94919 10.1072 4.83198C10.2244 4.71477 10.3834 4.64893 10.5491 4.64893H16.1046Z" fill="black"/>
</svg>
