<svg width="16" height="15" viewBox="0 0 16 15" fill="none" xmlns="http://www.w3.org/2000/svg">
<path id="Vector" d="M13.6097 8.74137C12.3996 8.74137 11.2667 9.0731 10.2974 9.64931C11.1603 10.6581 11.8301 11.8171 12.2734 13.0684H13.6097V8.74137ZM10.728 13.0684C9.31448 9.68032 5.97117 7.29904 2.07111 7.29904V13.0684H10.728ZM2.07111 5.85671C4.83317 5.85671 7.3522 6.89158 9.264 8.59425C10.5548 7.74694 12.0657 7.29663 13.6097 7.29904V1.52973H14.3367C14.7319 1.52973 15.0521 1.85065 15.0521 2.24585V13.7946C15.0507 13.984 14.975 14.1652 14.8411 14.2992C14.7073 14.4332 14.5261 14.5092 14.3367 14.5107H1.34418C1.15438 14.5105 0.972417 14.435 0.838275 14.3007C0.704133 14.1664 0.628784 13.9844 0.628784 13.7946V2.24585C0.630104 2.05645 0.705877 1.87518 0.839734 1.74119C0.973591 1.6072 1.15479 1.53124 1.34418 1.52973H3.51344V0.0874023H4.95577V2.97206H2.07111V5.85671ZM12.1674 0.0874023V2.97206H6.3981V1.52973H10.7251V0.0874023H12.1674ZM11.0857 6.57788C10.7988 6.57788 10.5236 6.46391 10.3208 6.26104C10.1179 6.05818 10.0039 5.78303 10.0039 5.49613C10.0039 5.20924 10.1179 4.93409 10.3208 4.73122C10.5236 4.52836 10.7988 4.41439 11.0857 4.41439C11.3726 4.41439 11.6477 4.52836 11.8506 4.73122C12.0534 4.93409 12.1674 5.20924 12.1674 5.49613C12.1674 5.78303 12.0534 6.05818 11.8506 6.26104C11.6477 6.46391 11.3726 6.57788 11.0857 6.57788Z" fill="white"/>
</svg>
