<svg width="58" height="57" viewBox="0 0 58 57" fill="none" xmlns="http://www.w3.org/2000/svg">
<path d="M51.844 22.6429C51.844 22.0648 51.6143 21.5103 51.2055 21.1014C50.7966 20.6926 50.2421 20.4629 49.664 20.4629C49.0858 20.4629 48.5313 20.6926 48.1225 21.1014C47.7136 21.5103 47.484 22.0648 47.484 22.6429H51.844ZM11.1506 22.6429C11.1506 22.0648 10.9209 21.5103 10.5121 21.1014C10.1032 20.6926 9.54875 20.4629 8.97057 20.4629C8.3924 20.4629 7.83791 20.6926 7.42908 21.1014C7.02025 21.5103 6.79057 22.0648 6.79057 22.6429H11.1506ZM53.9368 29.9968C54.1363 30.211 54.377 30.3828 54.6444 30.5019C54.9118 30.6211 55.2005 30.6852 55.4932 30.6903C55.7859 30.6955 56.0767 30.6416 56.3481 30.532C56.6196 30.4224 56.8662 30.2592 57.0732 30.0522C57.2802 29.8451 57.4434 29.5986 57.553 29.3271C57.6627 29.0557 57.7165 28.7649 57.7113 28.4722C57.7062 28.1795 57.6421 27.8908 57.523 27.6234C57.4038 27.356 57.232 27.1153 57.0178 26.9157L53.9368 29.9968ZM29.3173 2.29625L30.8578 0.755713C30.449 0.34747 29.895 0.118164 29.3173 0.118164C28.7396 0.118164 28.1855 0.34747 27.7767 0.755713L29.3173 2.29625ZM1.6167 26.9157C1.40251 27.1153 1.23072 27.356 1.11157 27.6234C0.992424 27.8908 0.928355 28.1795 0.923191 28.4722C0.918026 28.7649 0.971871 29.0557 1.08151 29.3271C1.19116 29.5986 1.35435 29.8451 1.56136 30.0522C1.76837 30.2592 2.01495 30.4224 2.2864 30.532C2.55785 30.6416 2.8486 30.6955 3.14131 30.6903C3.43402 30.6852 3.72269 30.6211 3.9901 30.5019C4.25752 30.3828 4.49819 30.211 4.69777 29.9968L1.6167 26.9157ZM14.7839 56.7963H43.8506V52.4363H14.7839V56.7963ZM51.844 48.803V22.6429H47.484V48.803H51.844ZM11.1506 48.803V22.6429H6.79057V48.803H11.1506ZM57.0178 26.9157L30.8578 0.755713L27.7767 3.83678L53.9368 29.9968L57.0178 26.9157ZM27.7767 0.755713L1.6167 26.9157L4.69777 29.9968L30.8578 3.83678L27.7767 0.755713ZM43.8506 56.7963C45.9706 56.7963 48.0037 55.9542 49.5028 54.4551C51.0018 52.9561 51.844 50.9229 51.844 48.803H47.484C47.484 50.8086 45.8562 52.4363 43.8506 52.4363V56.7963ZM14.7839 52.4363C12.7783 52.4363 11.1506 50.8086 11.1506 48.803H6.79057C6.79057 50.9229 7.63272 52.9561 9.13177 54.4551C10.6308 55.9542 12.6639 56.7963 14.7839 56.7963V52.4363Z" fill="#AA601F"/>
<path d="M30.8333 46.0445C30.2248 45.8821 29.7268 45.501 29.1811 45.2131C28.6831 44.951 28.1937 44.6696 27.7022 44.3902C27.5463 44.3014 27.3904 44.2625 27.2107 44.2625C26.2319 44.2668 25.2532 44.2668 24.2723 44.2646C23.4192 44.2625 22.971 43.8099 22.9688 42.9546C22.9688 42.6341 22.9601 42.3115 22.971 41.991C22.9775 41.8221 22.9233 41.7225 22.7696 41.6381C21.8363 41.1249 20.9074 40.6031 19.9785 40.0834C19.2877 39.6979 19.1123 39.07 19.4999 38.3749C19.8702 37.7123 20.2361 37.0454 20.6151 36.3871C20.706 36.2291 20.6844 36.149 20.5371 36.0472C19.92 35.6293 19.3137 35.2005 18.7009 34.7783C17.9907 34.2889 17.8738 33.6826 18.3696 32.9681C19.8507 30.8309 21.3361 28.6959 22.8215 26.563C22.9255 26.4136 22.9775 26.2664 22.9731 26.0845C22.9645 25.7012 22.9666 25.3158 22.971 24.9325C22.9796 24.2548 23.4408 23.7416 24.1164 23.7633C24.6015 23.7784 24.8938 23.629 25.1579 23.2176C25.5239 22.6481 26.1735 22.5723 26.7473 22.9513C27.0223 23.1331 27.293 23.3194 27.5593 23.5142C27.6871 23.6073 27.7563 23.5879 27.83 23.4471C27.9729 23.1699 28.1309 22.8971 28.2847 22.6243C28.6485 21.979 29.2721 21.7971 29.9238 22.1566C30.8095 22.6438 31.6908 23.1375 32.5699 23.6333C32.7106 23.7134 32.8535 23.7503 33.0159 23.7481C34.0033 23.7438 34.9907 23.7459 35.9781 23.7459C36.8334 23.7459 37.2838 24.1985 37.286 25.0516C37.286 25.3894 37.2925 25.725 37.2838 26.0628C37.2795 26.2079 37.3358 26.2902 37.4614 26.3595C38.3946 26.8748 39.3214 27.3988 40.2525 27.9142C40.9692 28.3105 41.1489 28.9362 40.7462 29.653C40.3867 30.2961 40.036 30.9435 39.6678 31.5801C39.5596 31.7663 39.5682 31.8659 39.7588 31.9937C40.3586 32.3921 40.9411 32.8165 41.5387 33.2193C41.8202 33.4098 42.0432 33.6393 42.1645 33.9598C42.1645 34.1482 42.1645 34.3366 42.1645 34.525C42.0865 34.7675 41.9414 34.971 41.7985 35.1767C40.43 37.145 39.0724 39.1198 37.6866 41.0773C37.3964 41.4887 37.221 41.8914 37.2816 42.396C37.3076 42.619 37.2881 42.8507 37.286 43.078C37.2752 43.7688 36.8096 44.2798 36.121 44.2516C35.649 44.2322 35.3718 44.3837 35.1141 44.7778C34.7287 45.369 34.0835 45.4491 33.4923 45.0506C33.239 44.8796 32.9835 44.7107 32.7409 44.5266C32.5742 44.4011 32.4898 44.44 32.4031 44.6133C32.2884 44.8449 32.1433 45.0615 32.0285 45.2932C31.8272 45.6981 31.5197 45.9601 31.0693 46.0445C30.9892 46.0445 30.9112 46.0445 30.8333 46.0445ZM36.6169 34.0204C36.6169 31.0604 36.6169 28.0982 36.6169 25.1382C36.6169 25.0213 36.6191 24.9022 36.5996 24.7875C36.5671 24.5882 36.4415 24.467 36.2423 24.4367C36.1492 24.4215 36.0539 24.4237 35.9608 24.4237C32.0762 24.4237 28.1894 24.4237 24.3048 24.4237C24.2182 24.4237 24.1316 24.4237 24.0471 24.4323C23.8219 24.4562 23.6769 24.5969 23.6509 24.8243C23.64 24.926 23.64 25.0278 23.64 25.1296C23.64 31.0518 23.64 36.974 23.64 42.894C23.64 43.0044 23.6379 43.1148 23.6552 43.2231C23.6877 43.4331 23.8154 43.5566 24.0255 43.5891C24.1099 43.602 24.1965 43.5999 24.2831 43.5999C28.1829 43.5999 32.0848 43.5999 35.9846 43.5999C36.0712 43.5999 36.1578 43.602 36.2423 43.5869C36.4415 43.5544 36.5671 43.4331 36.5996 43.2339C36.6169 43.1192 36.6169 43.0001 36.6169 42.8832C36.6169 39.9275 36.6169 36.974 36.6169 34.0204ZM37.299 40.4926C37.3488 40.4298 37.3791 40.3973 37.4051 40.3605C38.7194 38.4702 40.0316 36.5799 41.3438 34.6874C41.6426 34.2565 41.5993 34.0616 41.1619 33.7584C39.9385 32.9096 38.7173 32.0608 37.4939 31.2142C37.4397 31.1752 37.3921 31.1146 37.299 31.1254C37.299 34.2348 37.299 37.3442 37.299 40.4926ZM22.9623 27.5331C22.919 27.5786 22.9017 27.5937 22.8887 27.611C21.5462 29.5404 20.2058 31.4697 18.8676 33.4012C18.6295 33.7454 18.6771 33.9728 19.0257 34.2153C20.2859 35.0923 21.5462 35.9671 22.8086 36.8419C22.8497 36.87 22.8887 36.922 22.9623 36.8917C22.9623 33.7844 22.9623 30.6772 22.9623 27.5331ZM40.3109 28.9795C40.2936 28.7565 40.1637 28.6179 39.9862 28.5162C39.1525 28.0506 38.3167 27.5872 37.483 27.1174C37.3315 27.0329 37.2816 27.0546 37.2838 27.2343C37.2881 28.1827 37.2881 29.1311 37.2838 30.0774C37.2838 30.2181 37.3314 30.3091 37.4484 30.387C37.9096 30.6988 38.3686 31.0128 38.819 31.3398C38.9598 31.4415 39.0247 31.4177 39.1049 31.2726C39.4686 30.6057 39.8432 29.9453 40.2113 29.2805C40.2611 29.1874 40.3001 29.0856 40.3109 28.9795ZM22.971 39.3602C22.971 38.8903 22.9688 38.4204 22.9731 37.9505C22.9731 37.8249 22.9515 37.7275 22.8367 37.6495C22.3625 37.3291 21.8926 37.0043 21.4271 36.673C21.2907 36.5755 21.2322 36.6123 21.1607 36.7423C20.7905 37.4157 20.4115 38.0826 20.0434 38.7539C19.8702 39.0678 19.9352 39.3082 20.2491 39.4879C21.0936 39.9686 21.9446 40.4342 22.7912 40.9105C22.9428 40.9971 22.9775 40.9473 22.9753 40.7936C22.9688 40.3151 22.971 39.8365 22.971 39.3602ZM31.3486 23.7524C31.3508 23.7373 31.3551 23.7199 31.3573 23.7048C30.764 23.3757 30.1729 23.04 29.5752 22.7174C29.2894 22.5658 29.0534 22.6308 28.8866 22.8971C28.7416 23.1288 28.6181 23.3735 28.4817 23.6117C28.4233 23.7113 28.4471 23.7546 28.5618 23.7546C29.4908 23.7524 30.4197 23.7524 31.3486 23.7524ZM28.9126 44.2668C28.9061 44.282 28.8996 44.2993 28.891 44.3144C29.5059 44.6522 30.1144 44.9987 30.7358 45.3256C30.9892 45.4577 31.2187 45.3711 31.3768 45.1134C31.511 44.8947 31.6258 44.6609 31.7579 44.44C31.838 44.3036 31.8055 44.2668 31.6561 44.2668C30.7423 44.269 29.8286 44.2668 28.9126 44.2668ZM33.5984 44.269C33.5898 44.2863 33.5833 44.3036 33.5746 44.3209C33.7024 44.4054 33.8236 44.5028 33.96 44.5721C34.1917 44.689 34.4386 44.6197 34.5836 44.4184C34.6616 44.3101 34.6378 44.2668 34.5079 44.2668C34.2047 44.269 33.9016 44.269 33.5984 44.269ZM26.6672 23.7524C26.5459 23.6052 26.416 23.4969 26.2579 23.432C26.0327 23.3388 25.7859 23.4211 25.6625 23.616C25.6105 23.6983 25.6105 23.7481 25.7209 23.7503C26.0371 23.7524 26.351 23.7524 26.6672 23.7524Z" fill="#AA601F"/>
<path d="M28.8891 30.9798C29.2789 30.9733 29.6361 31.0815 29.9609 31.2872C30.0714 31.3587 30.1601 31.3717 30.2814 31.3002C31.245 30.7373 32.319 30.9278 32.9967 31.7744C33.6442 32.5821 33.5749 33.7103 32.7997 34.5114C32.0267 35.3104 31.232 36.0878 30.4438 36.8716C30.2338 37.0817 30.0562 37.1033 29.87 36.9171C29.0125 36.0596 28.1117 35.239 27.3127 34.3252C26.7584 33.6908 26.6718 32.9372 27.0269 32.1729C27.3864 31.3933 28.0295 31.0036 28.8891 30.9798ZM28.8523 31.6207C28.7938 31.6294 28.7072 31.6359 28.6228 31.651C27.5271 31.8654 27.0789 33.1992 27.9147 34.0459C28.6076 34.7496 29.3113 35.4404 30.0021 36.1441C30.1298 36.274 30.197 36.2004 30.2857 36.1094C30.8162 35.5768 31.3489 35.0463 31.8794 34.5136C32.0721 34.3187 32.2757 34.1325 32.4467 33.9203C32.9231 33.3357 32.8776 32.5388 32.3558 32.0256C31.8296 31.5103 31.0414 31.4865 30.4568 31.9715C30.1796 32.201 30.0757 32.2032 29.805 31.9715C29.5365 31.7463 29.2269 31.6359 28.8523 31.6207Z" fill="#AA601F"/>
<path d="M33.644 39.7822C33.9883 39.9641 34.3845 39.8364 34.7894 39.8082C35.2377 39.7757 35.5971 40.0247 35.7985 40.447C35.9934 40.8606 35.9501 41.2655 35.6664 41.6141C35.3026 42.0645 34.8696 42.4521 34.4538 42.857C34.2979 43.0086 34.1117 43.0281 33.9515 42.8722C33.5249 42.4586 33.0745 42.0645 32.7042 41.5989C32.4184 41.2395 32.3881 40.8238 32.6046 40.408C32.8125 40.0118 33.1568 39.8277 33.644 39.7822ZM33.1438 40.9385C33.1395 41.0511 33.1698 41.155 33.2499 41.2373C33.5271 41.5232 33.8107 41.8046 34.09 42.0883C34.1702 42.1706 34.2351 42.1511 34.3066 42.0775C34.5751 41.8046 34.8522 41.5405 35.1142 41.2612C35.2918 41.0706 35.2896 40.7999 35.1337 40.6202C34.9757 40.4362 34.7093 40.3885 34.4993 40.5466C34.2741 40.7155 34.0857 40.7112 33.8692 40.5379C33.7241 40.421 33.5444 40.4297 33.382 40.5119C33.2152 40.5964 33.1351 40.7436 33.1438 40.9385Z" fill="#AA601F"/>
<path d="M27.7872 26.1925C27.7785 26.4978 27.6464 26.7814 27.4104 27.0196C27.0683 27.3639 26.7262 27.7104 26.3797 28.0481C26.1437 28.2777 25.9856 28.2798 25.7539 28.0503C25.375 27.6757 24.9939 27.3033 24.6366 26.9092C24.3248 26.5671 24.2577 26.1578 24.4439 25.7269C24.6193 25.3198 24.9419 25.0362 25.3815 25.06C25.8406 25.0838 26.2931 25.0643 26.75 25.0622C27.3476 25.0643 27.7829 25.5862 27.7872 26.1925ZM25.5158 25.7009C25.2906 25.7031 25.1368 25.7897 25.0567 25.9694C24.9744 26.1535 24.9917 26.3419 25.1347 26.4934C25.3988 26.7706 25.676 27.0369 25.9423 27.3141C26.0441 27.4202 26.1177 27.4029 26.213 27.3054C26.4468 27.0629 26.6915 26.8312 26.9254 26.5887C27.1506 26.3549 27.1831 26.0777 27.0142 25.872C26.8409 25.6598 26.5984 25.6403 26.3039 25.8373C26.1285 25.9543 25.9726 25.9521 25.8102 25.8222C25.7171 25.7464 25.6154 25.6901 25.5158 25.7009Z" fill="#AA601F"/>
</svg>
