<svg width="58" height="57" viewBox="0 0 58 57" fill="none" xmlns="http://www.w3.org/2000/svg">
<path d="M51.8694 22.559C51.8694 21.9808 51.6397 21.4263 51.2308 21.0175C50.822 20.6086 50.2675 20.379 49.6893 20.379C49.1112 20.379 48.5567 20.6086 48.1479 21.0175C47.739 21.4263 47.5093 21.9808 47.5093 22.559H51.8694ZM11.176 22.559C11.176 21.9808 10.9463 21.4263 10.5375 21.0175C10.1286 20.6086 9.57414 20.379 8.99596 20.379C8.41779 20.379 7.8633 20.6086 7.45447 21.0175C7.04564 21.4263 6.81596 21.9808 6.81596 22.559H11.176ZM53.9622 29.9128C54.1617 30.127 54.4024 30.2988 54.6698 30.418C54.9372 30.5371 55.2259 30.6012 55.5186 30.6063C55.8113 30.6115 56.1021 30.5577 56.3735 30.448C56.645 30.3384 56.8916 30.1752 57.0986 29.9682C57.3056 29.7612 57.4688 29.5146 57.5784 29.2431C57.688 28.9717 57.7419 28.6809 57.7367 28.3882C57.7316 28.0955 57.6675 27.8068 57.5483 27.5394C57.4292 27.272 57.2574 27.0313 57.0432 26.8318L53.9622 29.9128ZM29.3427 2.21226L30.8832 0.671729C30.4744 0.263486 29.9204 0.0341797 29.3427 0.0341797C28.765 0.0341797 28.2109 0.263486 27.8021 0.671729L29.3427 2.21226ZM1.64209 26.8318C1.42791 27.0313 1.25612 27.272 1.13696 27.5394C1.01781 27.8068 0.953746 28.0955 0.948581 28.3882C0.943417 28.6809 0.997262 28.9717 1.1069 29.2431C1.21655 29.5146 1.37974 29.7612 1.58675 29.9682C1.79376 30.1752 2.04034 30.3384 2.31179 30.448C2.58324 30.5577 2.87399 30.6115 3.1667 30.6063C3.45941 30.6012 3.74808 30.5371 4.0155 30.418C4.28291 30.2988 4.52358 30.127 4.72316 29.9128L1.64209 26.8318ZM14.8093 56.7123H43.876V52.3523H14.8093V56.7123ZM51.8694 48.719V22.559H47.5093V48.719H51.8694ZM11.176 48.719V22.559H6.81596V48.719H11.176ZM57.0432 26.8318L30.8832 0.671729L27.8021 3.7528L53.9622 29.9128L57.0432 26.8318ZM27.8021 0.671729L1.64209 26.8318L4.72316 29.9128L30.8832 3.7528L27.8021 0.671729ZM43.876 56.7123C45.996 56.7123 48.0291 55.8702 49.5282 54.3711C51.0272 52.8721 51.8694 50.839 51.8694 48.719H47.5093C47.5093 50.7246 45.8816 52.3523 43.876 52.3523V56.7123ZM14.8093 52.3523C12.8037 52.3523 11.176 50.7246 11.176 48.719H6.81596C6.81596 50.839 7.65811 52.8721 9.15716 54.3711C10.6562 55.8702 12.6893 56.7123 14.8093 56.7123V52.3523Z" fill="#F8AF41"/>
<path d="M30.8587 45.9601C30.2502 45.7977 29.7522 45.4166 29.2065 45.1286C28.7085 44.8666 28.2191 44.5851 27.7276 44.3057C27.5717 44.217 27.4158 44.178 27.2361 44.178C26.2573 44.1823 25.2786 44.1823 24.2977 44.1802C23.4446 44.178 22.9963 43.7254 22.9942 42.8701C22.9942 42.5497 22.9855 42.227 22.9963 41.9066C23.0028 41.7377 22.9487 41.6381 22.795 41.5536C21.8617 41.0404 20.9328 40.5186 20.0039 39.9989C19.3131 39.6135 19.1377 38.9855 19.5253 38.2905C19.8956 37.6279 20.2615 36.9609 20.6405 36.3027C20.7314 36.1446 20.7098 36.0645 20.5625 35.9627C19.9454 35.5448 19.3391 35.1161 18.7263 34.6938C18.0161 34.2045 17.8991 33.5982 18.395 32.8836C19.8761 30.7464 21.3615 28.6114 22.8469 26.4786C22.9509 26.3291 23.0028 26.1819 22.9985 26C22.9898 25.6168 22.992 25.2313 22.9963 24.8481C23.005 24.1703 23.4662 23.6571 24.1418 23.6788C24.6268 23.6939 24.9192 23.5445 25.1833 23.1331C25.5493 22.5636 26.1989 22.4878 26.7727 22.8668C27.0477 23.0487 27.3184 23.2349 27.5847 23.4298C27.7124 23.5229 27.7817 23.5034 27.8554 23.3626C27.9983 23.0855 28.1563 22.8126 28.3101 22.5398C28.6739 21.8945 29.2975 21.7127 29.9492 22.0721C30.8349 22.5593 31.7161 23.053 32.5953 23.5489C32.736 23.629 32.8789 23.6658 33.0413 23.6636C34.0287 23.6593 35.0161 23.6615 36.0035 23.6615C36.8588 23.6615 37.3092 24.114 37.3114 24.9672C37.3114 25.3049 37.3179 25.6406 37.3092 25.9784C37.3049 26.1234 37.3612 26.2057 37.4868 26.275C38.42 26.7904 39.3468 27.3144 40.2779 27.8297C40.9946 28.226 41.1743 28.8518 40.7716 29.5685C40.4121 30.2116 40.0613 30.859 39.6932 31.4956C39.585 31.6819 39.5936 31.7815 39.7842 31.9092C40.384 32.3076 40.9665 32.732 41.5641 33.1348C41.8456 33.3253 42.0686 33.5549 42.1899 33.8753C42.1899 34.0637 42.1899 34.2521 42.1899 34.4405C42.1119 34.683 41.9668 34.8865 41.8239 35.0923C40.4554 37.0605 39.0978 39.0353 37.712 40.9928C37.4218 41.4042 37.2464 41.807 37.307 42.3115C37.333 42.5345 37.3135 42.7662 37.3114 42.9936C37.3005 43.6843 36.835 44.1953 36.1464 44.1672C35.6744 44.1477 35.3972 44.2993 35.1395 44.6933C34.7541 45.2845 34.1088 45.3646 33.5177 44.9662C33.2644 44.7951 33.0089 44.6262 32.7663 44.4422C32.5996 44.3166 32.5152 44.3556 32.4285 44.5288C32.3138 44.7605 32.1687 44.977 32.0539 45.2087C31.8526 45.6136 31.5451 45.8756 31.0947 45.9601C31.0146 45.9601 30.9366 45.9601 30.8587 45.9601ZM36.6423 33.936C36.6423 30.976 36.6423 28.0138 36.6423 25.0538C36.6423 24.9368 36.6444 24.8177 36.625 24.703C36.5925 24.5038 36.4669 24.3825 36.2677 24.3522C36.1746 24.337 36.0793 24.3392 35.9862 24.3392C32.1016 24.3392 28.2148 24.3392 24.3302 24.3392C24.2436 24.3392 24.157 24.3392 24.0725 24.3479C23.8473 24.3717 23.7022 24.5124 23.6763 24.7398C23.6654 24.8416 23.6654 24.9433 23.6654 25.0451C23.6654 30.9673 23.6654 36.8895 23.6654 42.8095C23.6654 42.9199 23.6633 43.0304 23.6806 43.1386C23.7131 43.3487 23.8408 43.4721 24.0509 43.5046C24.1353 43.5176 24.2219 43.5154 24.3085 43.5154C28.2083 43.5154 32.1102 43.5154 36.01 43.5154C36.0966 43.5154 36.1832 43.5176 36.2677 43.5024C36.4669 43.4699 36.5925 43.3487 36.625 43.1495C36.6423 43.0347 36.6423 42.9156 36.6423 42.7987C36.6423 39.843 36.6423 36.8895 36.6423 33.936ZM37.3244 40.4081C37.3742 40.3454 37.4045 40.3129 37.4305 40.2761C38.7448 38.3857 40.057 36.4954 41.3692 34.6029C41.668 34.172 41.6247 33.9771 41.1873 33.674C39.9639 32.8251 38.7427 31.9763 37.5192 31.1297C37.4651 31.0907 37.4175 31.0301 37.3244 31.0409C37.3244 34.1503 37.3244 37.2598 37.3244 40.4081ZM22.9877 27.4486C22.9444 27.4941 22.9271 27.5093 22.9141 27.5266C21.5716 29.4559 20.2312 31.3852 18.893 33.3167C18.6549 33.661 18.7025 33.8883 19.0511 34.1308C20.3113 35.0078 21.5716 35.8826 22.8339 36.7574C22.8751 36.7855 22.9141 36.8375 22.9877 36.8072C22.9877 33.6999 22.9877 30.5927 22.9877 27.4486ZM40.3363 28.8951C40.319 28.672 40.1891 28.5335 40.0115 28.4317C39.1779 27.9661 38.3421 27.5028 37.5084 27.0329C37.3568 26.9484 37.307 26.9701 37.3092 27.1498C37.3135 28.0982 37.3135 29.0466 37.3092 29.9929C37.3092 30.1336 37.3568 30.2246 37.4738 30.3025C37.935 30.6143 38.394 30.9283 38.8444 31.2553C38.9852 31.3571 39.0501 31.3332 39.1302 31.1882C39.494 30.5212 39.8686 29.8608 40.2367 29.196C40.2865 29.1029 40.3255 29.0012 40.3363 28.8951ZM22.9963 39.2757C22.9963 38.8058 22.9942 38.3359 22.9985 37.866C22.9985 37.7405 22.9769 37.643 22.8621 37.5651C22.3879 37.2446 21.918 36.9198 21.4525 36.5885C21.316 36.4911 21.2576 36.5279 21.1861 36.6578C20.8159 37.3312 20.4369 37.9981 20.0688 38.6694C19.8956 38.9834 19.9605 39.2237 20.2745 39.4034C21.119 39.8841 21.97 40.3497 22.8166 40.8261C22.9682 40.9127 23.0028 40.8629 23.0007 40.7091C22.9942 40.2306 22.9963 39.7521 22.9963 39.2757ZM31.374 23.668C31.3762 23.6528 31.3805 23.6355 31.3827 23.6203C30.7894 23.2912 30.1982 22.9556 29.6006 22.6329C29.3148 22.4813 29.0788 22.5463 28.912 22.8126C28.767 23.0443 28.6435 23.289 28.5071 23.5272C28.4487 23.6268 28.4725 23.6701 28.5872 23.6701C29.5162 23.668 30.4451 23.668 31.374 23.668ZM28.938 44.1823C28.9315 44.1975 28.925 44.2148 28.9164 44.23C29.5313 44.5678 30.1398 44.9142 30.7612 45.2412C31.0146 45.3733 31.2441 45.2866 31.4022 45.029C31.5364 44.8103 31.6512 44.5764 31.7833 44.3556C31.8634 44.2191 31.8309 44.1823 31.6815 44.1823C30.7677 44.1845 29.854 44.1823 28.938 44.1823ZM33.6238 44.1845C33.6151 44.2018 33.6086 44.2191 33.6 44.2365C33.7277 44.3209 33.849 44.4183 33.9854 44.4876C34.2171 44.6046 34.464 44.5353 34.609 44.3339C34.687 44.2256 34.6632 44.1823 34.5332 44.1823C34.2301 44.1845 33.927 44.1845 33.6238 44.1845ZM26.6926 23.668C26.5713 23.5207 26.4414 23.4124 26.2833 23.3475C26.0581 23.2544 25.8113 23.3367 25.6879 23.5315C25.6359 23.6138 25.6359 23.6636 25.7463 23.6658C26.0625 23.668 26.3764 23.668 26.6926 23.668Z" fill="#F8AF41"/>
<path d="M28.9145 30.8953C29.3042 30.8888 29.6615 30.9971 29.9863 31.2028C30.0968 31.2742 30.1855 31.2872 30.3068 31.2158C31.2704 30.6528 32.3444 30.8433 33.0221 31.69C33.6696 32.4976 33.6003 33.6258 32.8251 34.427C32.0521 35.226 31.2574 36.0033 30.4692 36.7872C30.2592 36.9972 30.0816 37.0189 29.8954 36.8326C29.0379 35.9752 28.1371 35.1545 27.3381 34.2407C26.7838 33.6063 26.6972 32.8528 27.0523 32.0884C27.4117 31.3089 28.0548 30.9191 28.9145 30.8953ZM28.8777 31.5362C28.8192 31.5449 28.7326 31.5514 28.6482 31.5665C27.5525 31.7809 27.1043 33.1148 27.9401 33.9614C28.633 34.6651 29.3367 35.3559 30.0275 36.0596C30.1552 36.1895 30.2223 36.1159 30.3111 36.025C30.8416 35.4923 31.3743 34.9618 31.9048 34.4291C32.0975 34.2342 32.3011 34.048 32.4721 33.8358C32.9485 33.2512 32.903 32.4543 32.3812 31.9412C31.855 31.4258 31.0668 31.402 30.4822 31.887C30.205 32.1165 30.1011 32.1187 29.8304 31.887C29.5619 31.6618 29.2523 31.5514 28.8777 31.5362Z" fill="#F8AF41"/>
<path d="M33.6694 39.6978C34.0137 39.8796 34.4099 39.7519 34.8148 39.7237C35.2631 39.6913 35.6225 39.9403 35.8239 40.3625C36.0188 40.7761 35.9755 41.181 35.6918 41.5296C35.328 41.98 34.895 42.3676 34.4792 42.7725C34.3233 42.9241 34.1371 42.9436 33.9769 42.7877C33.5503 42.3741 33.0999 41.98 32.7296 41.5145C32.4438 41.155 32.4135 40.7393 32.63 40.3235C32.8379 39.9273 33.1822 39.7432 33.6694 39.6978ZM33.1692 40.854C33.1649 40.9666 33.1952 41.0706 33.2753 41.1529C33.5524 41.4387 33.8361 41.7202 34.1154 42.0038C34.1956 42.0861 34.2605 42.0666 34.332 41.993C34.6005 41.7202 34.8776 41.456 35.1396 41.1767C35.3172 40.9861 35.315 40.7155 35.1591 40.5357C35.0011 40.3517 34.7347 40.304 34.5247 40.4621C34.2995 40.631 34.1111 40.6267 33.8946 40.4535C33.7495 40.3365 33.5698 40.3452 33.4074 40.4275C33.2406 40.5119 33.1605 40.6592 33.1692 40.854Z" fill="#F8AF41"/>
<path d="M27.8126 26.108C27.8039 26.4133 27.6718 26.697 27.4358 26.9351C27.0937 27.2794 26.7516 27.6259 26.4051 27.9637C26.1691 28.1932 26.011 28.1954 25.7793 27.9658C25.4004 27.5912 25.0193 27.2188 24.662 26.8247C24.3502 26.4826 24.2831 26.0733 24.4693 25.6424C24.6447 25.2354 24.9673 24.9517 25.4069 24.9755C25.8659 24.9993 26.3185 24.9798 26.7754 24.9777C27.373 24.9798 27.8082 25.5017 27.8126 26.108ZM25.5411 25.6165C25.3159 25.6186 25.1622 25.7052 25.0821 25.885C24.9998 26.069 25.0171 26.2574 25.16 26.409C25.4242 26.6861 25.7014 26.9525 25.9677 27.2296C26.0695 27.3357 26.1431 27.3184 26.2384 27.221C26.4722 26.9785 26.7169 26.7468 26.9508 26.5042C27.176 26.2704 27.2085 25.9932 27.0396 25.7875C26.8663 25.5753 26.6238 25.5558 26.3293 25.7529C26.1539 25.8698 25.998 25.8676 25.8356 25.7377C25.7425 25.6619 25.6407 25.6056 25.5411 25.6165Z" fill="#F8AF41"/>
</svg>
