<svg width="39" height="39" viewBox="0 0 39 39" fill="none" xmlns="http://www.w3.org/2000/svg">
<g id="Group 4478">
<g id="Group">
<g id="Group 4488">
<path id="Vector" d="M26.3131 24.2651C32.5217 24.2651 37.5563 19.252 37.5563 13.0682C37.5563 6.88623 32.5217 1.87305 26.3131 1.87305C20.1044 1.87305 15.0752 6.88623 15.0752 13.0682C15.0752 15.9324 16.381 18.0156 16.381 18.0156L2.78599 31.5536C2.1758 32.1621 1.32189 33.7418 2.78599 35.2006L4.35506 36.7625C4.96525 37.2838 6.49874 38.0131 7.75292 36.7625L9.58528 34.9408C11.4141 36.7625 13.5062 35.7218 14.2907 34.6793C15.5965 32.8576 14.0292 31.0342 14.0292 31.0342L14.5522 30.5129C17.0606 33.0142 19.2576 31.5554 20.0422 30.5129C21.3497 28.6913 20.0422 26.8678 20.0422 26.8678C19.5191 25.8271 18.4731 25.8271 19.7806 24.5249L21.3497 22.9629C22.6039 24.0036 25.1834 24.2651 26.3166 24.2651H26.3131Z" stroke="white" stroke-width="2.13106" stroke-linejoin="round"/>
<path id="Vector_2" d="M30.2353 13.0707C30.233 14.1084 29.8186 15.1027 29.0834 15.8349C28.3481 16.5672 27.3521 16.9775 26.3144 16.9756C25.2767 16.9775 24.2808 16.5672 23.5455 15.8349C22.8103 15.1027 22.3959 14.1084 22.3936 13.0707C22.3945 12.5568 22.4966 12.048 22.6942 11.5735C22.8917 11.099 23.1808 10.6681 23.5449 10.3054C23.909 9.94259 24.341 9.65508 24.8162 9.45926C25.2914 9.26344 25.8005 9.16313 26.3144 9.16407C26.8284 9.16313 27.3375 9.26344 27.8127 9.45926C28.2879 9.65508 28.7199 9.94259 29.084 10.3054C29.4481 10.6681 29.7371 11.099 29.9347 11.5735C30.1322 12.048 30.2344 12.5568 30.2353 13.0707Z" stroke="white" stroke-width="2.13106"/>
</g>
</g>
</g>
</svg>
