<svg width="27" height="28" viewBox="0 0 27 28" fill="none" xmlns="http://www.w3.org/2000/svg">
<path fill-rule="evenodd" clip-rule="evenodd" d="M26.4087 9.16197C26.4087 13.7124 22.704 17.4014 18.1352 17.4014H18.1379C17.304 17.4014 15.4058 17.209 14.4829 16.4432L13.3282 17.5925C12.6493 18.2688 12.8327 18.4678 13.1348 18.7955C13.2608 18.9322 13.4074 19.0912 13.5207 19.3166C13.5207 19.3166 14.4829 20.6584 13.5207 21.999C12.9434 22.7661 11.3266 23.8395 9.48081 21.999L9.09593 22.3825C9.09593 22.3825 10.2492 23.7243 9.28837 25.0649C8.71106 25.832 7.17156 26.5978 5.82581 25.2573L4.47745 26.5978C3.55453 27.5181 2.42609 26.9814 1.97707 26.5978L0.822452 25.4484C-0.254934 24.375 0.373432 23.2125 0.822452 22.7648L10.8266 12.8026C10.8266 12.8026 9.86568 11.2696 9.86568 9.16197C9.86568 4.61286 13.5665 0.923828 18.1352 0.923828C22.704 0.923828 26.4087 4.61286 26.4087 9.16197ZM20.8248 11.8318C21.5749 11.0819 21.9976 10.0636 22 9.00091C21.999 8.47455 21.8948 7.95353 21.6933 7.4676C21.4918 6.98167 21.1969 6.54034 20.8254 6.16882C20.454 5.79731 20.0133 5.50287 19.5285 5.30232C19.0437 5.10178 18.5243 4.99905 18 5.00001C17.4757 4.99905 16.9563 5.10178 16.4715 5.30232C15.9867 5.50287 15.546 5.79731 15.1746 6.16882C14.8031 6.54034 14.5082 6.98167 14.3067 7.4676C14.1052 7.95353 14.001 8.47455 14 9.00091C14.0024 10.0636 14.4251 11.0819 15.1752 11.8318C15.9253 12.5817 16.9414 13.0019 18 13C19.0586 13.0019 20.0747 12.5817 20.8248 11.8318Z" fill="#316054"/>
</svg>
