<svg width="26" height="26" viewBox="0 0 26 26" fill="none" xmlns="http://www.w3.org/2000/svg">
<path fill-rule="evenodd" clip-rule="evenodd" d="M25.2871 8.46085C25.2871 12.7575 21.7889 16.2408 17.475 16.2408H17.4774C16.69 16.2408 14.8977 16.0591 14.0263 15.336L12.936 16.4213C12.2949 17.0598 12.4681 17.2477 12.7534 17.5571C12.8723 17.6862 13.0108 17.8364 13.1177 18.0492C13.1177 18.0492 14.0263 19.3162 13.1177 20.582C12.5726 21.3063 11.046 22.3199 9.30316 20.582L8.93975 20.9441C8.93975 20.9441 10.0287 22.2111 9.12146 23.4769C8.57634 24.2012 7.1227 24.9243 5.85199 23.6586L4.57882 24.9243C3.70738 25.7933 2.64187 25.2865 2.21789 24.9243L1.12765 23.8391C0.110351 22.8255 0.703675 21.7278 1.12765 21.3051L10.5739 11.8984C10.5739 11.8984 9.66657 10.451 9.66657 8.46085C9.66657 4.16543 13.161 0.682129 17.475 0.682129C21.7889 0.682129 25.2871 4.16543 25.2871 8.46085ZM20.3645 11.1661C21.15 10.3839 21.5926 9.32177 21.5951 8.21327C21.5941 7.66424 21.485 7.12078 21.274 6.61392C21.0629 6.10706 20.7542 5.64673 20.3652 5.25921C19.9763 4.87169 19.5148 4.56457 19.0072 4.35538C18.4996 4.1462 17.9557 4.03905 17.4067 4.04005C16.8577 4.03905 16.3138 4.1462 15.8062 4.35538C15.2986 4.56457 14.8371 4.87169 14.4482 5.25921C14.0592 5.64673 13.7504 6.10706 13.5394 6.61392C13.3284 7.12078 13.2193 7.66424 13.2183 8.21327C13.2208 9.32177 13.6634 10.3839 14.4488 11.1661C15.2343 11.9483 16.2982 12.3866 17.4067 12.3846C18.5152 12.3866 19.5791 11.9483 20.3645 11.1661Z" fill="#F8AF41"/>
</svg>
