<svg width="39" height="39" viewBox="0 0 39 39" fill="none" xmlns="http://www.w3.org/2000/svg">
<path d="M26.3131 23.9395C32.5217 23.9395 37.5563 18.9263 37.5563 12.7425C37.5563 6.56055 32.5217 1.54736 26.3131 1.54736C20.1044 1.54736 15.0752 6.56055 15.0752 12.7425C15.0752 15.6067 16.381 17.6899 16.381 17.6899L2.78599 31.228C2.1758 31.8364 1.32189 33.4161 2.78599 34.8749L4.35506 36.4368C4.96525 36.9581 6.49874 37.6875 7.75292 36.4368L9.58528 34.6151C11.4141 36.4368 13.5062 35.3961 14.2907 34.3536C15.5965 32.532 14.0292 30.7085 14.0292 30.7085L14.5522 30.1873C17.0606 32.6885 19.2576 31.2297 20.0422 30.1873C21.3497 28.3656 20.0422 26.5421 20.0422 26.5421C19.5191 25.5014 18.4731 25.5014 19.7806 24.1992L21.3497 22.6372C22.6039 23.6779 25.1834 23.9395 26.3166 23.9395H26.3131Z" stroke="white" stroke-width="2.13106" stroke-linejoin="round"/>
<path d="M30.2353 12.7445C30.233 13.7822 29.8186 14.7765 29.0834 15.5088C28.3481 16.241 27.3521 16.6513 26.3144 16.6494C25.2767 16.6513 24.2808 16.241 23.5455 15.5088C22.8103 14.7765 22.3959 13.7822 22.3936 12.7445C22.3945 12.2306 22.4966 11.7218 22.6942 11.2474C22.8917 10.7729 23.1808 10.3419 23.5449 9.97918C23.909 9.61641 24.341 9.32891 24.8162 9.13309C25.2914 8.93727 25.8005 8.83696 26.3144 8.8379C26.8284 8.83696 27.3375 8.93727 27.8127 9.13309C28.2879 9.32891 28.7199 9.61641 29.084 9.97918C29.4481 10.3419 29.7371 10.7729 29.9347 11.2474C30.1322 11.7218 30.2344 12.2306 30.2353 12.7445Z" stroke="white" stroke-width="2.13106"/>
</svg>
