<svg width="41" height="27" viewBox="0 0 41 27" fill="none" xmlns="http://www.w3.org/2000/svg">
<path d="M19.4451 10.795H22.2773V9.37887H20.0055L18.1079 1.40827C18.0714 1.25276 17.9834 1.11416 17.8581 1.015C17.7329 0.915838 17.5778 0.86194 17.418 0.862061H14.3755C14.2157 0.86194 14.0606 0.915838 13.9354 1.015C13.8102 1.11416 13.7221 1.25276 13.6856 1.40827L11.786 9.37887H9.50813V10.795H19.4451ZM14.9358 2.27613H16.8557L18.5469 9.37483H13.2446L14.9358 2.27613ZM18.0249 18.6037H13.7665C13.6734 18.6035 13.5811 18.6216 13.495 18.657C13.4088 18.6925 13.3305 18.7446 13.2646 18.8104C13.1986 18.8762 13.1463 18.9543 13.1106 19.0404C13.0748 19.1264 13.0565 19.2186 13.0565 19.3118V22.8621C13.0562 22.9555 13.0744 23.0479 13.11 23.1342C13.1456 23.2205 13.1979 23.2988 13.2638 23.3648C13.3298 23.4308 13.4082 23.4831 13.4945 23.5187C13.5808 23.5543 13.6732 23.5725 13.7665 23.5722H18.0249C18.1183 23.5725 18.2107 23.5543 18.297 23.5187C18.3833 23.4831 18.4616 23.4308 18.5276 23.3648C18.5936 23.2988 18.6459 23.2205 18.6815 23.1342C18.7171 23.0479 18.7353 22.9555 18.735 22.8621V19.3118C18.735 19.2186 18.7166 19.1264 18.6809 19.0404C18.6452 18.9543 18.5929 18.8762 18.5269 18.8104C18.461 18.7446 18.3827 18.6925 18.2965 18.657C18.2104 18.6216 18.1181 18.6035 18.0249 18.6037ZM17.3169 22.1521H14.4766V20.0219H17.3088L17.3169 22.1521ZM8.79806 18.6037H10.2182V22.1521H8.79806V18.6037ZM31.5123 13.6332H32.9324V17.1816H31.5123V13.6332ZM31.5123 7.24663H32.9324V10.795H31.5123V7.24663ZM40.0311 2.27613H30.0941C30.001 2.27613 29.9087 2.29451 29.8227 2.33022C29.7367 2.36593 29.6585 2.41827 29.5928 2.48423C29.527 2.55019 29.4749 2.62849 29.4394 2.71463C29.4039 2.80076 29.3858 2.89305 29.3861 2.98621V16.4735H0.989301C0.896148 16.4735 0.803911 16.4919 0.717875 16.5276C0.631838 16.5633 0.553694 16.6157 0.487919 16.6816C0.422144 16.7476 0.370032 16.8259 0.334568 16.912C0.299104 16.9981 0.280987 17.0904 0.281253 17.1836V25.7004C0.280987 25.7935 0.299104 25.8858 0.334568 25.972C0.370032 26.0581 0.422144 26.1364 0.487919 26.2024C0.553694 26.2683 0.631838 26.3207 0.717875 26.3564C0.803911 26.3921 0.896148 26.4105 0.989301 26.4105H40.0331C40.1264 26.4107 40.2189 26.3926 40.3052 26.357C40.3914 26.3214 40.4698 26.2691 40.5358 26.2031C40.6018 26.1371 40.6541 26.0587 40.6897 25.9724C40.7253 25.8862 40.7435 25.7937 40.7432 25.7004V2.98621C40.7435 2.89271 40.7252 2.80009 40.6895 2.71369C40.6538 2.62728 40.6013 2.54881 40.5351 2.48279C40.4689 2.41678 40.3903 2.36453 40.3038 2.32906C40.2173 2.29359 40.1246 2.2756 40.0311 2.27613ZM29.3841 20.7319H20.8652V17.8997H29.3841V20.7319ZM1.69937 17.8997H10.9283V24.9984H1.69937V17.8997ZM12.3464 17.8997H19.4451V20.7319H19.4208V22.148H19.4451V24.9802H12.3464V17.8997ZM20.8652 22.148H29.3841V24.9802H20.8652V22.148ZM39.321 24.9802H30.8022V12.9252H39.321V24.9802ZM30.8022 11.505V3.69628H39.321V11.505H30.8022Z" fill="#4C786A"/>
</svg>
