<svg width="62" height="66" viewBox="0 0 62 66" fill="none" xmlns="http://www.w3.org/2000/svg">
<path d="M0.0859375 65.241H58.8535L41.2232 41.734L26.5313 35.8572L17.7162 24.1037H0.0859375V65.241ZM5.9627 59.3643V54.6628L11.8395 56.5728L38.3583 47.7577L47.1 59.3643H5.9627ZM11.8395 50.4022L5.9627 48.4188V42.9093L11.8395 44.8193L23.446 40.9994L30.4982 44.1581L11.8395 50.4022ZM48.5692 41.734L61.7919 35.8572V24.1037L48.5692 21.1653L41.2232 27.0421V35.8572L48.5692 41.734ZM11.8395 38.6487L5.9627 36.6653V29.9805H14.7778L19.5527 36.0776L11.8395 38.6487ZM49.4507 34.9023L47.1 33.0658V29.8335L50.0384 27.4828L55.9151 28.8051V32.0373L49.4507 34.9023ZM29.4697 24.1037L44.1616 18.227V3.53506L29.4697 0.59668L20.6546 6.47344V18.227L29.4697 24.1037ZM30.1309 17.4924L26.5313 15.0682V9.63219L30.7185 6.84073L38.2849 8.38338V14.2601L30.1309 17.4924Z" fill="#AA601F"/>
</svg>
