<svg width="62" height="66" viewBox="0 0 62 66" fill="none" xmlns="http://www.w3.org/2000/svg">
<path d="M0.266113 65.157H59.0337L41.4034 41.65L26.7115 35.7732L17.8964 24.0197H0.266113V65.157ZM6.14287 59.2803V54.5789L12.0196 56.4888L38.5385 47.6737L47.2802 59.2803H6.14287ZM12.0196 50.3182L6.14287 48.3348V42.8253L12.0196 44.7353L23.6262 40.9154L30.6783 44.0742L12.0196 50.3182ZM48.7494 41.65L61.9721 35.7732V24.0197L48.7494 21.0813L41.4034 26.9581V35.7732L48.7494 41.65ZM12.0196 38.5647L6.14287 36.5813V29.8965H14.958L19.7329 35.9936L12.0196 38.5647ZM49.6309 34.8183L47.2802 32.9818V29.7496L50.2186 27.3989L56.0953 28.7211V31.9533L49.6309 34.8183ZM29.6499 24.0197L44.3418 18.143V3.45107L29.6499 0.512695L20.8348 6.38945V18.143L29.6499 24.0197ZM30.311 17.4084L26.7115 14.9842V9.54821L30.8987 6.75675L38.465 8.2994V14.1762L30.311 17.4084Z" fill="#F8AF41"/>
</svg>
