<svg width="32" height="25" viewBox="0 0 32 25" fill="none" xmlns="http://www.w3.org/2000/svg">
<path d="M27.4825 7.40262V4.7858C27.4825 2.62692 25.7161 0.860565 23.5573 0.860565H18.3236C17.3161 0.860565 16.4002 1.25309 15.7068 1.88113C15.0133 1.25309 14.0974 0.860565 13.09 0.860565H7.85632C5.69745 0.860565 3.93109 2.62692 3.93109 4.7858V7.40262C1.77221 7.40262 0.00585938 9.16897 0.00585938 11.3279V17.8699C0.00585938 20.0288 1.77221 21.7951 3.93109 21.7951V24.412H6.54791V21.7951H24.8657V24.412H27.4825V21.7951C29.6414 21.7951 31.4077 20.0288 31.4077 17.8699V11.3279C31.4077 9.16897 29.6414 7.40262 27.4825 7.40262ZM18.3236 3.47739H23.5573C24.2769 3.47739 24.8657 4.06617 24.8657 4.7858V8.42318C24.0675 9.1428 23.5573 10.1764 23.5573 11.3279V13.9447H17.0152V4.7858C17.0152 4.06617 17.604 3.47739 18.3236 3.47739ZM6.54791 4.7858C6.54791 4.06617 7.1367 3.47739 7.85632 3.47739H13.09C13.8096 3.47739 14.3984 4.06617 14.3984 4.7858V13.9447H7.85632V11.3279C7.85632 10.1764 7.34604 9.1428 6.54791 8.42318V4.7858ZM28.7909 17.8699C28.7909 18.5895 28.2021 19.1783 27.4825 19.1783H3.93109C3.21147 19.1783 2.62268 18.5895 2.62268 17.8699V11.3279C2.62268 10.6082 3.21147 10.0194 3.93109 10.0194C4.65072 10.0194 5.2395 10.6082 5.2395 11.3279V16.5615H26.1741V11.3279C26.1741 10.6082 26.7629 10.0194 27.4825 10.0194C28.2021 10.0194 28.7909 10.6082 28.7909 11.3279V17.8699Z" fill="#326555"/>
</svg>
