<svg width="17" height="17" viewBox="0 0 17 17" fill="none" xmlns="http://www.w3.org/2000/svg">
<g id="Group 1000005472">
<path id="Vector" d="M13.3293 6.75225C13.3293 5.377 12.783 4.05807 11.8105 3.08562C10.8381 2.11318 9.51916 1.56686 8.14391 1.56686C6.76866 1.56686 5.44974 2.11318 4.47729 3.08562C3.50484 4.05807 2.95852 5.377 2.95852 6.75225C2.95852 8.87941 4.66048 11.6519 8.14391 14.9728C11.6273 11.6519 13.3293 8.87941 13.3293 6.75225ZM8.14391 16.5469C3.9184 12.7062 1.80621 9.44059 1.80621 6.75225C1.80621 5.07139 2.47393 3.45937 3.66248 2.27082C4.85103 1.08227 6.46305 0.414551 8.14391 0.414551C9.82477 0.414551 11.4368 1.08227 12.6253 2.27082C13.8139 3.45937 14.4816 5.07139 14.4816 6.75225C14.4816 9.44059 12.3694 12.7062 8.14391 16.5469Z" fill="white"/>
<path id="Vector_2" d="M8.14392 7.32851C8.44953 7.32851 8.74263 7.2071 8.95873 6.99101C9.17483 6.77491 9.29623 6.48181 9.29623 6.1762C9.29623 5.87059 9.17483 5.57749 8.95873 5.36139C8.74263 5.14529 8.44953 5.02389 8.14392 5.02389C7.83831 5.02389 7.54522 5.14529 7.32912 5.36139C7.11302 5.57749 6.99161 5.87059 6.99161 6.1762C6.99161 6.48181 7.11302 6.77491 7.32912 6.99101C7.54522 7.2071 7.83831 7.32851 8.14392 7.32851ZM8.14392 8.48082C7.5327 8.48082 6.94651 8.23801 6.51431 7.80581C6.08211 7.37361 5.8393 6.78742 5.8393 6.1762C5.8393 5.56498 6.08211 4.97879 6.51431 4.54659C6.94651 4.11439 7.5327 3.87158 8.14392 3.87158C8.75514 3.87158 9.34133 4.11439 9.77353 4.54659C10.2057 4.97879 10.4485 5.56498 10.4485 6.1762C10.4485 6.78742 10.2057 7.37361 9.77353 7.80581C9.34133 8.23801 8.75514 8.48082 8.14392 8.48082ZM14.3664 11.9377L16.2101 16.547H11.0247V15.3947H5.26315V16.547H0.0777588L1.92145 11.9377H14.3664ZM13.1254 11.9377H3.16249L1.77972 15.3947H14.5081L13.1254 11.9377Z" fill="white"/>
</g>
</svg>
