<svg width="72" height="71" viewBox="0 0 72 71" fill="none" xmlns="http://www.w3.org/2000/svg">
<path d="M0.775391 35.8498C0.775391 16.7344 16.2715 1.23828 35.3869 1.23828H36.2488C55.3642 1.23828 70.8603 16.7344 70.8603 35.8498C70.8603 54.9652 55.3642 70.4613 36.2488 70.4613H35.3869C16.2715 70.4613 0.775391 54.9652 0.775391 35.8498Z" fill="#F8AF41" stroke="white"/>
<path d="M35.8178 21.3291C32.8742 21.3327 30.0521 22.5359 27.9707 24.6748C25.8892 26.8136 24.7183 29.7136 24.7149 32.7384C24.7113 35.2103 25.4971 37.6151 26.9516 39.584C26.9516 39.584 27.2544 39.9937 27.3039 40.0528L35.8178 50.371L44.3357 40.0476C44.3801 39.9927 44.684 39.584 44.684 39.584L44.685 39.5809C46.1387 37.6129 46.9241 35.2092 46.9207 32.7384C46.9172 29.7136 45.7463 26.8136 43.6649 24.6748C41.5834 22.5359 38.7614 21.3327 35.8178 21.3291ZM35.8178 36.8873C35.0192 36.8873 34.2387 36.6439 33.5747 36.188C32.9108 35.7322 32.3933 35.0842 32.0877 34.3261C31.7821 33.568 31.7021 32.7338 31.8579 31.929C32.0137 31.1242 32.3982 30.385 32.9629 29.8047C33.5275 29.2245 34.2469 28.8294 35.0301 28.6693C35.8133 28.5092 36.6251 28.5914 37.3628 28.9054C38.1006 29.2194 38.7311 29.7512 39.1748 30.4334C39.6184 31.1157 39.8552 31.9178 39.8552 32.7384C39.8539 33.8383 39.4281 34.8928 38.6712 35.6706C37.9143 36.4483 36.8882 36.8859 35.8178 36.8873Z" fill="white"/>
</svg>
