<svg width="16" height="20" viewBox="0 0 16 20" fill="none" xmlns="http://www.w3.org/2000/svg">
<path id="Vector" d="M13.4068 6.60319H12.4797V4.74893C12.4797 2.19005 10.4029 0.113281 7.84404 0.113281C5.28516 0.113281 3.20839 2.19005 3.20839 4.74893V6.60319H2.28126C1.26142 6.60319 0.427002 7.43761 0.427002 8.45745V17.7288C0.427002 18.7486 1.26142 19.583 2.28126 19.583H13.4068C14.4267 19.583 15.2611 18.7486 15.2611 17.7288V8.45745C15.2611 7.43761 14.4267 6.60319 13.4068 6.60319ZM7.84404 14.9474C6.8242 14.9474 5.98978 14.1129 5.98978 13.0931C5.98978 12.0733 6.8242 11.2388 7.84404 11.2388C8.86389 11.2388 9.69831 12.0733 9.69831 13.0931C9.69831 14.1129 8.86389 14.9474 7.84404 14.9474ZM10.7181 6.60319H4.96994V4.74893C4.96994 3.16354 6.25865 1.87483 7.84404 1.87483C9.42944 1.87483 10.7181 3.16354 10.7181 4.74893V6.60319Z" fill="white"/>
</svg>
