<svg width="268" height="131" viewBox="0 0 268 131" fill="none" xmlns="http://www.w3.org/2000/svg">
<path d="M9.72459 125.876C8.92233 125.876 8.19527 125.716 7.54343 125.395C6.90161 125.074 6.39017 124.683 6.00909 124.222L6.50549 122.146C6.78629 122.707 7.20748 123.214 7.76906 123.665C8.33065 124.116 9.00255 124.342 9.78476 124.342C10.4968 124.342 11.0834 124.116 11.5447 123.665C12.0161 123.214 12.2517 122.657 12.2517 121.995C12.2517 121.514 12.1364 121.118 11.9058 120.807C11.6751 120.496 11.4144 120.25 11.1236 120.07C10.8327 119.889 10.6021 119.759 10.4316 119.679L8.77691 118.836C8.51618 118.696 8.19026 118.5 7.79915 118.25C7.41807 117.999 7.08212 117.653 6.7913 117.212C6.50048 116.771 6.35507 116.199 6.35507 115.497C6.35507 114.815 6.51051 114.208 6.82139 113.677C7.14229 113.145 7.58354 112.729 8.14513 112.428C8.71674 112.127 9.36859 111.977 10.1007 111.977C10.8227 111.977 11.4595 112.107 12.0111 112.368C12.5626 112.619 12.9938 112.88 13.3047 113.15L12.8083 115.226C12.5576 114.805 12.1866 114.409 11.6952 114.038C11.2038 113.667 10.6472 113.481 10.0254 113.481C9.42374 113.481 8.94238 113.662 8.58136 114.023C8.22034 114.374 8.03983 114.81 8.03983 115.331C8.03983 115.733 8.13009 116.064 8.3106 116.324C8.50114 116.585 8.71173 116.791 8.94238 116.941C9.18306 117.091 9.37862 117.207 9.52904 117.287L11.2138 118.129C11.4144 118.23 11.6651 118.37 11.9659 118.551C12.2768 118.731 12.5827 118.972 12.8835 119.273C13.1844 119.563 13.4351 119.924 13.6357 120.356C13.8362 120.777 13.9365 121.288 13.9365 121.89C13.9365 122.662 13.751 123.349 13.3799 123.951C13.0189 124.553 12.5225 125.024 11.8907 125.365C11.2589 125.706 10.5369 125.876 9.72459 125.876ZM15.1098 113.692V112.158H24.0451V113.692H20.4349V125.696H18.72V113.692H15.1098ZM30.7912 125.876C29.9388 125.876 29.1816 125.691 28.5198 125.32C27.8579 124.939 27.3364 124.417 26.9553 123.755C26.5843 123.083 26.3988 122.311 26.3988 121.439V112.158H28.1136V121.379C28.1136 122.271 28.3693 122.988 28.8808 123.53C29.3922 124.071 30.0391 124.342 30.8213 124.342C31.5935 124.342 32.2353 124.076 32.7467 123.545C33.2682 123.003 33.5289 122.301 33.5289 121.439V112.158H35.1836V121.379C35.1836 122.261 34.9931 123.043 34.612 123.725C34.241 124.397 33.7245 124.924 33.0626 125.305C32.4108 125.686 31.6536 125.876 30.7912 125.876ZM38.7059 125.696V112.158H43.1435C44.3669 112.158 45.4299 112.358 46.3325 112.759C47.2451 113.16 47.9972 113.692 48.5889 114.354C49.1805 115.016 49.6218 115.748 49.9126 116.55C50.2034 117.342 50.3488 118.134 50.3488 118.927C50.3488 119.719 50.2034 120.516 49.9126 121.318C49.6218 122.111 49.1805 122.838 48.5889 123.5C47.9972 124.161 47.2451 124.693 46.3325 125.094C45.4299 125.495 44.3669 125.696 43.1435 125.696H38.7059ZM40.4208 124.161H42.963C44.0059 124.161 44.8834 124.001 45.5954 123.68C46.3074 123.349 46.884 122.923 47.3253 122.401C47.7665 121.87 48.0824 121.298 48.273 120.687C48.4735 120.075 48.5738 119.488 48.5738 118.927C48.5738 118.365 48.4735 117.778 48.273 117.167C48.0824 116.555 47.7665 115.988 47.3253 115.467C46.884 114.935 46.3074 114.509 45.5954 114.188C44.8834 113.857 44.0059 113.692 42.963 113.692H40.4208V124.161ZM53.3343 125.696V112.158H55.0492V125.696H53.3343ZM65.0905 125.967C64.1178 125.967 63.2002 125.786 62.3377 125.425C61.4853 125.054 60.7332 124.548 60.0814 123.906C59.4395 123.264 58.9331 122.517 58.5621 121.664C58.201 120.812 58.0205 119.899 58.0205 118.927C58.0205 117.954 58.201 117.041 58.5621 116.189C58.9331 115.337 59.4395 114.589 60.0814 113.948C60.7332 113.306 61.4853 112.804 62.3377 112.443C63.2002 112.072 64.1178 111.887 65.0905 111.887C66.0733 111.887 66.9909 112.072 67.8433 112.443C68.6957 112.804 69.4428 113.306 70.0846 113.948C70.7365 114.589 71.2429 115.337 71.6039 116.189C71.975 117.041 72.1605 117.954 72.1605 118.927C72.1605 119.899 71.975 120.812 71.6039 121.664C71.2429 122.517 70.7365 123.264 70.0846 123.906C69.4428 124.548 68.6957 125.054 67.8433 125.425C66.9909 125.786 66.0733 125.967 65.0905 125.967ZM65.0905 124.342C66.0833 124.342 66.9809 124.101 67.7831 123.62C68.5854 123.129 69.2172 122.472 69.6785 121.649C70.1498 120.827 70.3855 119.919 70.3855 118.927C70.3855 117.924 70.1498 117.016 69.6785 116.204C69.2172 115.382 68.5854 114.73 67.7831 114.248C66.9809 113.757 66.0833 113.511 65.0905 113.511C64.0977 113.511 63.2002 113.757 62.3979 114.248C61.6057 114.73 60.9739 115.382 60.5026 116.204C60.0312 117.016 59.7956 117.924 59.7956 118.927C59.7956 119.919 60.0312 120.827 60.5026 121.649C60.9739 122.472 61.6057 123.129 62.3979 123.62C63.2002 124.101 64.0977 124.342 65.0905 124.342ZM76.3099 128.403L84.5231 111.255H86.0575L77.8442 128.403H76.3099ZM91.7294 125.696V124.342H94.8583V114.294L91.7294 115.888V114.263L96.513 111.857V124.342H99.0401V125.696H91.7294ZM102.463 125.696V112.158H106.253C107.116 112.158 107.798 112.328 108.299 112.669C108.811 113.01 109.177 113.426 109.397 113.917C109.618 114.399 109.728 114.855 109.728 115.286C109.728 115.778 109.613 116.229 109.382 116.64C109.162 117.041 108.861 117.372 108.48 117.633C109.212 117.964 109.804 118.46 110.255 119.122C110.716 119.784 110.947 120.536 110.947 121.379C110.947 122.091 110.766 122.778 110.405 123.439C110.054 124.101 109.528 124.643 108.826 125.064C108.134 125.485 107.276 125.696 106.253 125.696H102.463ZM104.178 124.161H106.133C106.875 124.161 107.472 124.016 107.923 123.725C108.374 123.434 108.705 123.068 108.916 122.627C109.127 122.186 109.232 121.75 109.232 121.318C109.232 120.897 109.132 120.466 108.931 120.025C108.73 119.584 108.405 119.217 107.953 118.927C107.502 118.626 106.895 118.475 106.133 118.475H104.178V124.161ZM104.178 117.031H106.118C106.71 117.031 107.186 116.891 107.547 116.61C107.918 116.319 108.104 115.908 108.104 115.377C108.104 114.825 107.923 114.409 107.562 114.128C107.201 113.837 106.74 113.692 106.178 113.692H104.178V117.031ZM113.738 125.696V112.158H115.452V116.58H120.266V112.158H121.981V125.696H120.266V118.114H115.452V125.696H113.738ZM133.431 125.696L127.669 117.347L132.302 112.158H134.318L129.715 117.332L135.522 125.696H133.431ZM125.774 125.696V112.158H127.489V125.696H125.774ZM140.395 125.696L146.127 111.706H146.157L151.888 125.696H150.068L148.473 121.679H143.735L142.125 125.696H140.395ZM144.306 120.25H147.902L146.834 117.573C146.703 117.232 146.578 116.896 146.457 116.565C146.337 116.234 146.217 115.838 146.096 115.377C145.976 115.838 145.861 116.234 145.75 116.565C145.64 116.886 145.515 117.222 145.374 117.573L144.306 120.25ZM154.056 125.696V112.158H157.411C158.303 112.158 159.055 112.293 159.667 112.564C160.289 112.834 160.79 113.19 161.171 113.632C161.553 114.063 161.828 114.534 161.999 115.046C162.179 115.557 162.27 116.059 162.27 116.55C162.27 117.031 162.184 117.528 162.014 118.039C161.843 118.551 161.568 119.027 161.186 119.468C160.805 119.909 160.304 120.265 159.682 120.536C159.06 120.807 158.303 120.942 157.411 120.942H155.771V125.696H154.056ZM155.771 119.408H157.321C158.133 119.408 158.775 119.268 159.246 118.987C159.717 118.696 160.053 118.335 160.254 117.904C160.454 117.463 160.555 117.011 160.555 116.55C160.555 116.109 160.454 115.667 160.254 115.226C160.063 114.785 159.732 114.419 159.261 114.128C158.8 113.837 158.153 113.692 157.321 113.692H155.771V119.408ZM161.909 125.696L167.64 111.706H167.67L173.401 125.696H171.581L169.986 121.679H165.248L163.638 125.696H161.909ZM165.82 120.25H169.415L168.347 117.573C168.216 117.232 168.091 116.896 167.971 116.565C167.85 116.234 167.73 115.838 167.61 115.377C167.489 115.838 167.374 116.234 167.264 116.565C167.153 116.886 167.028 117.222 166.888 117.573L165.82 120.25ZM175.615 125.696V112.158H179.014C179.867 112.158 180.599 112.328 181.21 112.669C181.822 113.01 182.294 113.461 182.624 114.023C182.965 114.574 183.136 115.181 183.136 115.843C183.136 116.585 182.925 117.252 182.504 117.844C182.083 118.435 181.506 118.872 180.774 119.152L185.317 125.696H183.316L179.014 119.468H177.329V125.696H175.615ZM177.329 118.024H179.014C179.596 118.024 180.067 117.919 180.428 117.708C180.799 117.488 181.07 117.212 181.241 116.881C181.421 116.54 181.511 116.194 181.511 115.843C181.511 115.211 181.281 114.695 180.819 114.294C180.368 113.892 179.766 113.692 179.014 113.692H177.329V118.024ZM185.079 113.692V112.158H194.014V113.692H190.404V125.696H188.689V113.692H185.079ZM196.638 125.696V111.706L202.926 120.371L209.094 111.706V125.696H207.379V119.438C207.379 119.027 207.384 118.581 207.394 118.099C207.404 117.608 207.439 117.051 207.499 116.43C207.188 116.981 206.882 117.468 206.582 117.889C206.291 118.3 206.025 118.681 205.784 119.032L202.866 123.169L199.858 119.032C199.607 118.681 199.336 118.3 199.045 117.889C198.764 117.468 198.464 116.981 198.143 116.43C198.203 117.051 198.238 117.608 198.248 118.099C198.258 118.581 198.263 119.027 198.263 119.438V125.696H196.638ZM212.884 125.696V112.158H219.563V113.692H214.599V116.58H218.51V118.114H214.599V124.161H219.563V125.696H212.884ZM233.463 126.147L223.986 115.993V125.696H222.361V111.706L231.838 121.86V112.158H233.463V126.147ZM236.08 113.692V112.158H245.015V113.692H241.405V125.696H239.69V113.692H236.08ZM250.114 125.876C249.311 125.876 248.584 125.716 247.933 125.395C247.291 125.074 246.779 124.683 246.398 124.222L246.895 122.146C247.175 122.707 247.597 123.214 248.158 123.665C248.72 124.116 249.392 124.342 250.174 124.342C250.886 124.342 251.473 124.116 251.934 123.665C252.405 123.214 252.641 122.657 252.641 121.995C252.641 121.514 252.526 121.118 252.295 120.807C252.064 120.496 251.803 120.25 251.513 120.07C251.222 119.889 250.991 119.759 250.821 119.679L249.166 118.836C248.905 118.696 248.579 118.5 248.188 118.25C247.807 117.999 247.471 117.653 247.18 117.212C246.89 116.771 246.744 116.199 246.744 115.497C246.744 114.815 246.9 114.208 247.21 113.677C247.531 113.145 247.973 112.729 248.534 112.428C249.106 112.127 249.758 111.977 250.49 111.977C251.212 111.977 251.849 112.107 252.4 112.368C252.952 112.619 253.383 112.88 253.694 113.15L253.197 115.226C252.947 114.805 252.576 114.409 252.084 114.038C251.593 113.667 251.036 113.481 250.415 113.481C249.813 113.481 249.331 113.662 248.97 114.023C248.609 114.374 248.429 114.81 248.429 115.331C248.429 115.733 248.519 116.064 248.7 116.324C248.89 116.585 249.101 116.791 249.331 116.941C249.572 117.091 249.768 117.207 249.918 117.287L251.603 118.129C251.803 118.23 252.054 118.37 252.355 118.551C252.666 118.731 252.972 118.972 253.273 119.273C253.573 119.563 253.824 119.924 254.025 120.356C254.225 120.777 254.326 121.288 254.326 121.89C254.326 122.662 254.14 123.349 253.769 123.951C253.408 124.553 252.912 125.024 252.28 125.365C251.648 125.706 250.926 125.876 250.114 125.876Z" fill="white"/>
<path d="M5.20269 30.5312V9.24878H15.702V11.6608H7.89847V16.2011H14.9926V18.6131H7.89847V30.5312H5.20269ZM23.6423 30.815C22.6491 30.815 21.719 30.5707 20.852 30.082C19.9849 29.5775 19.2834 28.8523 18.7474 27.9064C18.2114 26.9605 17.9433 25.8255 17.9433 24.5012V16.3429H20.4972V24.1465C20.4972 25.2658 20.8283 26.259 21.4904 27.1261C22.1683 27.9774 23.1142 28.403 24.3281 28.403C25.3213 28.403 26.2041 28.0483 26.9766 27.3389C27.7648 26.6137 28.1589 25.5732 28.1589 24.2175V16.3429H30.7128V30.5312H28.3481V28.2375C27.8279 29.073 27.15 29.7115 26.3145 30.1529C25.4947 30.5943 24.604 30.815 23.6423 30.815ZM35.2531 30.5312V7.82995H37.807V30.5312H35.2531ZM42.3362 30.5312V7.82995H44.8901V30.5312H42.3362ZM48.8281 37.6254L53.4393 28.4503L47.4329 16.3429H50.3178L53.3447 22.4912C53.6127 23.043 53.8728 23.5869 54.125 24.1229C54.3773 24.6589 54.6295 25.3052 54.8817 26.0619C55.1497 25.3052 55.402 24.6589 55.6384 24.1229C55.8907 23.5711 56.1587 23.0272 56.4424 22.4912L59.5166 16.3429H62.236L51.5948 37.6254H48.8281ZM72.575 30.5312V9.24878H83.0743V11.6608H75.2708V16.2011H82.3649V18.6131H75.2708V30.5312H72.575ZM91.0146 30.815C90.0214 30.815 89.0913 30.5707 88.2243 30.082C87.3572 29.5775 86.6557 28.8523 86.1197 27.9064C85.5837 26.9605 85.3157 25.8255 85.3157 24.5012V16.3429H87.8696V24.1465C87.8696 25.2658 88.2006 26.259 88.8627 27.1261C89.5406 27.9774 90.4865 28.403 91.7004 28.403C92.6936 28.403 93.5764 28.0483 94.3489 27.3389C95.1371 26.6137 95.5312 25.5732 95.5312 24.2175V16.3429H98.0851V30.5312H95.7204V28.2375C95.2002 29.073 94.5223 29.7115 93.6868 30.1529C92.867 30.5943 91.9763 30.815 91.0146 30.815ZM102.625 30.5312V16.3429H104.99V18.9441C105.495 18.1086 106.165 17.4465 107 16.9578C107.836 16.4533 108.829 16.2011 109.98 16.2011L110.618 18.755C110.319 18.6604 109.972 18.6131 109.578 18.6131C108.253 18.6131 107.189 19.0387 106.385 19.89C105.581 20.7256 105.179 21.9237 105.179 23.4844V30.5312H102.625ZM113.267 30.5312V16.3429H115.631V18.6367C116.152 17.8012 116.822 17.1627 117.641 16.7213C118.477 16.2799 119.375 16.0592 120.337 16.0592C121.346 16.0592 122.276 16.3114 123.128 16.8159C123.995 17.3046 124.696 18.0219 125.232 18.9678C125.768 19.8979 126.036 21.033 126.036 22.373V30.5312H123.482V22.7277C123.482 21.6084 123.143 20.6231 122.465 19.7718C121.803 18.9047 120.865 18.4712 119.651 18.4712C118.658 18.4712 117.767 18.8338 116.979 19.559C116.207 20.2684 115.821 21.301 115.821 22.6567V30.5312H113.267ZM130.293 30.5312V16.3429H132.846V30.5312H130.293ZM131.57 13.789C131.097 13.789 130.695 13.6235 130.364 13.2925C130.032 12.9614 129.867 12.5594 129.867 12.0864C129.867 11.5977 130.032 11.1957 130.364 10.8804C130.695 10.5494 131.097 10.3838 131.57 10.3838C132.058 10.3838 132.46 10.5494 132.776 10.8804C133.107 11.1957 133.272 11.5977 133.272 12.0864C133.272 12.5594 133.107 12.9614 132.776 13.2925C132.46 13.6235 132.058 13.789 131.57 13.789ZM141.041 30.815C140.316 30.815 139.535 30.681 138.7 30.413C137.88 30.1292 137.171 29.6642 136.572 29.0178L137.281 26.2275C137.723 26.9684 138.29 27.5596 138.984 28.001C139.677 28.4267 140.418 28.6395 141.207 28.6395C141.963 28.6395 142.531 28.4582 142.909 28.0956C143.287 27.7172 143.477 27.2601 143.477 26.7241C143.477 26.1092 143.272 25.6599 142.862 25.3762C142.468 25.0924 142.113 24.8953 141.798 24.785L139.882 24.0519C139.535 23.91 139.118 23.7051 138.629 23.4371C138.14 23.1533 137.715 22.7513 137.352 22.2311C136.989 21.7109 136.808 21.033 136.808 20.1974C136.808 19.4407 136.989 18.7471 137.352 18.1165C137.715 17.4859 138.227 16.9893 138.889 16.6267C139.551 16.2484 140.332 16.0592 141.23 16.0592C141.94 16.0592 142.681 16.1853 143.453 16.4375C144.225 16.6898 144.88 17.1154 145.416 17.7145L144.706 20.5048C144.328 19.8112 143.816 19.2594 143.169 18.8495C142.523 18.4397 141.853 18.2347 141.159 18.2347C140.513 18.2347 140.001 18.416 139.622 18.7786C139.26 19.1412 139.078 19.559 139.078 20.0319C139.078 20.4103 139.204 20.7492 139.457 21.0487C139.709 21.3483 140.087 21.5926 140.592 21.7818L142.507 22.5149C142.854 22.641 143.28 22.8459 143.784 23.1297C144.304 23.4134 144.761 23.8233 145.156 24.3593C145.55 24.8953 145.747 25.6205 145.747 26.5349C145.747 27.8118 145.297 28.8444 144.399 29.6327C143.516 30.4209 142.397 30.815 141.041 30.815ZM149.447 30.5312V7.82995H152.001V18.353C152.537 17.612 153.199 17.0445 153.987 16.6504C154.775 16.2562 155.619 16.0592 156.517 16.0592C157.526 16.0592 158.456 16.3114 159.308 16.8159C160.175 17.3046 160.876 18.0219 161.412 18.9678C161.948 19.8979 162.216 21.033 162.216 22.373V30.5312H159.662V22.7277C159.662 21.6084 159.323 20.6231 158.646 19.7718C157.983 18.9047 157.045 18.4712 155.832 18.4712C154.838 18.4712 153.948 18.8338 153.159 19.559C152.387 20.2684 152.001 21.301 152.001 22.6567V30.5312H149.447ZM173.236 30.815C171.754 30.815 170.422 30.484 169.24 29.8218C168.073 29.1597 167.151 28.2611 166.473 27.1261C165.811 25.9752 165.48 24.6983 165.48 23.2952C165.48 21.9552 165.803 20.7413 166.449 19.6535C167.095 18.55 167.963 17.6751 169.05 17.0287C170.154 16.3824 171.368 16.0592 172.692 16.0592C174 16.0592 175.199 16.3745 176.286 17.0051C177.374 17.6199 178.241 18.4554 178.888 19.5117C179.534 20.5679 179.857 21.766 179.857 23.106V24.1465H170.587C170.178 24.1465 169.76 24.1307 169.334 24.0992C168.908 24.0677 168.491 24.0204 168.081 23.9573C168.254 25.2185 168.822 26.2748 169.783 27.1261C170.761 27.9774 171.92 28.403 173.26 28.403C174.158 28.403 174.994 28.1981 175.766 27.7882C176.539 27.3783 177.161 26.8344 177.634 26.1565L178.344 29.0651C177.666 29.6169 176.885 30.0504 176.003 30.3657C175.136 30.6653 174.213 30.815 173.236 30.815ZM168.01 22.2311C168.861 22.0892 169.72 22.0183 170.587 22.0183H175.293C175.64 22.0183 175.979 22.034 176.31 22.0656C176.657 22.0813 177.004 22.105 177.35 22.1365C177.13 21.033 176.578 20.1265 175.695 19.4171C174.812 18.6919 173.811 18.3293 172.692 18.3293C171.541 18.3293 170.532 18.7155 169.665 19.488C168.798 20.2447 168.246 21.1591 168.01 22.2311ZM189.343 30.7204C188.051 30.7204 186.868 30.3972 185.796 29.7509C184.724 29.0888 183.865 28.2059 183.219 27.1024C182.588 25.9989 182.273 24.7771 182.273 23.4371C182.273 22.0971 182.588 20.8753 183.219 19.7718C183.865 18.6682 184.724 17.7933 185.796 17.1469C186.868 16.4848 188.051 16.1538 189.343 16.1538C190.273 16.1538 191.148 16.3193 191.968 16.6504C192.788 16.9814 193.513 17.4386 194.144 18.0219V7.82995H196.698V30.5312H194.333V28.6631C193.702 29.2937 192.953 29.7982 192.086 30.1765C191.235 30.5391 190.321 30.7204 189.343 30.7204ZM189.674 28.403C190.573 28.403 191.385 28.1823 192.11 27.7409C192.851 27.2837 193.434 26.6846 193.86 25.9437C194.301 25.187 194.522 24.3515 194.522 23.4371C194.522 22.5227 194.301 21.6951 193.86 20.9541C193.434 20.1974 192.851 19.5984 192.11 19.157C191.385 18.6998 190.573 18.4712 189.674 18.4712C188.776 18.4712 187.956 18.6998 187.215 19.157C186.49 19.5984 185.907 20.1974 185.465 20.9541C185.04 21.6951 184.827 22.5227 184.827 23.4371C184.827 24.3515 185.04 25.187 185.465 25.9437C185.907 26.6846 186.49 27.2837 187.215 27.7409C187.956 28.1823 188.776 28.403 189.674 28.403Z" fill="white"/>
<path d="M6.125 44.6685H15.075V85.0443H37.2144V93.1195H6.125V44.6685Z" fill="url(#paint0_linear_8_1006)"/>
<path d="M42.1873 74.3447V44.6685H51.3391V73.8737C51.3391 81.2086 55.2421 85.5154 62.5098 85.5154C69.8448 85.5154 73.7478 81.2086 73.7478 73.8737V44.6685H82.8996V74.3447C82.8996 80.5357 81.0827 85.4481 77.3816 89.0146C73.7478 92.5812 68.7681 94.3308 62.5098 94.3308C56.2515 94.3308 51.3391 92.5812 47.638 89.0146C44.0042 85.4481 42.1873 80.5357 42.1873 74.3447Z" fill="url(#paint1_linear_8_1006)"/>
<path d="M114.048 68.4229L129.93 93.1195H119.566L109.069 74.4793L98.571 93.1195H88.2079L104.022 68.4229L89.0154 44.6685H99.3786L109.069 62.703L118.759 44.6685H129.055L114.048 68.4229Z" fill="url(#paint2_linear_8_1006)"/>
<path d="M135.241 74.3447V44.6685H144.393V73.8737C144.393 81.2086 148.296 85.5154 155.564 85.5154C162.899 85.5154 166.802 81.2086 166.802 73.8737V44.6685H175.953V74.3447C175.953 80.5357 174.136 85.4481 170.435 89.0146C166.802 92.5812 161.822 94.3308 155.564 94.3308C149.305 94.3308 144.393 92.5812 140.692 89.0146C137.058 85.4481 135.241 80.5357 135.241 74.3447Z" fill="url(#paint3_linear_8_1006)"/>
<path d="M224.06 93.1195H212.62L198.691 74.1429H195.864V93.1195H186.712V44.6685H207.371C216.792 44.6685 222.445 50.523 222.445 59.4057C222.445 67.4135 217.802 72.8643 208.852 73.941L224.06 93.1195ZM205.622 52.4072H195.864V66.3368H205.622C210.669 66.3368 213.428 64.0489 213.428 59.4057C213.428 54.6278 210.534 52.4072 205.622 52.4072Z" fill="url(#paint4_linear_8_1006)"/>
<path d="M246.049 67.5481L258.297 44.6685H267.987L250.625 75.7579V93.1195H241.473V75.7579L224.112 44.6685H233.802L246.049 67.5481Z" fill="url(#paint5_linear_8_1006)"/>
<defs>
<linearGradient id="paint0_linear_8_1006" x1="92.7413" y1="41.6449" x2="91.8867" y2="99.3338" gradientUnits="userSpaceOnUse">
<stop stop-color="#F8AF41"/>
<stop offset="0.986784" stop-color="#926726"/>
</linearGradient>
<linearGradient id="paint1_linear_8_1006" x1="92.7413" y1="41.6449" x2="91.8867" y2="99.3338" gradientUnits="userSpaceOnUse">
<stop stop-color="#F8AF41"/>
<stop offset="0.986784" stop-color="#926726"/>
</linearGradient>
<linearGradient id="paint2_linear_8_1006" x1="92.7413" y1="41.6449" x2="91.8867" y2="99.3338" gradientUnits="userSpaceOnUse">
<stop stop-color="#F8AF41"/>
<stop offset="0.986784" stop-color="#926726"/>
</linearGradient>
<linearGradient id="paint3_linear_8_1006" x1="92.7413" y1="41.6449" x2="91.8867" y2="99.3338" gradientUnits="userSpaceOnUse">
<stop stop-color="#F8AF41"/>
<stop offset="0.986784" stop-color="#926726"/>
</linearGradient>
<linearGradient id="paint4_linear_8_1006" x1="92.7413" y1="41.6449" x2="91.8867" y2="99.3338" gradientUnits="userSpaceOnUse">
<stop stop-color="#F8AF41"/>
<stop offset="0.986784" stop-color="#926726"/>
</linearGradient>
<linearGradient id="paint5_linear_8_1006" x1="92.7413" y1="41.6449" x2="91.8867" y2="99.3338" gradientUnits="userSpaceOnUse">
<stop stop-color="#F8AF41"/>
<stop offset="0.986784" stop-color="#926726"/>
</linearGradient>
</defs>
</svg>
