<svg width="70" height="69" viewBox="0 0 70 69" fill="none" xmlns="http://www.w3.org/2000/svg">
<path d="M6.2509 0.786757C3.71092 1.60121 1.90256 3.36815 1.0605 5.86673C0.729198 6.86063 0.70159 7.0815 0.756807 8.66899C0.867241 11.7611 1.48843 13.0035 4.9395 17.0344C8.00405 20.6235 7.78318 20.4026 8.45959 20.4026C9.136 20.4026 8.91513 20.6235 11.9797 17.0344C15.4031 13.0311 16.0519 11.7611 16.1624 8.72421C16.2038 7.41281 16.1762 6.87444 15.9829 6.23944C15.2375 3.64424 13.4015 1.71164 10.9029 0.869583C9.59154 0.44165 7.46568 0.400238 6.2509 0.786757ZM10.7097 3.32674C11.7312 3.79609 12.9184 4.98325 13.3877 6.00477C13.6776 6.61216 13.7742 7.0815 13.8156 7.99259C13.9399 10.4912 13.3877 11.7059 10.6131 14.9499C9.50871 16.2337 8.54241 17.2967 8.45959 17.2967C8.37676 17.2967 7.41046 16.2337 6.30612 14.9499C3.53146 11.7059 2.97929 10.4912 3.10353 7.99259C3.14494 7.09531 3.24157 6.62596 3.51766 6.04618C4.15266 4.66576 5.29841 3.61663 6.70645 3.11968C7.78318 2.73316 9.64675 2.82979 10.7097 3.32674Z" fill="#326555"/>
<path d="M7.01006 5.2041C5.80909 5.75628 5.14648 6.86062 5.14648 8.28246C5.16029 10.2427 6.4855 11.5679 8.45951 11.5679C10.4473 11.5679 11.7725 10.2427 11.7725 8.25485C11.7725 6.8192 11.0409 5.67345 9.81233 5.16269C9.0945 4.859 7.70027 4.88661 7.01006 5.2041ZM9.14972 7.56463C9.74331 8.15822 9.30157 9.22115 8.45951 9.22115C7.93495 9.22115 7.49321 8.77941 7.49321 8.25485C7.49321 7.73029 7.93495 7.28855 8.45951 7.28855C8.69418 7.28855 8.99787 7.41279 9.14972 7.56463Z" fill="#326555"/>
<path d="M49.3205 7.7025V14.8669L36.1098 14.9221C23.1614 14.9635 22.8577 14.9774 21.6844 15.2534C17.3498 16.3302 14.2577 18.0281 11.276 21.0098C8.33564 23.9639 6.61011 27.0561 5.58859 31.1698C5.25729 32.564 5.24349 32.8263 5.18827 37.5473L5.11925 42.4893H2.92437H0.729492V43.5936V44.6979H2.93817H5.14686V50.2196V55.7413H2.93817H0.729492V56.8457V57.95H2.93817H5.14686V63.4717V68.9934H6.2512H7.35554V52.801C7.35554 43.566 7.41076 35.8218 7.49358 34.7589C7.96293 28.3951 11.1655 23.1081 16.563 19.8365C19.0063 18.3456 21.8362 17.4621 24.9008 17.2274C25.8395 17.1584 31.7201 17.0894 37.9734 17.0894H49.3205V19.2981V21.5068H48.7683H48.2162V22.6111V23.7155H48.7683H49.3205V25.9241V28.1328H38.0976C27.3717 28.1328 26.8196 28.1466 25.798 28.4089C22.3746 29.2786 19.5447 32.1084 18.675 35.5319C18.4128 36.5672 18.399 37.1332 18.399 52.801V68.9934H19.5033H20.6076V63.4717V57.9638L33.8321 57.9086C46.7391 57.8672 47.0704 57.8534 48.23 57.5773C49.8175 57.177 51.3635 56.6524 52.6059 56.0726C53.1719 55.8242 53.655 55.6033 53.6689 55.6033C53.6965 55.6033 53.7379 56.3625 53.7655 57.2874C53.8759 60.352 54.5109 61.6082 57.9482 65.6252C61.0127 69.2143 60.7919 68.9934 61.4683 68.9934C62.1447 68.9934 61.9238 69.2143 64.9883 65.6252C68.4118 61.622 69.0606 60.352 69.171 57.315C69.2125 56.0036 69.1848 55.4653 68.9916 54.8303C68.0667 51.6139 65.4025 49.3776 62.1999 49.1291L61.0679 49.0463L61.7029 48.011C62.9315 46.0093 63.8012 43.8697 64.3948 41.3987C64.6432 40.3496 64.6847 39.6456 64.7399 35.2696L64.8089 30.3415H67.0038H69.1987V29.2372V28.1328H66.99H64.7813V22.6111V17.0894H66.99H69.1987V15.9851V14.8807H66.99H64.7813V7.7025V0.524284H63.6769H62.5726V18.3594C62.5726 28.6988 62.5174 36.9952 62.4346 38.0719C62.1999 41.2469 61.413 43.8421 59.8808 46.4235C56.692 51.7933 51.3359 55.1064 45.0274 55.6033C44.0887 55.6723 38.2081 55.7413 31.9685 55.7413H20.6076V53.5327V51.324H22.2641H23.9207V50.2196V49.1153H22.2641H20.6076V46.9066V44.6979H31.8305C42.5564 44.6979 43.1086 44.6841 44.1301 44.4218C47.5536 43.5522 50.3834 40.7223 51.2531 37.2988C51.5154 36.2635 51.5292 35.6838 51.5292 18.3732V0.524284H50.4249H49.3205V7.7025ZM49.2791 33.13C49.1963 35.9736 49.0858 36.7053 48.5337 37.9338C47.8711 39.4109 46.256 41.026 44.7651 41.7024C43.1638 42.4202 43.5503 42.3926 31.6925 42.4478L20.6076 42.5031V40.529C20.6076 37.0504 20.9251 35.4629 21.919 33.972C23.2304 31.998 25.2183 30.7556 27.5098 30.4795C28.0067 30.4243 33.1281 30.3691 38.8845 30.3553L49.3619 30.3415L49.2791 33.13ZM63.7184 51.9176C64.7399 52.3869 65.927 53.5741 66.3964 54.5956C66.6863 55.203 66.7829 55.6723 66.8243 56.5834C66.9486 59.082 66.3964 60.2968 63.6217 63.5408C62.5174 64.8246 61.5511 65.8875 61.4683 65.8875C61.3854 65.8875 60.4191 64.8246 59.3148 63.5408C56.5401 60.2968 55.988 59.082 56.1122 56.5834C56.1536 55.6861 56.2503 55.2168 56.5263 54.637C57.1613 53.2566 58.3071 52.2075 59.7151 51.7105C60.7919 51.324 62.6554 51.4206 63.7184 51.9176Z" fill="#326555"/>
<path d="M60.0188 53.7949C58.8179 54.3471 58.1553 55.4514 58.1553 56.8733C58.1691 58.8335 59.4943 60.1587 61.4683 60.1587C63.4561 60.1587 64.7813 58.8335 64.7813 56.8457C64.7813 55.41 64.0497 54.2643 62.8211 53.7535C62.1033 53.4498 60.7091 53.4774 60.0188 53.7949ZM62.1585 56.1555C62.3104 56.3073 62.4346 56.611 62.4346 56.8457C62.4346 57.0803 62.3104 57.384 62.1585 57.5359C61.5649 58.1295 60.502 57.6877 60.502 56.8457C60.502 56.3211 60.9437 55.8794 61.4683 55.8794C61.703 55.8794 62.0067 56.0036 62.1585 56.1555Z" fill="#326555"/>
<path d="M55.9463 1.35241V2.18066H57.0506H58.155V1.35241V0.524152H57.0506H55.9463V1.35241Z" fill="#326555"/>
<path d="M55.9463 8.73792V11.0156H57.0506H58.155V8.73792V6.46022H57.0506H55.9463V8.73792Z" fill="#326555"/>
<path d="M55.9463 17.5724V19.8501H57.0506H58.155V17.5724V15.2947H57.0506H55.9463V17.5724Z" fill="#326555"/>
<path d="M24.8867 21.6033C24.155 21.7275 22.1948 22.2245 22.0844 22.3211C22.0016 22.4039 22.5675 24.3503 22.7332 24.5022C22.7608 24.5298 23.244 24.4331 23.7961 24.2675C24.3621 24.1156 25.2732 23.95 25.8254 23.8948C26.626 23.8257 26.8193 23.7705 26.7502 23.6187C26.7088 23.5082 26.6812 22.9837 26.6812 22.4591V21.5066L25.9634 21.5204C25.5631 21.5342 25.0799 21.5757 24.8867 21.6033Z" fill="#326555"/>
<path d="M30.8232 22.611V23.7153H33.1009H35.3786V22.611V21.5066H33.1009H30.8232V22.611Z" fill="#326555"/>
<path d="M39.5195 22.611V23.7153H41.7282H43.9369V22.611V21.5066H41.7282H39.5195V22.611Z" fill="#326555"/>
<path d="M55.9463 26.4074V28.6851H57.0506H58.155V26.4074V24.1297H57.0506H55.9463V26.4074Z" fill="#326555"/>
<path d="M17.0186 25.2477C16.2732 25.8689 14.6719 27.6497 14.6719 27.8567C14.6719 27.8982 15.0722 28.2295 15.5553 28.5884L16.4526 29.251L17.9021 27.7739L19.3653 26.3107L18.7165 25.4272C18.3576 24.944 18.0263 24.5437 17.9711 24.5437C17.9021 24.5437 17.4879 24.8612 17.0186 25.2477Z" fill="#326555"/>
<path d="M12.187 33.1299C12.0213 33.8339 11.8557 34.883 11.8143 35.4628L11.7314 36.512L12.2698 36.5948C12.5735 36.65 13.0981 36.6914 13.4432 36.6914H14.0782L14.161 35.6147C14.2162 35.0349 14.3405 34.2066 14.4509 33.7787C14.5613 33.3646 14.6718 32.9366 14.6994 32.8262C14.727 32.7158 14.3543 32.5087 13.7055 32.2602C13.1395 32.0532 12.6287 31.8737 12.5735 31.8737C12.5321 31.8599 12.3526 32.4397 12.187 33.1299Z" fill="#326555"/>
<path d="M55.947 34.0274C55.947 34.621 55.9056 35.6149 55.8642 36.2361L55.7676 37.3542L56.582 37.4509C57.0238 37.4923 57.5621 37.5751 57.783 37.6027L58.1557 37.6855V35.325V32.9645H57.0514H55.947V34.0274Z" fill="#326555"/>
<path d="M11.7725 43.0413V45.25H12.8768H13.9811V43.0413V40.8326H12.8768H11.7725V43.0413Z" fill="#326555"/>
<path d="M54.3035 42.0197C54.055 42.5029 53.5442 43.3035 53.1715 43.7867L52.4951 44.684L53.4062 45.4708C53.917 45.9125 54.3449 46.2024 54.4001 46.1334C54.4553 46.0644 54.759 45.6503 55.0903 45.2223C55.6701 44.4631 56.9125 42.3925 56.9125 42.1854C56.9125 42.1164 56.5536 41.9093 56.1256 41.716C54.6624 41.0672 54.8142 41.0396 54.3035 42.0197Z" fill="#326555"/>
<path d="M48.4924 47.6661C47.9955 47.9145 47.1396 48.2597 46.5875 48.4253C46.0353 48.591 45.6212 48.7704 45.6488 48.8118C45.6764 48.867 45.8006 49.3778 45.9248 49.9576L46.1595 51.0205L46.8773 50.8272C47.9817 50.5374 49.8315 49.7643 50.5493 49.2812C50.7011 49.1707 50.6183 48.9499 50.149 48.163C49.8315 47.6247 49.5278 47.1829 49.4725 47.1829C49.4311 47.1967 48.9894 47.4038 48.4924 47.6661Z" fill="#326555"/>
<path d="M28.3379 50.2199V51.3242H30.5466H32.7553V50.2199V49.1155H30.5466H28.3379V50.2199Z" fill="#326555"/>
<path d="M37.1729 50.2199V51.3242H39.3815H41.5902V50.2199V49.1155H39.3815H37.1729V50.2199Z" fill="#326555"/>
<path d="M11.7725 51.6691V53.9468H12.8768H13.9811V51.6691V49.3914H12.8768H11.7725V51.6691Z" fill="#326555"/>
<path d="M11.7725 60.2967V62.5054H12.8768H13.9811V60.2967V58.088H12.8768H11.7725V60.2967Z" fill="#326555"/>
<path d="M11.7725 67.8893V68.9937H12.8768H13.9811V67.8893V66.785H12.8768H11.7725V67.8893Z" fill="#326555"/>
</svg>
