<svg width="19" height="18" viewBox="0 0 19 18" fill="none" xmlns="http://www.w3.org/2000/svg">
<g id="carbon:floorplan">
<path id="Vector" d="M15.8507 1.19531H2.43719C1.8224 1.19531 1.3194 1.69832 1.3194 2.3131V15.7266C1.3194 16.3414 1.8224 16.8444 2.43719 16.8444H10.8206V15.7266C10.8206 14.1617 12.0502 12.9321 13.6151 12.9321V11.8143C11.4354 11.8143 9.70282 13.5469 9.70282 15.7266H8.02614V13.491H6.90835V15.7266H2.43719V2.3131H6.90835V10.1376H8.02614V7.34316H10.2617V6.22537H8.02614V2.3131H15.8507V6.22537H13.6151V7.34316H15.8507V15.7266H13.6151V16.8444H15.8507C16.4655 16.8444 16.9685 16.3414 16.9685 15.7266V2.3131C16.9685 1.69832 16.4655 1.19531 15.8507 1.19531Z" fill="white"/>
</g>
</svg>
