<svg width="80" height="79" viewBox="0 0 80 79" fill="none" xmlns="http://www.w3.org/2000/svg">
<path fill-rule="evenodd" clip-rule="evenodd" d="M65.2532 8.91439C65.2532 11.2298 64.3334 13.4504 62.6961 15.0876C61.0589 16.7249 58.8383 17.6447 56.5229 17.6447C54.2075 17.6447 51.9869 16.7249 50.3496 15.0876C48.7124 13.4504 47.7926 11.2298 47.7926 8.91439C47.7926 6.59897 48.7124 4.37838 50.3496 2.74113C51.9869 1.10388 54.2075 0.184082 56.5229 0.184082C58.8383 0.184082 61.0589 1.10388 62.6961 2.74113C64.3334 4.37838 65.2532 6.59897 65.2532 8.91439ZM60.888 8.91439C60.888 10.0721 60.4281 11.1824 59.6095 12.001C58.7909 12.8196 57.6806 13.2795 56.5229 13.2795C55.3652 13.2795 54.2549 12.8196 53.4363 12.001C52.6176 11.1824 52.1577 10.0721 52.1577 8.91439C52.1577 7.75668 52.6176 6.64638 53.4363 5.82776C54.2549 5.00913 55.3652 4.54923 56.5229 4.54923C57.6806 4.54923 58.7909 5.00913 59.6095 5.82776C60.4281 6.64638 60.888 7.75668 60.888 8.91439ZM11.7801 48.2008C11.7801 47.0431 12.24 45.9328 13.0586 45.1141C13.8772 44.2955 14.9875 43.8356 16.1452 43.8356H22.693C23.8507 43.8356 24.961 44.2955 25.7796 45.1141C26.5982 45.9328 27.0581 47.0431 27.0581 48.2008V52.5659H33.6058C34.7635 52.5659 35.8738 53.0258 36.6925 53.8444C37.5111 54.6631 37.971 55.7734 37.971 56.9311V74.3917C37.971 75.5494 37.5111 76.6597 36.6925 77.4783C35.8738 78.2969 34.7635 78.7568 33.6058 78.7568H5.23234C4.07463 78.7568 2.96434 78.2969 2.14571 77.4783C1.32709 76.6597 0.867188 75.5494 0.867188 74.3917V56.9311C0.867188 55.7734 1.32709 54.6631 2.14571 53.8444C2.96434 53.0258 4.07463 52.5659 5.23234 52.5659H11.7801V48.2008ZM5.23234 74.3917V56.9311H9.59749V74.3917H5.23234ZM22.693 48.2008V52.5659H16.1452V48.2008H22.693ZM24.8755 56.9311H13.9626V74.3917H24.8755V56.9311ZM29.2407 56.9311V74.3917H33.6058V56.9311H29.2407Z" fill="#326555"/>
<path d="M70.7099 35.1054C70.7099 33.9477 70.25 32.8374 69.4314 32.0188C68.6127 31.2001 67.5024 30.7402 66.3447 30.7402V39.4705C67.5024 39.4705 68.6127 39.0106 69.4314 38.192C70.25 37.3734 70.7099 36.2631 70.7099 35.1054Z" fill="#326555"/>
<path fill-rule="evenodd" clip-rule="evenodd" d="M48.8843 78.7568C47.1478 78.7568 45.4823 78.0669 44.2544 76.839C43.0264 75.611 42.3366 73.9456 42.3366 72.209V35.1052H31.4237C29.6871 35.1052 28.0217 34.4154 26.7938 33.1874C25.5658 31.9595 24.876 30.2941 24.876 28.5575C24.876 26.8209 25.5658 25.1555 26.7938 23.9276C28.0217 22.6996 29.6871 22.0098 31.4237 22.0098H68.5624C70.9916 22.0098 79.4404 24.9868 79.4404 34.1689C79.4404 41.4565 74.1214 46.0137 70.7101 47.5852V72.209C70.7101 73.9456 70.0202 75.611 68.7923 76.839C67.5644 78.0669 65.8989 78.7568 64.1624 78.7568C62.4258 78.7568 60.7603 78.0669 59.5324 76.839C58.3045 75.611 57.6146 73.9456 57.6146 72.209V54.7484H55.432V72.209C55.432 73.739 54.9082 75.1468 54.0265 76.2621C53.4137 77.0396 52.6326 77.668 51.742 78.1001C50.8513 78.5322 49.8743 78.7567 48.8843 78.7568ZM66.3449 44.7893L68.8833 43.6195C71.3801 42.4692 75.0752 39.1517 75.0752 34.1689C75.0752 31.1264 73.7548 29.2843 72.2204 28.0817C71.4751 27.5024 70.6465 27.0388 69.7628 26.7067C69.3803 26.5565 68.9831 26.4468 68.5777 26.3793C68.5486 26.3764 68.5428 26.3749 68.5602 26.3749H31.4237C30.8449 26.3749 30.2897 26.6049 29.8804 27.0142C29.4711 27.4235 29.2411 27.9786 29.2411 28.5575C29.2411 29.1364 29.4711 29.6915 29.8804 30.1008C30.2897 30.5101 30.8449 30.7401 31.4237 30.7401H46.7017V72.209C46.7017 72.7879 46.9317 73.343 47.341 73.7523C47.7503 74.1617 48.3055 74.3916 48.8843 74.3916C49.4632 74.3916 50.0183 74.1617 50.4276 73.7523C50.8369 73.343 51.0669 72.7879 51.0669 72.209V50.3833H61.9798V72.209C61.9798 72.7879 62.2097 73.343 62.619 73.7523C63.0283 74.1617 63.5835 74.3916 64.1624 74.3916C64.7412 74.3916 65.2964 74.1617 65.7057 73.7523C66.115 73.343 66.3449 72.7879 66.3449 72.209V44.7893Z" fill="#326555"/>
</svg>
