<svg width="57" height="47" viewBox="0 0 57 47" fill="none" xmlns="http://www.w3.org/2000/svg">
<mask id="path-1-outside-1_39_12263" maskUnits="userSpaceOnUse" x="0.319824" y="-0.724609" width="56" height="48" fill="black">
<rect fill="white" x="0.319824" y="-0.724609" width="56" height="48"/>
<path d="M54.6183 15.8336C54.6183 17.1401 54.4995 18.506 54.262 19.9313C52.9555 28.8392 48.739 37.0346 41.6126 44.5173L38.0494 41.8449C42.3253 37.3315 44.5226 33.2932 44.6413 29.73C44.5226 27.7109 43.0379 26.2856 40.1873 25.4542C39.3559 25.2167 38.4651 24.9197 37.5149 24.5634C32.8828 22.4255 30.5667 18.8029 30.5667 13.6957C30.5667 11.7953 30.9824 10.0137 31.8138 8.35088C33.9518 3.83751 37.3962 1.58082 42.1471 1.58082C43.8099 1.58082 45.354 1.87775 46.7793 2.47162C52.0053 4.37199 54.6183 8.82598 54.6183 15.8336ZM25.9346 15.8336C25.9346 17.1401 25.8158 18.506 25.5783 19.9313C24.2717 28.8392 20.0553 37.0346 12.9289 44.5173L9.36572 41.8449C13.6416 37.3315 15.8389 33.2932 15.9576 29.73C15.8389 27.7109 14.3542 26.2856 11.5036 25.4542C10.6722 25.2167 9.78143 24.9197 8.83124 24.5634C4.19909 22.4255 1.88302 18.8029 1.88302 13.6957C1.88302 11.7953 2.29872 10.0137 3.13013 8.35088C5.26805 3.83751 8.71247 1.58082 13.4634 1.58082C15.1262 1.58082 16.6703 1.87775 18.0955 2.47162C23.3216 4.37199 25.9346 8.82598 25.9346 15.8336Z"/>
</mask>
<path d="M54.262 19.9313L52.7635 19.6815L52.7611 19.6962L52.7589 19.7108L54.262 19.9313ZM41.6126 44.5173L40.7012 45.7326L41.7814 46.5427L42.7126 45.5649L41.6126 44.5173ZM38.0494 41.8449L36.9466 40.8002L35.7744 42.0375L37.138 43.0602L38.0494 41.8449ZM44.6413 29.73L46.1596 29.7806L46.1619 29.7107L46.1578 29.6408L44.6413 29.73ZM40.1873 25.4542L40.6127 23.9959L40.6047 23.9936L40.1873 25.4542ZM37.5149 24.5634L36.8784 25.9427L36.9292 25.9661L36.9816 25.9858L37.5149 24.5634ZM31.8138 8.35088L33.1726 9.03024L33.1798 9.01579L33.1867 9.00118L31.8138 8.35088ZM46.7793 2.47162L46.195 3.87385L46.2273 3.88729L46.2601 3.89924L46.7793 2.47162ZM25.5783 19.9313L24.0798 19.6815L24.0774 19.6962L24.0752 19.7108L25.5783 19.9313ZM12.9289 44.5173L12.0175 45.7326L13.0977 46.5427L14.0289 45.5649L12.9289 44.5173ZM9.36572 41.8449L8.26294 40.8002L7.09072 42.0375L8.45427 43.0602L9.36572 41.8449ZM15.9576 29.73L17.4759 29.7806L17.4782 29.7107L17.4741 29.6408L15.9576 29.73ZM11.5036 25.4542L11.929 23.9959L11.921 23.9936L11.5036 25.4542ZM8.83124 24.5634L8.19466 25.9427L8.24546 25.9661L8.29786 25.9858L8.83124 24.5634ZM3.13014 8.35088L4.48885 9.03024L4.49607 9.01579L4.50299 9.00118L3.13014 8.35088ZM18.0955 2.47162L17.5113 3.87385L17.5436 3.88729L17.5764 3.89924L18.0955 2.47162ZM53.0992 15.8336C53.0992 17.0482 52.9888 18.3302 52.7635 19.6815L55.7604 20.181C56.0102 18.6817 56.1374 17.232 56.1374 15.8336H53.0992ZM52.7589 19.7108C51.5045 28.2637 47.4555 36.1796 40.5126 43.4697L42.7126 45.5649C50.0225 37.8896 54.4064 29.4148 55.765 20.1517L52.7589 19.7108ZM42.5241 43.302L38.9609 40.6296L37.138 43.0602L40.7012 45.7326L42.5241 43.302ZM39.1522 42.8896C43.5104 38.2894 46.0221 33.9064 46.1596 29.7806L43.1231 29.6794C43.0231 32.6801 41.1402 36.3737 36.9466 40.8002L39.1522 42.8896ZM46.1578 29.6408C46.0755 28.2418 45.5038 27.0234 44.4908 26.0509C43.511 25.1103 42.176 24.4519 40.6127 23.9959L39.762 26.9125C41.0492 27.288 41.8818 27.7579 42.3867 28.2426C42.8583 28.6953 43.0884 29.1991 43.1249 29.8192L46.1578 29.6408ZM40.6047 23.9936C39.8185 23.7689 38.9667 23.4854 38.0483 23.1411L36.9816 25.9858C37.9636 26.354 38.8934 26.6644 39.77 26.9148L40.6047 23.9936ZM38.1515 23.1841C36.0492 22.2138 34.5581 20.9489 33.5836 19.4248C32.6091 17.9005 32.0858 16.0145 32.0858 13.6957H29.0476C29.0476 16.4841 29.6824 18.963 31.0239 21.0613C32.3655 23.1597 34.3485 24.7751 36.8784 25.9427L38.1515 23.1841ZM32.0858 13.6957C32.0858 12.0257 32.449 10.4773 33.1726 9.03024L30.4551 7.67153C29.5159 9.55009 29.0476 11.5649 29.0476 13.6957H32.0858ZM33.1867 9.00118C34.1615 6.94315 35.3899 5.4895 36.8331 4.54399C38.2716 3.60152 40.0208 3.0999 42.1471 3.0999V0.0617294C39.5225 0.0617294 37.174 0.688454 35.1681 2.00268C33.1668 3.31385 31.604 5.24524 30.441 7.70058L33.1867 9.00118ZM42.1471 3.0999C43.6249 3.0999 44.9687 3.36289 46.195 3.87385L47.3635 1.06938C45.7392 0.392601 43.9949 0.0617294 42.1471 0.0617294V3.0999ZM46.2601 3.89924C48.5682 4.73856 50.235 6.10841 51.3483 8.00607C52.4777 9.93117 53.0992 12.5072 53.0992 15.8336H56.1374C56.1374 12.1524 55.4524 8.9976 53.9688 6.4687C52.4691 3.91238 50.2163 2.10505 47.2984 1.04399L46.2601 3.89924ZM24.4155 15.8336C24.4155 17.0482 24.3051 18.3302 24.0798 19.6815L27.0767 20.181C27.3265 18.6817 27.4537 17.232 27.4537 15.8336H24.4155ZM24.0752 19.7108C22.8208 28.2637 18.7718 36.1796 11.8289 43.4697L14.0289 45.5649C21.3388 37.8896 25.7227 29.4148 27.0813 20.1517L24.0752 19.7108ZM13.8404 43.302L10.2772 40.6296L8.45427 43.0602L12.0175 45.7326L13.8404 43.302ZM10.4685 42.8896C14.8266 38.2894 17.3383 33.9064 17.4759 29.7806L14.4394 29.6794C14.3394 32.6801 12.4565 36.3737 8.26294 40.8002L10.4685 42.8896ZM17.4741 29.6408C17.3918 28.2418 16.8201 27.0234 15.8071 26.0509C14.8273 25.1103 13.4923 24.4519 11.929 23.9959L11.0783 26.9125C12.3655 27.288 13.1981 27.7579 13.703 28.2426C14.1746 28.6953 14.4047 29.1991 14.4412 29.8192L17.4741 29.6408ZM11.921 23.9936C11.1348 23.7689 10.283 23.4854 9.36463 23.1411L8.29786 25.9858C9.27985 26.354 10.2097 26.6644 11.0863 26.9148L11.921 23.9936ZM9.46783 23.1841C7.36551 22.2138 5.8744 20.9489 4.89994 19.4248C3.92541 17.9005 3.4021 16.0145 3.4021 13.6957H0.363932C0.363932 16.4841 0.998666 18.963 2.34021 21.0613C3.68182 23.1597 5.66483 24.7751 8.19466 25.9427L9.46783 23.1841ZM3.4021 13.6957C3.4021 12.0257 3.7653 10.4773 4.48885 9.03024L1.77142 7.67153C0.832147 9.55009 0.363932 11.5649 0.363932 13.6957H3.4021ZM4.50299 9.00118C5.47785 6.94315 6.70623 5.4895 8.14939 4.54399C9.58789 3.60152 11.3371 3.0999 13.4634 3.0999V0.0617294C10.8388 0.0617294 8.49031 0.688454 6.48439 2.00268C4.48312 3.31385 2.92034 5.24524 1.75728 7.70058L4.50299 9.00118ZM13.4634 3.0999C14.9412 3.0999 16.285 3.36289 17.5113 3.87385L18.6798 1.06938C17.0555 0.392601 15.3112 0.0617294 13.4634 0.0617294V3.0999ZM17.5764 3.89924C19.8845 4.73856 21.5513 6.10841 22.6646 8.00607C23.794 9.93117 24.4155 12.5072 24.4155 15.8336H27.4537C27.4537 12.1524 26.7687 8.9976 25.2851 6.4687C23.7853 3.91238 21.5326 2.10505 18.6147 1.04399L17.5764 3.89924Z" fill="white" mask="url(#path-1-outside-1_39_12263)"/>
</svg>
