<svg width="57" height="47" viewBox="0 0 57 47" fill="none" xmlns="http://www.w3.org/2000/svg">
<mask id="path-1-outside-1_278_6321" maskUnits="userSpaceOnUse" x="0.637695" y="-0.598145" width="56" height="48" fill="black">
<rect fill="white" x="0.637695" y="-0.598145" width="56" height="48"/>
<path d="M54.9361 15.9601C54.9361 17.2666 54.8174 18.6324 54.5798 20.0577C53.2733 28.9657 49.0569 37.1611 41.9305 44.6438L38.3673 41.9714C42.6431 37.458 44.8404 33.4197 44.9592 29.8565C44.8404 27.8374 43.3558 26.4121 40.5052 25.5807C39.6738 25.3431 38.783 25.0462 37.8328 24.6899C33.2007 22.552 30.8846 18.9294 30.8846 13.8221C30.8846 11.9218 31.3003 10.1402 32.1317 8.47735C34.2696 3.96397 37.714 1.70728 42.465 1.70728C44.1278 1.70728 45.6718 2.00421 47.0971 2.59808C52.3231 4.49845 54.9361 8.95244 54.9361 15.9601ZM26.2524 15.9601C26.2524 17.2666 26.1337 18.6324 25.8961 20.0577C24.5896 28.9657 20.3732 37.1611 13.2468 44.6438L9.68359 41.9714C13.9594 37.458 16.1567 33.4197 16.2755 29.8565C16.1567 27.8374 14.6721 26.4121 11.8215 25.5807C10.9901 25.3431 10.0993 25.0462 9.14911 24.6899C4.51696 22.552 2.20089 18.9294 2.20089 13.8221C2.20089 11.9218 2.61659 10.1402 3.44801 8.47735C5.58592 3.96397 9.03034 1.70728 13.7813 1.70728C15.4441 1.70728 16.9881 2.00421 18.4134 2.59808C23.6394 4.49845 26.2524 8.95244 26.2524 15.9601Z"/>
</mask>
<path d="M54.5798 20.0577L53.0814 19.808L53.079 19.8226L53.0768 19.8373L54.5798 20.0577ZM41.9305 44.6438L41.019 45.859L42.0993 46.6692L43.0305 45.6914L41.9305 44.6438ZM38.3673 41.9714L37.2645 40.9266L36.0923 42.164L37.4558 43.1866L38.3673 41.9714ZM44.9592 29.8565L46.4774 29.9071L46.4798 29.8372L46.4757 29.7673L44.9592 29.8565ZM40.5052 25.5807L40.9306 24.1223L40.9225 24.12L40.5052 25.5807ZM37.8328 24.6899L37.1962 26.0691L37.247 26.0926L37.2994 26.1122L37.8328 24.6899ZM32.1317 8.47735L33.4904 9.15671L33.4976 9.14225L33.5046 9.12765L32.1317 8.47735ZM47.0971 2.59808L46.5129 4.00031L46.5451 4.01376L46.578 4.0257L47.0971 2.59808ZM25.8961 20.0577L24.3977 19.808L24.3953 19.8226L24.3931 19.8373L25.8961 20.0577ZM13.2468 44.6438L12.3353 45.859L13.4156 46.6692L14.3468 45.6914L13.2468 44.6438ZM9.68359 41.9714L8.58081 40.9266L7.40859 42.164L8.77214 43.1866L9.68359 41.9714ZM16.2755 29.8565L17.7937 29.9071L17.7961 29.8372L17.792 29.7673L16.2755 29.8565ZM11.8215 25.5807L12.2469 24.1223L12.2388 24.12L11.8215 25.5807ZM9.14911 24.6899L8.51253 26.0691L8.56334 26.0926L8.61573 26.1122L9.14911 24.6899ZM3.44801 8.47735L4.80672 9.15671L4.81394 9.14225L4.82086 9.12765L3.44801 8.47735ZM18.4134 2.59808L17.8292 4.00031L17.8614 4.01376L17.8943 4.0257L18.4134 2.59808ZM53.4171 15.9601C53.4171 17.1746 53.3066 18.4567 53.0814 19.808L56.0782 20.3075C56.3281 18.8082 56.4552 17.3585 56.4552 15.9601H53.4171ZM53.0768 19.8373C51.8224 28.3901 47.7734 36.3061 40.8305 43.5961L43.0305 45.6914C50.3404 38.016 54.7242 29.5413 56.0828 20.2782L53.0768 19.8373ZM42.8419 43.4285L39.2787 40.7561L37.4558 43.1866L41.019 45.859L42.8419 43.4285ZM39.4701 43.0161C43.8282 38.4158 46.3399 34.0328 46.4774 29.9071L43.441 29.8059C43.3409 32.8066 41.458 36.5001 37.2645 40.9266L39.4701 43.0161ZM46.4757 29.7673C46.3934 28.3683 45.8217 27.1499 44.8086 26.1773C43.8289 25.2368 42.4939 24.5783 40.9306 24.1224L40.0799 27.039C41.3671 27.4144 42.1997 27.8843 42.7046 28.369C43.1762 28.8218 43.4063 29.3256 43.4427 29.9457L46.4757 29.7673ZM40.9225 24.12C40.1363 23.8954 39.2846 23.6119 38.3662 23.2675L37.2994 26.1122C38.2814 26.4805 39.2113 26.7908 40.0879 27.0413L40.9225 24.12ZM38.4694 23.3106C36.3671 22.3403 34.876 21.0754 33.9015 19.5512C32.927 18.027 32.4037 16.141 32.4037 13.8221H29.3655C29.3655 16.6105 30.0002 19.0895 31.3418 21.1878C32.6834 23.2862 34.6664 24.9015 37.1962 26.0691L38.4694 23.3106ZM32.4037 13.8221C32.4037 12.1522 32.7669 10.6038 33.4904 9.15671L30.773 7.798C29.8337 9.67655 29.3655 11.6914 29.3655 13.8221H32.4037ZM33.5046 9.12765C34.4794 7.06962 35.7078 5.61597 37.151 4.67046C38.5895 3.72799 40.3387 3.22636 42.465 3.22636V0.188194C39.8404 0.188194 37.4919 0.814919 35.486 2.12914C33.4847 3.44032 31.9219 5.3717 30.7589 7.82705L33.5046 9.12765ZM42.465 3.22636C43.9428 3.22636 45.2866 3.48936 46.5129 4.00031L47.6814 1.19585C46.0571 0.519066 44.3128 0.188194 42.465 0.188194V3.22636ZM46.578 4.0257C48.8861 4.86502 50.5528 6.23487 51.6661 8.13253C52.7955 10.0576 53.4171 12.6337 53.4171 15.9601H56.4552C56.4552 12.2788 55.7703 9.12406 54.2866 6.59517C52.7869 4.03884 50.5342 2.23151 47.6163 1.17046L46.578 4.0257ZM24.7334 15.9601C24.7334 17.1746 24.6229 18.4567 24.3977 19.808L27.3945 20.3075C27.6444 18.8082 27.7715 17.3585 27.7715 15.9601H24.7334ZM24.3931 19.8373C23.1387 28.3901 19.0897 36.3061 12.1468 43.5961L14.3468 45.6914C21.6567 38.016 26.0405 29.5413 27.3991 20.2782L24.3931 19.8373ZM14.1582 43.4285L10.595 40.7561L8.77214 43.1866L12.3353 45.859L14.1582 43.4285ZM10.7864 43.0161C15.1445 38.4158 17.6562 34.0328 17.7937 29.9071L14.7573 29.8059C14.6572 32.8066 12.7743 36.5001 8.58081 40.9266L10.7864 43.0161ZM17.792 29.7673C17.7097 28.3683 17.138 27.1499 16.1249 26.1773C15.1452 25.2368 13.8102 24.5783 12.2469 24.1224L11.3962 27.039C12.6834 27.4144 13.516 27.8843 14.0209 28.369C14.4925 28.8218 14.7226 29.3256 14.759 29.9457L17.792 29.7673ZM12.2388 24.12C11.4526 23.8954 10.6009 23.6119 9.6825 23.2675L8.61573 26.1122C9.59772 26.4805 10.5276 26.7908 11.4042 27.0413L12.2388 24.12ZM9.7857 23.3106C7.68338 22.3403 6.19227 21.0754 5.21781 19.5512C4.24328 18.027 3.71997 16.141 3.71997 13.8221H0.681803C0.681803 16.6105 1.31654 19.0895 2.65808 21.1878C3.99969 23.2862 5.9827 24.9015 8.51253 26.0691L9.7857 23.3106ZM3.71997 13.8221C3.71997 12.1522 4.08317 10.6038 4.80672 9.15671L2.0893 7.798C1.15002 9.67655 0.681803 11.6914 0.681803 13.8221H3.71997ZM4.82086 9.12765C5.79572 7.06962 7.0241 5.61597 8.46726 4.67046C9.90576 3.72799 11.6549 3.22636 13.7813 3.22636V0.188194C11.1567 0.188194 8.80818 0.814919 6.80226 2.12914C4.80099 3.44032 3.23821 5.3717 2.07515 7.82705L4.82086 9.12765ZM13.7813 3.22636C15.2591 3.22636 16.6029 3.48936 17.8292 4.00031L18.9977 1.19585C17.3734 0.519066 15.6291 0.188194 13.7813 0.188194V3.22636ZM17.8943 4.0257C20.2024 4.86502 21.8691 6.23487 22.9824 8.13253C24.1118 10.0576 24.7334 12.6337 24.7334 15.9601H27.7715C27.7715 12.2788 27.0865 9.12406 25.6029 6.59517C24.1032 4.03884 21.8505 2.23151 18.9326 1.17046L17.8943 4.0257Z" fill="white" mask="url(#path-1-outside-1_278_6321)"/>
</svg>
