<svg width="23" height="23" viewBox="0 0 23 23" fill="none" xmlns="http://www.w3.org/2000/svg">
<g id="ri:team-line">
<path id="Vector" d="M11.1188 10.8888C12.0987 10.8888 13.0384 11.2781 13.7312 11.9709C14.4241 12.6638 14.8133 13.6035 14.8133 14.5833V19.0167H13.3355V14.5833C13.3356 14.0179 13.1195 13.4739 12.7316 13.0625C12.3437 12.6511 11.8133 12.4035 11.2489 12.3703L11.1188 12.3666C10.5534 12.3666 10.0094 12.5826 9.59799 12.9705C9.18661 13.3584 8.93901 13.8889 8.90584 14.4533L8.90214 14.5833V19.0167H7.42435V14.5833C7.42435 13.6035 7.81359 12.6638 8.50644 11.9709C9.19929 11.2781 10.139 10.8888 11.1188 10.8888ZM6.316 13.1055C6.52289 13.106 6.72239 13.1292 6.91451 13.175C6.78864 13.5512 6.71383 13.9426 6.6921 14.3388L6.68545 14.5833V14.6469C6.6005 14.6165 6.51216 14.5967 6.4224 14.5878L6.316 14.5833C6.04059 14.5833 5.77505 14.6859 5.57111 14.871C5.36717 15.056 5.23945 15.3104 5.21283 15.5845L5.20765 15.6917V19.0167H3.72986V15.6917C3.72986 15.0058 4.00233 14.348 4.48732 13.863C4.97232 13.378 5.63011 13.1055 6.316 13.1055ZM15.9217 13.1055C16.6076 13.1055 17.2654 13.378 17.7503 13.863C18.2353 14.348 18.5078 15.0058 18.5078 15.6917V19.0167H17.03V15.6917C17.03 15.4163 16.9275 15.1507 16.7424 14.9468C16.5573 14.7429 16.3029 14.6151 16.0288 14.5885L15.9217 14.5833C15.7916 14.5838 15.6685 14.6048 15.5522 14.6461V14.5833C15.5522 14.0912 15.4724 13.6183 15.3246 13.1765C15.5153 13.1299 15.7163 13.1055 15.9217 13.1055ZM6.316 8.67216C6.80592 8.67216 7.27577 8.86678 7.6222 9.2132C7.96862 9.55963 8.16324 10.0295 8.16324 10.5194C8.16324 11.0093 7.96862 11.4792 7.6222 11.8256C7.27577 12.172 6.80592 12.3666 6.316 12.3666C5.82608 12.3666 5.35623 12.172 5.0098 11.8256C4.66338 11.4792 4.46876 11.0093 4.46876 10.5194C4.46876 10.0295 4.66338 9.55963 5.0098 9.2132C5.35623 8.86678 5.82608 8.67216 6.316 8.67216ZM15.9217 8.67216C16.4116 8.67216 16.8814 8.86678 17.2279 9.2132C17.5743 9.55963 17.7689 10.0295 17.7689 10.5194C17.7689 11.0093 17.5743 11.4792 17.2279 11.8256C16.8814 12.172 16.4116 12.3666 15.9217 12.3666C15.4318 12.3666 14.9619 12.172 14.6155 11.8256C14.269 11.4792 14.0744 11.0093 14.0744 10.5194C14.0744 10.0295 14.269 9.55963 14.6155 9.2132C14.9619 8.86678 15.4318 8.67216 15.9217 8.67216ZM6.316 10.15C6.21802 10.15 6.12405 10.1889 6.05476 10.2582C5.98548 10.3274 5.94655 10.4214 5.94655 10.5194C5.94655 10.6174 5.98548 10.7114 6.05476 10.7806C6.12405 10.8499 6.21802 10.8888 6.316 10.8888C6.41398 10.8888 6.50795 10.8499 6.57724 10.7806C6.64653 10.7114 6.68545 10.6174 6.68545 10.5194C6.68545 10.4214 6.64653 10.3274 6.57724 10.2582C6.50795 10.1889 6.41398 10.15 6.316 10.15ZM15.9217 10.15C15.8237 10.15 15.7297 10.1889 15.6604 10.2582C15.5911 10.3274 15.5522 10.4214 15.5522 10.5194C15.5522 10.6174 15.5911 10.7114 15.6604 10.7806C15.7297 10.8499 15.8237 10.8888 15.9217 10.8888C16.0197 10.8888 16.1136 10.8499 16.1829 10.7806C16.2522 10.7114 16.2911 10.6174 16.2911 10.5194C16.2911 10.4214 16.2522 10.3274 16.1829 10.2582C16.1136 10.1889 16.0197 10.15 15.9217 10.15ZM11.1188 4.23877C11.9027 4.23877 12.6545 4.55016 13.2088 5.10444C13.763 5.65872 14.0744 6.41049 14.0744 7.19436C14.0744 7.97823 13.763 8.73 13.2088 9.28428C12.6545 9.83856 11.9027 10.15 11.1188 10.15C10.335 10.15 9.5832 9.83856 9.02892 9.28428C8.47464 8.73 8.16324 7.97823 8.16324 7.19436C8.16324 6.41049 8.47464 5.65872 9.02892 5.10444C9.5832 4.55016 10.335 4.23877 11.1188 4.23877ZM11.1188 5.71656C10.7269 5.71656 10.351 5.87226 10.0739 6.1494C9.79674 6.42654 9.64104 6.80242 9.64104 7.19436C9.64104 7.5863 9.79674 7.96218 10.0739 8.23932C10.351 8.51646 10.7269 8.67216 11.1188 8.67216C11.5108 8.67216 11.8867 8.51646 12.1638 8.23932C12.4409 7.96218 12.5966 7.5863 12.5966 7.19436C12.5966 6.80242 12.4409 6.42654 12.1638 6.1494C11.8867 5.87226 11.5108 5.71656 11.1188 5.71656Z" fill="white"/>
</g>
</svg>
