<svg width="22" height="22" viewBox="0 0 22 22" fill="none" xmlns="http://www.w3.org/2000/svg">
<g id="Group 1000005473">
<g id="Group">
<path id="Vector" d="M1.7845 9.29377C1.56045 9.51759 1.38271 9.78338 1.26145 10.0759C1.14018 10.3685 1.07776 10.6821 1.07776 10.9988C1.07776 11.3155 1.14018 11.6291 1.26145 11.9216C1.38271 12.2142 1.56045 12.4799 1.7845 12.7038L9.37251 20.2918C9.59633 20.5158 9.86211 20.6936 10.1547 20.8148C10.4472 20.9361 10.7608 20.9985 11.0775 20.9985C11.3942 20.9985 11.7078 20.9361 12.0003 20.8148C12.2929 20.6936 12.5587 20.5158 12.7825 20.2918L20.3705 12.7038C20.5946 12.4799 20.7723 12.2142 20.8936 11.9216C21.0148 11.6291 21.0773 11.3155 21.0773 10.9988C21.0773 10.6821 21.0148 10.3685 20.8936 10.0759C20.7723 9.78338 20.5946 9.51759 20.3705 9.29377L12.7825 1.70577C12.5587 1.48172 12.2929 1.30398 12.0003 1.18271C11.7078 1.06144 11.3942 0.999023 11.0775 0.999023C10.7608 0.999023 10.4472 1.06144 10.1547 1.18271C9.86211 1.30398 9.59633 1.48172 9.37251 1.70577L1.7845 9.29377Z" stroke="white" stroke-linecap="round" stroke-linejoin="round"/>
<path id="Vector_2" d="M8.07751 6.49878H14.0775M8.07751 9.27678H14.0775M12.3275 16.4988L8.07751 12.0548H9.57751C12.9115 12.0548 12.9115 6.49878 9.57751 6.49878" stroke="white" stroke-linecap="round" stroke-linejoin="round"/>
</g>
</g>
</svg>
