<svg width="20" height="29" viewBox="0 0 20 29" fill="none" xmlns="http://www.w3.org/2000/svg">
<path d="M19.2062 7.51604V9.49787C19.2062 9.67921 19.1442 9.82817 19.0202 9.94475C18.8962 10.0613 18.7377 10.1196 18.5447 10.1196H15.0718C14.7548 11.9849 13.8659 13.5004 12.4051 14.6662C10.9442 15.8319 9.0424 16.5444 6.69954 16.8034C9.00105 19.1091 12.1639 22.5805 16.1881 27.2177C16.381 27.425 16.4086 27.6452 16.2708 27.8783C16.1605 28.1115 15.9607 28.2281 15.6713 28.2281H11.6402C11.4197 28.2281 11.2474 28.1504 11.1234 27.9949C6.90626 23.2411 3.47467 19.543 0.828628 16.9006C0.704595 16.784 0.642578 16.6415 0.642578 16.4731V14.0056C0.642578 13.8372 0.70804 13.6914 0.838964 13.5684C0.969889 13.4453 1.12493 13.3838 1.30409 13.3838H3.61938C5.43854 13.3838 6.90282 13.1053 8.01223 12.5483C9.12164 11.9913 9.82794 11.1818 10.1311 10.1196H1.30409C1.11115 10.1196 0.952662 10.0613 0.828628 9.94475C0.704595 9.82817 0.642578 9.67921 0.642578 9.49787V7.51604C0.642578 7.3347 0.704595 7.18574 0.828628 7.06916C0.952662 6.95258 1.11115 6.89429 1.30409 6.89429H9.84172C9.05618 5.43059 7.20946 4.69874 4.30156 4.69874H1.30409C1.12493 4.69874 0.969889 4.63721 0.838964 4.51416C0.70804 4.3911 0.642578 4.24538 0.642578 4.07699V1.49284C0.642578 1.3115 0.704595 1.16254 0.828628 1.04596C0.952662 0.929383 1.11115 0.871094 1.30409 0.871094H18.5034C18.6963 0.871094 18.8548 0.929383 18.9788 1.04596C19.1029 1.16254 19.1649 1.3115 19.1649 1.49284V3.47467C19.1649 3.65601 19.1029 3.80497 18.9788 3.92155C18.8548 4.03813 18.6963 4.09642 18.5034 4.09642H13.6868C14.3345 4.88656 14.7755 5.81918 15.0098 6.89429H18.5447C18.7377 6.89429 18.8962 6.95258 19.0202 7.06916C19.1442 7.18574 19.2062 7.3347 19.2062 7.51604Z" fill="#316054"/>
</svg>
