<svg width="18" height="26" viewBox="0 0 18 26" fill="none" xmlns="http://www.w3.org/2000/svg">
<path d="M17.287 6.53716V8.37034C17.287 8.53808 17.2296 8.67587 17.1149 8.7837C17.0002 8.89154 16.8536 8.94545 16.6751 8.94545H13.4627C13.1695 10.6708 12.3472 12.0726 10.996 13.151C9.6447 14.2293 7.8855 14.8883 5.71838 15.1279C7.84726 17.2606 10.7729 20.4717 14.4952 24.7611C14.6737 24.9528 14.6992 25.1565 14.5717 25.3722C14.4697 25.5878 14.2849 25.6957 14.0172 25.6957H10.2885C10.0845 25.6957 9.92515 25.6238 9.81042 25.48C5.90959 21.0828 2.73539 17.662 0.287818 15.2178C0.173088 15.11 0.115723 14.9782 0.115723 14.8224V12.5399C0.115723 12.3842 0.176275 12.2494 0.297379 12.1355C0.418483 12.0217 0.561895 11.9648 0.727617 11.9648H2.86925C4.55195 11.9648 5.90641 11.7072 6.9326 11.192C7.9588 10.6768 8.61213 9.92794 8.89258 8.94545H0.727617C0.549148 8.94545 0.402548 8.89154 0.287818 8.7837C0.173088 8.67587 0.115723 8.53808 0.115723 8.37034V6.53716C0.115723 6.36942 0.173088 6.23163 0.287818 6.1238C0.402548 6.01596 0.549148 5.96205 0.727617 5.96205H8.62487C7.89825 4.60813 6.19005 3.93117 3.50026 3.93117H0.727617C0.561895 3.93117 0.418483 3.87426 0.297379 3.76044C0.176275 3.64661 0.115723 3.51182 0.115723 3.35606V0.965739C0.115723 0.797998 0.173088 0.66021 0.287818 0.552376C0.402548 0.444542 0.549148 0.390625 0.727617 0.390625H16.6369C16.8153 0.390625 16.9619 0.444542 17.0767 0.552376C17.1914 0.66021 17.2488 0.797998 17.2488 0.965739V2.79892C17.2488 2.96666 17.1914 3.10445 17.0767 3.21228C16.9619 3.32011 16.8153 3.37403 16.6369 3.37403H12.1815C12.7807 4.10491 13.1886 4.96758 13.4053 5.96205H16.6751C16.8536 5.96205 17.0002 6.01596 17.1149 6.1238C17.2296 6.23163 17.287 6.36942 17.287 6.53716Z" fill="#F8AF41"/>
</svg>
