<svg width="20" height="28" viewBox="0 0 20 28" fill="none" xmlns="http://www.w3.org/2000/svg">
<path id="Vector" d="M19.2062 6.84221V8.82404C19.2062 9.00538 19.1442 9.15434 19.0202 9.27092C18.8962 9.3875 18.7377 9.44579 18.5447 9.44579H15.0718C14.7548 11.311 13.8659 12.8266 12.4051 13.9923C10.9442 15.1581 9.0424 15.8705 6.69954 16.1296C9.00105 18.4353 12.1639 21.9067 16.1881 26.5439C16.381 26.7512 16.4086 26.9714 16.2708 27.2045C16.1605 27.4377 15.9607 27.5542 15.6713 27.5542H11.6402C11.4197 27.5542 11.2474 27.4765 11.1234 27.3211C6.90626 22.5673 3.47467 18.8692 0.828628 16.2267C0.704595 16.1102 0.642578 15.9677 0.642578 15.7993V13.3317C0.642578 13.1633 0.70804 13.0176 0.838964 12.8946C0.969889 12.7715 1.12493 12.71 1.30409 12.71H3.61938C5.43854 12.71 6.90282 12.4315 8.01223 11.8745C9.12164 11.3175 9.82794 10.5079 10.1311 9.44579H1.30409C1.11115 9.44579 0.952662 9.3875 0.828628 9.27092C0.704595 9.15434 0.642578 9.00538 0.642578 8.82404V6.84221C0.642578 6.66087 0.704595 6.51191 0.828628 6.39533C0.952662 6.27875 1.11115 6.22046 1.30409 6.22046H9.84172C9.05618 4.75676 7.20946 4.02491 4.30156 4.02491H1.30409C1.12493 4.02491 0.969889 3.96338 0.838964 3.84033C0.70804 3.71727 0.642578 3.57155 0.642578 3.40316V0.819015C0.642578 0.637672 0.704595 0.488711 0.828628 0.372133C0.952662 0.255555 1.11115 0.197266 1.30409 0.197266H18.5034C18.6963 0.197266 18.8548 0.255555 18.9788 0.372133C19.1029 0.488711 19.1649 0.637672 19.1649 0.819015V2.80084C19.1649 2.98219 19.1029 3.13115 18.9788 3.24772C18.8548 3.3643 18.6963 3.42259 18.5034 3.42259H13.6868C14.3345 4.21273 14.7755 5.14536 15.0098 6.22046H18.5447C18.7377 6.22046 18.8962 6.27875 19.0202 6.39533C19.1442 6.51191 19.2062 6.66087 19.2062 6.84221Z" fill="#131313"/>
</svg>
