<svg width="16" height="11" viewBox="0 0 16 11" fill="none" xmlns="http://www.w3.org/2000/svg">
<path d="M9.95064 0.261475C11.3299 0.261475 12.6527 0.809389 13.628 1.78468C14.6033 2.75997 15.1512 4.08276 15.1512 5.46203C15.1512 6.8413 14.6033 8.16408 13.628 9.13937C12.6527 10.1147 11.3299 10.6626 9.95064 10.6626C8.57137 10.6626 7.24858 10.1147 6.27329 9.13937C5.298 8.16408 4.75009 6.8413 4.75009 5.46203C4.75009 4.08276 5.298 2.75997 6.27329 1.78468C7.24858 0.809389 8.57137 0.261475 9.95064 0.261475ZM9.95064 1.56161C8.91618 1.56161 7.9241 1.97255 7.19263 2.70402C6.46116 3.43549 6.05022 4.42757 6.05022 5.46203C6.05022 6.49648 6.46116 7.48857 7.19263 8.22004C7.9241 8.95151 8.91618 9.36244 9.95064 9.36244C10.9851 9.36244 11.9772 8.95151 12.7086 8.22004C13.4401 7.48857 13.8511 6.49648 13.8511 5.46203C13.8511 4.42757 13.4401 3.43549 12.7086 2.70402C11.9772 1.97255 10.9851 1.56161 9.95064 1.56161ZM9.30057 2.86175H10.2757V5.31901L11.7903 6.83367L11.1013 7.52275L9.30057 5.72206V2.86175ZM1.49974 9.36244C1.32733 9.36244 1.16198 9.29395 1.04007 9.17204C0.91816 9.05013 0.84967 8.88478 0.84967 8.71237C0.84967 8.53996 0.91816 8.37462 1.04007 8.25271C1.16198 8.13079 1.32733 8.0623 1.49974 8.0623H3.9895C4.19103 8.52385 4.45105 8.9594 4.75009 9.36244H1.49974ZM2.14981 6.1121C1.9774 6.1121 1.81205 6.04361 1.69014 5.9217C1.56823 5.79978 1.49974 5.63444 1.49974 5.46203C1.49974 5.28962 1.56823 5.12427 1.69014 5.00236C1.81205 4.88045 1.9774 4.81196 2.14981 4.81196H3.48245L3.44995 5.46203L3.48245 6.1121H2.14981ZM2.79988 2.86175C2.62747 2.86175 2.46212 2.79326 2.34021 2.67135C2.2183 2.54944 2.14981 2.38409 2.14981 2.21168C2.14981 2.03927 2.2183 1.87393 2.34021 1.75201C2.46212 1.6301 2.62747 1.56161 2.79988 1.56161H4.75009C4.45105 1.96466 4.19103 2.4002 3.9895 2.86175H2.79988Z" fill="white"/>
</svg>
