<svg width="14" height="19" viewBox="0 0 14 19" fill="none" xmlns="http://www.w3.org/2000/svg">
<path d="M9.30769 5.55841H6.23127M9.30769 9.20513H6.23127M9.30769 12.8519H6.23127M13 13.7635V7.26431C13 5.58942 12.3293 3.98429 11.1376 2.80735V2.80735C9.96516 1.64935 8.38361 1 6.73569 1H4.69231C2.95138 1 2.08185 1 1.54092 1.53425C1 2.06849 1 2.92729 1 4.64672V13.7635C1 15.483 1 16.3418 1.54092 16.876C2.08185 17.4103 2.95138 17.4103 4.69231 17.4103H9.30769C11.0486 17.4103 11.9182 17.4103 12.4591 16.876C13 16.3418 13 15.483 13 13.7635Z" stroke="white" stroke-linecap="round" stroke-linejoin="round"/>
<circle cx="3.74258" cy="6.47988" r="0.995506" fill="white"/>
<circle cx="3.74258" cy="10.4613" r="0.995506" fill="white"/>
<circle cx="3.74258" cy="13.9457" r="0.995506" fill="white"/>
<path d="M12.4263 7.1647L12.8442 6.7468L12.8555 6.75811L12.6624 6.95115L12.8385 7.12722L13.0315 6.93418L13.0429 6.94549L12.625 7.36339L12.6136 7.35208L12.8272 7.13853L12.6511 6.96246L12.4376 7.17601L12.4263 7.1647ZM12.7265 7.46495L13.172 7.01947L13.1833 7.03078L12.9471 7.26696L12.974 7.29383L13.2116 7.24999L13.225 7.26342L12.9768 7.30938L12.8792 7.61768L12.8672 7.60566L12.962 7.30443L12.9358 7.27827L12.7378 7.47626L12.7265 7.46495Z" fill="black" fill-opacity="0.4"/>
<path d="M3.44754 18.002C3.43954 18.002 3.43154 18 3.42354 17.996C3.41554 17.992 3.41154 17.9873 3.41154 17.982C3.41154 17.978 3.41421 17.9713 3.41954 17.962C3.42488 17.9533 3.42721 17.9467 3.42654 17.942L3.42354 17.854L3.41654 17.581L3.41454 17.46C3.41388 17.386 3.41221 17.3397 3.40954 17.321C3.40821 17.3137 3.40554 17.3053 3.40154 17.296C3.39688 17.2833 3.39454 17.2743 3.39454 17.269C3.39454 17.253 3.41988 17.245 3.47054 17.245H3.47554C3.50954 17.245 3.53888 17.2567 3.56354 17.28C3.58288 17.298 3.60021 17.3263 3.61554 17.365C3.62621 17.3957 3.63421 17.43 3.63954 17.468C3.64221 17.488 3.64454 17.5187 3.64654 17.56V17.591C3.64654 17.6323 3.64088 17.6773 3.62954 17.726C3.61888 17.774 3.60354 17.819 3.58354 17.861C3.57154 17.8877 3.55588 17.9117 3.53654 17.933C3.51788 17.9543 3.49988 17.9713 3.48254 17.984C3.46521 17.996 3.45354 18.002 3.44754 18.002ZM3.46254 17.951C3.48721 17.9383 3.50921 17.92 3.52854 17.896C3.54788 17.8713 3.56321 17.8443 3.57454 17.815C3.58454 17.7903 3.59288 17.7623 3.59954 17.731C3.60621 17.699 3.61088 17.6693 3.61354 17.642C3.61554 17.618 3.61654 17.595 3.61654 17.573C3.61654 17.3783 3.56288 17.281 3.45554 17.281C3.44154 17.281 3.43454 17.2847 3.43454 17.292C3.43454 17.3153 3.43588 17.343 3.43854 17.375C3.44121 17.4077 3.44254 17.4353 3.44254 17.458C3.44254 17.4947 3.44521 17.5583 3.45054 17.649C3.45521 17.7277 3.45754 17.791 3.45754 17.839V17.951H3.46254ZM3.8034 18.013C3.7914 18.013 3.78474 18.006 3.7834 17.992V17.979C3.78407 17.9757 3.7844 17.9717 3.7844 17.967L3.7804 17.963C3.78574 17.949 3.7884 17.9353 3.7884 17.922C3.7884 17.9067 3.7874 17.8847 3.7854 17.856L3.7834 17.79C3.7834 17.7567 3.7844 17.7067 3.7864 17.64C3.78907 17.5807 3.7904 17.5303 3.7904 17.489L3.7884 17.429C3.78707 17.411 3.7864 17.391 3.7864 17.369C3.7864 17.359 3.78874 17.352 3.7934 17.348C3.79807 17.3433 3.8054 17.341 3.8154 17.341C3.82207 17.341 3.8274 17.343 3.8314 17.347C3.83274 17.3477 3.8424 17.349 3.8604 17.351C3.87707 17.353 3.8914 17.356 3.9034 17.36C3.91607 17.364 3.9224 17.369 3.9224 17.375C3.9224 17.3817 3.91607 17.3883 3.9034 17.395C3.8654 17.3823 3.8384 17.376 3.8224 17.376L3.8174 17.382C3.81807 17.388 3.8184 17.4023 3.8184 17.425C3.8184 17.4537 3.81774 17.4793 3.8164 17.502C3.81574 17.5253 3.8154 17.5513 3.8154 17.58C3.8154 17.5987 3.82007 17.608 3.8294 17.608L3.8454 17.607C3.85074 17.6063 3.8564 17.606 3.8624 17.606C3.8884 17.606 3.9014 17.612 3.9014 17.624C3.9014 17.6313 3.89974 17.6377 3.8964 17.643C3.89307 17.6477 3.88807 17.65 3.8814 17.65C3.8714 17.65 3.86374 17.6473 3.8584 17.642L3.8264 17.637H3.8214L3.8164 17.642V17.645C3.81774 17.6563 3.8184 17.6827 3.8184 17.724C3.8184 17.75 3.81807 17.7737 3.8174 17.795L3.8164 17.866C3.8164 17.892 3.8174 17.9187 3.8194 17.946C3.82007 17.9613 3.8234 17.9717 3.8294 17.977C3.8354 17.9817 3.8464 17.984 3.8624 17.984L3.8804 17.983C3.8864 17.9823 3.89307 17.982 3.9004 17.982C3.91974 17.982 3.9294 17.9863 3.9294 17.995C3.9294 18.007 3.91474 18.013 3.8854 18.013H3.8034ZM4.11826 18.003C4.11826 17.9517 4.10993 17.876 4.09326 17.776C4.07726 17.676 4.05593 17.5667 4.02926 17.448L4.02126 17.417L4.00826 17.371C4.00426 17.357 4.00226 17.3483 4.00226 17.345C4.00226 17.343 4.0036 17.3407 4.00626 17.338C4.0096 17.3347 4.0126 17.333 4.01526 17.333C4.0246 17.333 4.03193 17.3433 4.03726 17.364C4.03993 17.3727 4.04226 17.3827 4.04426 17.394C4.04693 17.4047 4.04893 17.4123 4.05026 17.417C4.0516 17.427 4.0526 17.433 4.05326 17.435C4.06593 17.4863 4.0736 17.519 4.07626 17.533L4.08626 17.584L4.09526 17.632L4.10426 17.683C4.10626 17.701 4.10893 17.7167 4.11226 17.73L4.12726 17.828C4.12726 17.8307 4.1296 17.8477 4.13426 17.879L4.14126 17.928C4.1546 17.8847 4.16593 17.8187 4.17526 17.73C4.1846 17.6473 4.19793 17.5643 4.21526 17.481C4.22993 17.409 4.24026 17.3567 4.24626 17.324L4.25926 17.319C4.26193 17.3197 4.26426 17.321 4.26626 17.323C4.26893 17.325 4.27026 17.327 4.27026 17.329C4.27026 17.3437 4.26726 17.3637 4.26126 17.389L4.25526 17.415L4.23826 17.494C4.22826 17.5373 4.22126 17.5707 4.21726 17.594C4.21393 17.6173 4.20993 17.651 4.20526 17.695L4.20326 17.718C4.19993 17.754 4.19726 17.7783 4.19526 17.791C4.19393 17.8037 4.19026 17.82 4.18426 17.84C4.17893 17.86 4.1746 17.8777 4.17126 17.893L4.16926 17.916C4.16793 17.9393 4.16526 17.96 4.16126 17.978C4.15593 18.0007 4.14526 18.012 4.12926 18.012L4.11826 18.003ZM4.14026 17.931L4.13926 17.933L4.14026 17.935V17.931ZM4.41571 18.013C4.40371 18.013 4.39704 18.006 4.39571 17.992V17.979C4.39637 17.9757 4.39671 17.9717 4.39671 17.967L4.39271 17.963C4.39804 17.949 4.40071 17.9353 4.40071 17.922C4.40071 17.9067 4.39971 17.8847 4.39771 17.856L4.39571 17.79C4.39571 17.7567 4.39671 17.7067 4.39871 17.64C4.40137 17.5807 4.40271 17.5303 4.40271 17.489L4.40071 17.429C4.39937 17.411 4.39871 17.391 4.39871 17.369C4.39871 17.359 4.40104 17.352 4.40571 17.348C4.41037 17.3433 4.41771 17.341 4.42771 17.341C4.43437 17.341 4.43971 17.343 4.44371 17.347C4.44504 17.3477 4.45471 17.349 4.47271 17.351C4.48937 17.353 4.50371 17.356 4.51571 17.36C4.52837 17.364 4.53471 17.369 4.53471 17.375C4.53471 17.3817 4.52837 17.3883 4.51571 17.395C4.47771 17.3823 4.45071 17.376 4.43471 17.376L4.42971 17.382C4.43037 17.388 4.43071 17.4023 4.43071 17.425C4.43071 17.4537 4.43004 17.4793 4.42871 17.502C4.42804 17.5253 4.42771 17.5513 4.42771 17.58C4.42771 17.5987 4.43237 17.608 4.44171 17.608L4.45771 17.607C4.46304 17.6063 4.46871 17.606 4.47471 17.606C4.50071 17.606 4.51371 17.612 4.51371 17.624C4.51371 17.6313 4.51204 17.6377 4.50871 17.643C4.50537 17.6477 4.50037 17.65 4.49371 17.65C4.48371 17.65 4.47604 17.6473 4.47071 17.642L4.43871 17.637H4.43371L4.42871 17.642V17.645C4.43004 17.6563 4.43071 17.6827 4.43071 17.724C4.43071 17.75 4.43037 17.7737 4.42971 17.795L4.42871 17.866C4.42871 17.892 4.42971 17.9187 4.43171 17.946C4.43237 17.9613 4.43571 17.9717 4.44171 17.977C4.44771 17.9817 4.45871 17.984 4.47471 17.984L4.49271 17.983C4.49871 17.9823 4.50537 17.982 4.51271 17.982C4.53204 17.982 4.54171 17.9863 4.54171 17.995C4.54171 18.007 4.52704 18.013 4.49771 18.013H4.41571ZM4.67057 18.013C4.66123 18.013 4.65557 18.0053 4.65357 17.99C4.6549 17.986 4.65557 17.975 4.65557 17.957C4.65557 17.8957 4.65657 17.8047 4.65857 17.684C4.66057 17.564 4.66157 17.4773 4.66157 17.424L4.66357 17.388L4.66657 17.358C4.66657 17.3533 4.6689 17.351 4.67357 17.351C4.6769 17.351 4.68157 17.352 4.68757 17.354L4.69057 17.355C4.69057 17.3697 4.69023 17.383 4.68957 17.395V17.434V17.543C4.69023 17.575 4.69057 17.6113 4.69057 17.652C4.6899 17.6553 4.68957 17.6627 4.68957 17.674L4.68857 17.695C4.6879 17.7083 4.68757 17.722 4.68757 17.736C4.68757 17.7513 4.6879 17.7653 4.68857 17.778L4.68957 17.821L4.68657 17.829L4.68757 17.828C4.68757 17.83 4.68723 17.8313 4.68657 17.832V17.836C4.68657 17.8413 4.68757 17.846 4.68957 17.85L4.68657 17.946V17.952C4.68657 17.9633 4.6869 17.97 4.68757 17.972C4.68757 17.9753 4.68923 17.977 4.69257 17.977L4.74457 17.979C4.7599 17.979 4.77023 17.9793 4.77557 17.98C4.78157 17.98 4.78523 17.98 4.78657 17.98H4.78957C4.7929 17.98 4.79623 17.982 4.79957 17.986C4.8029 17.9893 4.80457 17.993 4.80457 17.997C4.80457 18.005 4.79923 18.0093 4.78857 18.01C4.77723 18.0093 4.74957 18.009 4.70557 18.009L4.70757 18.01C4.7009 18.01 4.69457 18.0103 4.68857 18.011C4.68323 18.0123 4.67723 18.013 4.67057 18.013ZM5.00559 18.019C4.92759 18.019 4.88859 17.8963 4.88859 17.651V17.616C4.88859 17.43 4.91259 17.337 4.96059 17.337C4.96392 17.337 4.96859 17.338 4.97459 17.34C4.99592 17.3473 5.01692 17.352 5.03759 17.354C5.05026 17.3567 5.06292 17.3697 5.07559 17.393C5.08959 17.417 5.09992 17.4487 5.10659 17.488C5.11392 17.5273 5.11759 17.5677 5.11759 17.609L5.11559 17.614C5.11559 17.636 5.11592 17.6557 5.11659 17.673L5.11759 17.733C5.11759 17.767 5.11626 17.7977 5.11359 17.825C5.10959 17.8663 5.10292 17.902 5.09359 17.932C5.08759 17.95 5.08059 17.965 5.07259 17.977C5.06526 17.989 5.05592 17.999 5.04459 18.007C5.03392 18.015 5.02092 18.019 5.00559 18.019ZM5.00159 17.99C5.02759 17.99 5.04692 17.9717 5.05959 17.935C5.07226 17.8977 5.07992 17.8597 5.08259 17.821C5.08526 17.781 5.08659 17.749 5.08659 17.725C5.08659 17.6983 5.08459 17.659 5.08059 17.607C5.07726 17.549 5.07559 17.5097 5.07559 17.489L5.07159 17.481L5.07359 17.476C5.07359 17.4467 5.06526 17.4213 5.04859 17.4C5.03259 17.3787 5.01292 17.368 4.98959 17.368C4.95892 17.368 4.94059 17.3827 4.93459 17.412C4.93326 17.422 4.93192 17.4363 4.93059 17.455C4.93059 17.5043 4.92859 17.538 4.92459 17.556C4.92459 17.566 4.92359 17.5817 4.92159 17.603L4.91959 17.65C4.91959 17.6647 4.91992 17.6777 4.92059 17.689L4.92159 17.729C4.92159 17.7603 4.92426 17.7963 4.92959 17.837C4.93359 17.867 4.93826 17.8923 4.94359 17.913C4.94892 17.9337 4.95659 17.9513 4.96659 17.966C4.97659 17.982 4.98826 17.99 5.00159 17.99ZM5.26129 18.012C5.25396 17.97 5.25029 17.922 5.25029 17.868C5.25029 17.8467 5.25129 17.8157 5.25329 17.775L5.25529 17.682C5.25063 17.6727 5.24829 17.665 5.24829 17.659C5.25496 17.6483 5.25829 17.6177 5.25829 17.567C5.25829 17.4457 5.25663 17.381 5.25329 17.373C5.25929 17.3563 5.26396 17.348 5.26729 17.348H5.31129C5.31863 17.348 5.32896 17.3517 5.34229 17.359C5.35629 17.3657 5.36796 17.373 5.37729 17.381C5.39396 17.3963 5.40229 17.4357 5.40229 17.499C5.40229 17.533 5.40129 17.559 5.39929 17.577C5.39796 17.5897 5.39563 17.5997 5.39229 17.607C5.38963 17.6143 5.38529 17.6227 5.37929 17.632C5.36929 17.6473 5.35229 17.6607 5.32829 17.672C5.31829 17.6773 5.30429 17.6827 5.28629 17.688V17.807C5.28629 17.8237 5.28796 17.8563 5.29129 17.905L5.29329 17.937L5.29529 18.002C5.29529 18.014 5.28896 18.02 5.27629 18.02L5.26129 18.012ZM5.29329 17.654C5.31263 17.654 5.32896 17.645 5.34229 17.627C5.34696 17.6203 5.35129 17.6113 5.35529 17.6C5.35929 17.5887 5.36196 17.5777 5.36329 17.567C5.36729 17.5477 5.36929 17.5253 5.36929 17.5V17.473C5.36929 17.4637 5.36896 17.4547 5.36829 17.446C5.36763 17.4373 5.36629 17.429 5.36429 17.421C5.36163 17.4123 5.35796 17.4053 5.35329 17.4C5.34929 17.394 5.34363 17.389 5.33629 17.385C5.32829 17.381 5.31863 17.379 5.30729 17.379C5.29929 17.379 5.29363 17.381 5.29029 17.385C5.28696 17.389 5.28529 17.396 5.28529 17.406C5.28529 17.422 5.28629 17.446 5.28829 17.478L5.29029 17.55C5.29029 17.5673 5.28963 17.583 5.28829 17.597L5.28629 17.644L5.29329 17.654ZM5.52899 18.013C5.51699 18.013 5.51032 18.006 5.50899 17.992V17.979C5.50965 17.9757 5.50999 17.9717 5.50999 17.967L5.50599 17.963C5.51132 17.949 5.51399 17.9353 5.51399 17.922C5.51399 17.9067 5.51299 17.8847 5.51099 17.856L5.50899 17.79C5.50899 17.7567 5.50999 17.7067 5.51199 17.64C5.51465 17.5807 5.51599 17.5303 5.51599 17.489L5.51399 17.429C5.51265 17.411 5.51199 17.391 5.51199 17.369C5.51199 17.359 5.51432 17.352 5.51899 17.348C5.52365 17.3433 5.53099 17.341 5.54099 17.341C5.54765 17.341 5.55299 17.343 5.55699 17.347C5.55832 17.3477 5.56799 17.349 5.58599 17.351C5.60265 17.353 5.61699 17.356 5.62899 17.36C5.64165 17.364 5.64799 17.369 5.64799 17.375C5.64799 17.3817 5.64165 17.3883 5.62899 17.395C5.59099 17.3823 5.56399 17.376 5.54799 17.376L5.54299 17.382C5.54365 17.388 5.54399 17.4023 5.54399 17.425C5.54399 17.4537 5.54332 17.4793 5.54199 17.502C5.54132 17.5253 5.54099 17.5513 5.54099 17.58C5.54099 17.5987 5.54565 17.608 5.55499 17.608L5.57099 17.607C5.57632 17.6063 5.58199 17.606 5.58799 17.606C5.61399 17.606 5.62699 17.612 5.62699 17.624C5.62699 17.6313 5.62532 17.6377 5.62199 17.643C5.61865 17.6477 5.61365 17.65 5.60699 17.65C5.59699 17.65 5.58932 17.6473 5.58399 17.642L5.55199 17.637H5.54699L5.54199 17.642V17.645C5.54332 17.6563 5.54399 17.6827 5.54399 17.724C5.54399 17.75 5.54365 17.7737 5.54299 17.795L5.54199 17.866C5.54199 17.892 5.54299 17.9187 5.54499 17.946C5.54565 17.9613 5.54899 17.9717 5.55499 17.977C5.56099 17.9817 5.57199 17.984 5.58799 17.984L5.60599 17.983C5.61199 17.9823 5.61865 17.982 5.62599 17.982C5.64532 17.982 5.65499 17.9863 5.65499 17.995C5.65499 18.007 5.64032 18.013 5.61099 18.013H5.52899ZM5.78485 18.005C5.77951 18.005 5.77685 17.996 5.77685 17.978C5.77418 17.932 5.77285 17.874 5.77285 17.804C5.77285 17.76 5.77318 17.7207 5.77385 17.686L5.77485 17.568C5.77485 17.5173 5.77351 17.4547 5.77085 17.38C5.76485 17.3747 5.76185 17.368 5.76185 17.36C5.76185 17.3553 5.76451 17.3507 5.76985 17.346C5.77585 17.3407 5.78118 17.338 5.78585 17.338C5.79118 17.338 5.79618 17.3407 5.80085 17.346L5.81185 17.355C5.81585 17.357 5.82351 17.359 5.83485 17.361C5.84618 17.363 5.85418 17.365 5.85885 17.367C5.86885 17.3723 5.88218 17.3827 5.89885 17.398C5.91485 17.414 5.92585 17.424 5.93185 17.428L5.93085 17.43C5.93151 17.434 5.93651 17.4427 5.94585 17.456C5.95318 17.466 5.95918 17.4753 5.96385 17.484C5.97451 17.5147 5.97985 17.5543 5.97985 17.603C5.97985 17.6117 5.97951 17.6193 5.97885 17.626V17.65V17.658L5.97785 17.668C5.97785 17.6807 5.97985 17.6907 5.98385 17.698C5.97985 17.7193 5.97485 17.7597 5.96885 17.819C5.96685 17.8363 5.96351 17.8547 5.95885 17.874C5.95418 17.8933 5.94851 17.9093 5.94185 17.922C5.92451 17.9547 5.89551 17.9823 5.85485 18.005H5.78485ZM5.85085 17.976C5.85551 17.9707 5.85985 17.9663 5.86385 17.963C5.86385 17.963 5.86618 17.9613 5.87085 17.958L5.87885 17.951C5.92551 17.909 5.94885 17.829 5.94885 17.711V17.692C5.94818 17.6867 5.94785 17.681 5.94785 17.675L5.94385 17.574C5.94185 17.5353 5.93018 17.4953 5.90885 17.454C5.89885 17.4333 5.88518 17.4167 5.86785 17.404C5.85118 17.3907 5.83351 17.384 5.81485 17.384C5.80685 17.384 5.80285 17.4457 5.80285 17.569C5.80285 17.7117 5.80685 17.836 5.81485 17.942L5.81385 17.961L5.81785 17.963L5.81985 17.976H5.85085ZM6.3244 18.006C6.29974 18.006 6.2874 18.0013 6.2874 17.992C6.2874 17.964 6.2884 17.9217 6.2904 17.865L6.2924 17.739C6.2924 17.6923 6.2914 17.6227 6.2894 17.53C6.28674 17.448 6.2854 17.3787 6.2854 17.322C6.2854 17.274 6.29407 17.25 6.3114 17.25C6.35607 17.25 6.3904 17.2643 6.4144 17.293C6.43907 17.3217 6.4514 17.3597 6.4514 17.407C6.4514 17.4603 6.43007 17.5157 6.3874 17.573C6.42274 17.6083 6.4474 17.642 6.4614 17.674C6.47607 17.706 6.4834 17.7443 6.4834 17.789C6.4834 17.8163 6.4824 17.8383 6.4804 17.855C6.47907 17.871 6.47607 17.886 6.4714 17.9C6.46674 17.9147 6.46007 17.9273 6.4514 17.938C6.4434 17.9487 6.4324 17.9587 6.4184 17.968C6.40507 17.9773 6.38774 17.9867 6.3664 17.996C6.3584 17.998 6.35174 17.9997 6.3464 18.001C6.33774 18.0043 6.33107 18.006 6.3264 18.006H6.3244ZM6.3234 17.568C6.33807 17.568 6.35207 17.5617 6.3654 17.549C6.37874 17.5363 6.38974 17.5197 6.3984 17.499C6.40707 17.4797 6.41374 17.4597 6.4184 17.439C6.42307 17.4177 6.4254 17.3983 6.4254 17.381C6.4254 17.3577 6.41674 17.3357 6.3994 17.315C6.38274 17.2943 6.36374 17.284 6.3424 17.284C6.32507 17.284 6.3164 17.2983 6.3164 17.327C6.3164 17.3717 6.31707 17.4117 6.3184 17.447L6.3204 17.567L6.3234 17.568ZM6.3314 17.967C6.35407 17.967 6.37474 17.9603 6.3934 17.947C6.41274 17.933 6.42774 17.9147 6.4384 17.892C6.44974 17.8693 6.4554 17.845 6.4554 17.819C6.4554 17.6997 6.42674 17.628 6.3694 17.604C6.36407 17.604 6.3554 17.6057 6.3434 17.609C6.33207 17.613 6.3244 17.615 6.3204 17.615C6.32374 17.7237 6.3254 17.8407 6.3254 17.966H6.3284L6.3314 17.967ZM6.67267 18.015C6.67067 18.015 6.668 18.0137 6.66467 18.011C6.66133 18.0083 6.65933 18.006 6.65867 18.004C6.66467 17.988 6.66767 17.9297 6.66767 17.829C6.66767 17.8097 6.66667 17.782 6.66467 17.746L6.65967 17.675L6.65367 17.662L6.65667 17.65C6.65267 17.6407 6.64667 17.625 6.63867 17.603C6.63067 17.581 6.62267 17.5587 6.61467 17.536C6.59067 17.4727 6.575 17.427 6.56767 17.399C6.56367 17.3857 6.56067 17.3733 6.55867 17.362L6.57267 17.351C6.57933 17.3523 6.589 17.3737 6.60167 17.415C6.61167 17.4443 6.62067 17.4733 6.62867 17.502L6.64067 17.54C6.65267 17.5813 6.66133 17.6027 6.66667 17.604L6.67067 17.586L6.66867 17.581C6.674 17.5743 6.68067 17.5507 6.68867 17.51C6.69733 17.4633 6.70567 17.424 6.71367 17.392C6.72233 17.3547 6.731 17.336 6.73967 17.336C6.743 17.336 6.746 17.337 6.74867 17.339C6.75133 17.341 6.75267 17.3433 6.75267 17.346C6.75267 17.356 6.74267 17.3953 6.72267 17.464C6.71267 17.4967 6.70433 17.5273 6.69767 17.556C6.68967 17.59 6.68567 17.6203 6.68567 17.647C6.689 17.6537 6.69067 17.6593 6.69067 17.664C6.69067 17.6673 6.68967 17.672 6.68767 17.678C6.68567 17.684 6.68467 17.689 6.68467 17.693C6.68467 17.6963 6.686 17.7113 6.68867 17.738C6.69133 17.756 6.69267 17.7713 6.69267 17.784C6.69267 17.8133 6.693 17.8397 6.69367 17.863V17.943V17.947C6.69367 17.9923 6.68667 18.015 6.67267 18.015ZM7.08717 18.022C7.07517 18.022 7.06583 18.0213 7.05917 18.02C7.05317 18.0193 7.0465 18.0173 7.03917 18.014C7.03117 18.01 7.02517 18.0043 7.02117 17.997C7.02117 17.989 7.02483 17.985 7.03217 17.985C7.0395 17.985 7.04883 17.9873 7.06017 17.992C7.07083 17.9973 7.07983 18 7.08717 18C7.10183 18 7.11517 17.994 7.12717 17.982C7.13983 17.97 7.1495 17.9543 7.15617 17.935C7.1695 17.897 7.17617 17.8633 7.17617 17.834C7.17617 17.8013 7.1715 17.7683 7.16217 17.735C7.15283 17.7017 7.1405 17.6703 7.12517 17.641C7.12183 17.6337 7.11617 17.6227 7.10817 17.608C7.0915 17.5747 7.07883 17.5487 7.07017 17.53C7.0615 17.5113 7.05383 17.4907 7.04717 17.468C7.03783 17.438 7.03317 17.4057 7.03317 17.371C7.03317 17.349 7.0365 17.328 7.04317 17.308C7.0505 17.2873 7.06183 17.2697 7.07717 17.255C7.09383 17.2397 7.1125 17.232 7.13317 17.232C7.14117 17.232 7.15083 17.2353 7.16217 17.242C7.1735 17.248 7.17917 17.254 7.17917 17.26C7.17917 17.2653 7.17717 17.268 7.17317 17.268C7.16917 17.268 7.16383 17.2663 7.15717 17.263C7.15117 17.2597 7.1455 17.258 7.14017 17.258C7.12483 17.258 7.11117 17.2637 7.09917 17.275C7.08783 17.2863 7.0795 17.3003 7.07417 17.317C7.0695 17.331 7.06717 17.3463 7.06717 17.363C7.06717 17.389 7.0705 17.416 7.07717 17.444C7.08383 17.4713 7.09283 17.497 7.10417 17.521L7.13917 17.594L7.14917 17.615C7.16317 17.6437 7.17383 17.6673 7.18117 17.686C7.18917 17.7047 7.19583 17.7257 7.20117 17.749C7.2085 17.7803 7.21217 17.8103 7.21217 17.839C7.21217 17.8777 7.20217 17.917 7.18217 17.957C7.17217 17.9763 7.15883 17.992 7.14217 18.004C7.1255 18.016 7.10717 18.022 7.08717 18.022ZM7.4129 17.986L7.4119 17.949C7.41124 17.9383 7.4109 17.9263 7.4109 17.913C7.4109 17.9063 7.41124 17.9007 7.4119 17.896L7.4129 17.878C7.4129 17.8713 7.41157 17.8633 7.4089 17.854C7.4089 17.8093 7.40557 17.7263 7.3989 17.605C7.39224 17.4877 7.38857 17.408 7.3879 17.366C7.34657 17.366 7.3189 17.365 7.3049 17.363C7.29157 17.3597 7.2849 17.3543 7.2849 17.347C7.28824 17.3397 7.29457 17.336 7.3039 17.336C7.3239 17.336 7.3529 17.3373 7.3909 17.34C7.42557 17.3433 7.45457 17.345 7.4779 17.345H7.4989L7.5199 17.344C7.5319 17.344 7.5379 17.3483 7.5379 17.357C7.5379 17.361 7.53557 17.3643 7.5309 17.367C7.5269 17.369 7.5219 17.37 7.5159 17.37C7.50257 17.37 7.48857 17.3693 7.4739 17.368L7.4309 17.366C7.42824 17.366 7.4269 17.367 7.4269 17.369C7.42624 17.371 7.4259 17.3773 7.4259 17.388C7.4259 17.4527 7.4299 17.5507 7.4379 17.682C7.44524 17.818 7.4489 17.9157 7.4489 17.975C7.4489 17.9797 7.4459 17.984 7.4399 17.988C7.43457 17.992 7.42924 17.994 7.4239 17.994L7.4129 17.986ZM7.74878 18.015C7.73811 18.015 7.72644 18.0113 7.71378 18.004C7.70178 17.9973 7.69178 17.9893 7.68378 17.98C7.67444 17.968 7.66711 17.9343 7.66178 17.879C7.65644 17.8237 7.65311 17.7603 7.65178 17.689C7.65178 17.673 7.65144 17.661 7.65078 17.653C7.64944 17.4857 7.64678 17.3867 7.64278 17.356L7.64878 17.342C7.66411 17.344 7.67178 17.3623 7.67178 17.397L7.67478 17.662C7.67478 17.6807 7.67644 17.716 7.67978 17.768C7.68378 17.8147 7.68578 17.85 7.68578 17.874C7.68578 17.95 7.71078 17.988 7.76078 17.988C7.79144 17.988 7.81111 17.918 7.81978 17.778L7.82078 17.758C7.82544 17.5747 7.82778 17.439 7.82778 17.351L7.82678 17.342C7.82611 17.3393 7.82578 17.3363 7.82578 17.333C7.82578 17.3257 7.83144 17.322 7.84278 17.322C7.85078 17.322 7.85578 17.324 7.85778 17.328C7.85911 17.3347 7.85978 17.3463 7.85978 17.363C7.85978 17.4137 7.85778 17.4477 7.85378 17.465L7.85478 17.471C7.85478 17.4797 7.85378 17.493 7.85178 17.511L7.84978 17.551V17.561C7.85044 17.5637 7.85078 17.567 7.85078 17.571C7.84944 17.587 7.84878 17.6023 7.84878 17.617C7.84811 17.6217 7.84778 17.629 7.84778 17.639C7.84644 17.7023 7.84511 17.7573 7.84378 17.804C7.84178 17.862 7.83378 17.911 7.81978 17.951C7.80511 17.9937 7.78144 18.015 7.74878 18.015ZM8.02399 18.012C8.01665 17.97 8.01299 17.922 8.01299 17.868C8.01299 17.8467 8.01399 17.8157 8.01599 17.775L8.01799 17.682C8.01332 17.6727 8.01099 17.665 8.01099 17.659C8.01765 17.6483 8.02099 17.6177 8.02099 17.567C8.02099 17.4457 8.01932 17.381 8.01599 17.373C8.02199 17.3563 8.02665 17.348 8.02999 17.348H8.07399C8.08132 17.348 8.09165 17.3517 8.10499 17.359C8.11899 17.3657 8.13065 17.373 8.13999 17.381C8.15665 17.3963 8.16499 17.4357 8.16499 17.499C8.16499 17.533 8.16399 17.559 8.16199 17.577C8.16065 17.5897 8.15832 17.5997 8.15499 17.607C8.15232 17.6143 8.14799 17.6227 8.14199 17.632C8.13199 17.6473 8.11499 17.6607 8.09099 17.672C8.08099 17.6773 8.06699 17.6827 8.04899 17.688V17.807C8.04899 17.8237 8.05065 17.8563 8.05399 17.905L8.05599 17.937L8.05799 18.002C8.05799 18.014 8.05165 18.02 8.03899 18.02L8.02399 18.012ZM8.05599 17.654C8.07532 17.654 8.09165 17.645 8.10499 17.627C8.10965 17.6203 8.11399 17.6113 8.11799 17.6C8.12199 17.5887 8.12465 17.5777 8.12599 17.567C8.12999 17.5477 8.13199 17.5253 8.13199 17.5V17.473C8.13199 17.4637 8.13165 17.4547 8.13099 17.446C8.13032 17.4373 8.12899 17.429 8.12699 17.421C8.12432 17.4123 8.12065 17.4053 8.11599 17.4C8.11199 17.394 8.10632 17.389 8.09899 17.385C8.09099 17.381 8.08132 17.379 8.06999 17.379C8.06199 17.379 8.05632 17.381 8.05299 17.385C8.04965 17.389 8.04799 17.396 8.04799 17.406C8.04799 17.422 8.04899 17.446 8.05099 17.478L8.05299 17.55C8.05299 17.5673 8.05232 17.583 8.05099 17.597L8.04899 17.644L8.05599 17.654ZM8.32668 18C8.31135 18 8.30235 17.9967 8.29968 17.99C8.29635 17.99 8.29368 17.9903 8.29168 17.991H8.28368C8.26902 17.991 8.25968 17.9877 8.25568 17.981C8.25568 17.9763 8.25835 17.9723 8.26368 17.969L8.26868 17.964H8.29768L8.30168 17.96L8.30368 17.951L8.30468 17.939C8.30468 17.8983 8.30368 17.862 8.30168 17.83L8.29968 17.793L8.29768 17.72C8.29768 17.694 8.29868 17.655 8.30068 17.603L8.30268 17.487C8.30268 17.4363 8.30102 17.3977 8.29768 17.371C8.29168 17.369 8.28168 17.368 8.26768 17.368L8.25668 17.369C8.25268 17.3697 8.24835 17.37 8.24368 17.37C8.23102 17.37 8.22468 17.3643 8.22468 17.353C8.22468 17.3503 8.22768 17.3477 8.23368 17.345C8.23968 17.3423 8.24468 17.341 8.24868 17.341C8.27402 17.341 8.29935 17.3423 8.32468 17.345C8.34002 17.3457 8.35535 17.3487 8.37068 17.354C8.38268 17.358 8.38868 17.3637 8.38868 17.371C8.38868 17.3723 8.38768 17.375 8.38568 17.379L8.36268 17.381C8.35802 17.377 8.34835 17.375 8.33368 17.375L8.32868 17.378C8.33068 17.384 8.33168 17.4017 8.33168 17.431C8.33168 17.475 8.33135 17.5147 8.33068 17.55L8.32868 17.669C8.32868 17.699 8.33002 17.7353 8.33268 17.778C8.33468 17.8267 8.33568 17.8633 8.33568 17.888V17.901C8.33502 17.9057 8.33468 17.9117 8.33468 17.919C8.33468 17.9343 8.33568 17.9437 8.33768 17.947L8.33668 17.949C8.33668 17.9557 8.34402 17.959 8.35868 17.959C8.36468 17.959 8.36968 17.9587 8.37368 17.958H8.38868C8.40802 17.958 8.41768 17.9627 8.41768 17.972C8.41768 17.978 8.41568 17.983 8.41168 17.987C8.40768 17.9903 8.40235 17.992 8.39568 17.992C8.38968 17.992 8.38435 17.9913 8.37968 17.99C8.37435 17.9893 8.36868 17.989 8.36268 17.989C8.35868 17.989 8.35268 17.9907 8.34468 17.994C8.33668 17.998 8.33068 18 8.32668 18ZM8.52899 18.005C8.52365 18.005 8.52099 17.996 8.52099 17.978C8.51832 17.932 8.51699 17.874 8.51699 17.804C8.51699 17.76 8.51732 17.7207 8.51799 17.686L8.51899 17.568C8.51899 17.5173 8.51765 17.4547 8.51499 17.38C8.50899 17.3747 8.50599 17.368 8.50599 17.36C8.50599 17.3553 8.50865 17.3507 8.51399 17.346C8.51999 17.3407 8.52532 17.338 8.52999 17.338C8.53532 17.338 8.54032 17.3407 8.54499 17.346L8.55599 17.355C8.55999 17.357 8.56765 17.359 8.57899 17.361C8.59032 17.363 8.59832 17.365 8.60299 17.367C8.61299 17.3723 8.62632 17.3827 8.64299 17.398C8.65899 17.414 8.66999 17.424 8.67599 17.428L8.67499 17.43C8.67565 17.434 8.68065 17.4427 8.68999 17.456C8.69732 17.466 8.70332 17.4753 8.70799 17.484C8.71865 17.5147 8.72399 17.5543 8.72399 17.603C8.72399 17.6117 8.72365 17.6193 8.72299 17.626V17.65V17.658L8.72199 17.668C8.72199 17.6807 8.72399 17.6907 8.72799 17.698C8.72399 17.7193 8.71899 17.7597 8.71299 17.819C8.71099 17.8363 8.70765 17.8547 8.70299 17.874C8.69832 17.8933 8.69265 17.9093 8.68599 17.922C8.66865 17.9547 8.63965 17.9823 8.59899 18.005H8.52899ZM8.59499 17.976C8.59965 17.9707 8.60399 17.9663 8.60799 17.963C8.60799 17.963 8.61032 17.9613 8.61499 17.958L8.62299 17.951C8.66965 17.909 8.69299 17.829 8.69299 17.711V17.692C8.69232 17.6867 8.69199 17.681 8.69199 17.675L8.68799 17.574C8.68599 17.5353 8.67432 17.4953 8.65299 17.454C8.64299 17.4333 8.62932 17.4167 8.61199 17.404C8.59532 17.3907 8.57765 17.384 8.55899 17.384C8.55099 17.384 8.54699 17.4457 8.54699 17.569C8.54699 17.7117 8.55099 17.836 8.55899 17.942L8.55799 17.961L8.56199 17.963L8.56399 17.976H8.59499ZM8.87664 18.013C8.86464 18.013 8.85798 18.006 8.85664 17.992V17.979C8.85731 17.9757 8.85764 17.9717 8.85764 17.967L8.85364 17.963C8.85898 17.949 8.86164 17.9353 8.86164 17.922C8.86164 17.9067 8.86064 17.8847 8.85864 17.856L8.85664 17.79C8.85664 17.7567 8.85764 17.7067 8.85964 17.64C8.86231 17.5807 8.86364 17.5303 8.86364 17.489L8.86164 17.429C8.86031 17.411 8.85964 17.391 8.85964 17.369C8.85964 17.359 8.86198 17.352 8.86664 17.348C8.87131 17.3433 8.87864 17.341 8.88864 17.341C8.89531 17.341 8.90064 17.343 8.90464 17.347C8.90598 17.3477 8.91564 17.349 8.93364 17.351C8.95031 17.353 8.96464 17.356 8.97664 17.36C8.98931 17.364 8.99564 17.369 8.99564 17.375C8.99564 17.3817 8.98931 17.3883 8.97664 17.395C8.93864 17.3823 8.91164 17.376 8.89564 17.376L8.89064 17.382C8.89131 17.388 8.89164 17.4023 8.89164 17.425C8.89164 17.4537 8.89098 17.4793 8.88964 17.502C8.88898 17.5253 8.88864 17.5513 8.88864 17.58C8.88864 17.5987 8.89331 17.608 8.90264 17.608L8.91864 17.607C8.92398 17.6063 8.92964 17.606 8.93564 17.606C8.96164 17.606 8.97464 17.612 8.97464 17.624C8.97464 17.6313 8.97298 17.6377 8.96964 17.643C8.96631 17.6477 8.96131 17.65 8.95464 17.65C8.94464 17.65 8.93698 17.6473 8.93164 17.642L8.89964 17.637H8.89464L8.88964 17.642V17.645C8.89098 17.6563 8.89164 17.6827 8.89164 17.724C8.89164 17.75 8.89131 17.7737 8.89064 17.795L8.88964 17.866C8.88964 17.892 8.89064 17.9187 8.89264 17.946C8.89331 17.9613 8.89664 17.9717 8.90264 17.977C8.90864 17.9817 8.91964 17.984 8.93564 17.984L8.95364 17.983C8.95964 17.9823 8.96631 17.982 8.97364 17.982C8.99298 17.982 9.00264 17.9863 9.00264 17.995C9.00264 18.007 8.98798 18.013 8.95864 18.013H8.87664ZM9.3105 18.009C9.3005 18.009 9.29417 18.0077 9.2915 18.005C9.28884 18.003 9.28684 17.997 9.2855 17.987C9.2795 17.9383 9.27584 17.908 9.2745 17.896L9.2695 17.856C9.25484 17.8527 9.23817 17.851 9.2195 17.851L9.1835 17.849C9.1675 17.847 9.15584 17.846 9.1485 17.846C9.1445 17.846 9.14217 17.8477 9.1415 17.851C9.1415 17.853 9.14117 17.854 9.1405 17.854L9.1385 17.874C9.13784 17.886 9.13417 17.91 9.1275 17.946C9.12417 17.964 9.12017 17.978 9.1155 17.988C9.11017 17.9993 9.10517 18.005 9.1005 18.005C9.0965 18.005 9.09217 18.0033 9.0875 18C9.08284 17.996 9.0805 17.992 9.0805 17.988L9.0815 17.985L9.0825 17.982C9.0945 17.9347 9.1045 17.8877 9.1125 17.841L9.1245 17.779L9.1365 17.703C9.1365 17.703 9.14017 17.681 9.1475 17.637C9.15084 17.619 9.15684 17.59 9.1655 17.55C9.17484 17.5047 9.1805 17.4737 9.1825 17.457C9.18317 17.455 9.1845 17.4427 9.1865 17.42C9.18917 17.3947 9.1915 17.376 9.1935 17.364C9.1955 17.3467 9.1975 17.3367 9.1995 17.334H9.2065C9.2085 17.3347 9.21084 17.335 9.2135 17.335C9.2215 17.335 9.2275 17.333 9.2315 17.329C9.23617 17.329 9.24017 17.3307 9.2435 17.334C9.2475 17.3367 9.2495 17.34 9.2495 17.344C9.2495 17.376 9.25184 17.4127 9.2565 17.454C9.25917 17.4753 9.26117 17.493 9.2625 17.507C9.26984 17.593 9.2885 17.7543 9.3185 17.991V17.994C9.3185 18.0007 9.31584 18.0057 9.3105 18.009ZM9.2645 17.829C9.25784 17.733 9.24517 17.5913 9.2265 17.404L9.1725 17.671C9.15717 17.7477 9.1495 17.796 9.1495 17.816C9.1495 17.8193 9.16217 17.8223 9.1875 17.825C9.21284 17.8277 9.23517 17.829 9.2545 17.829H9.2645ZM9.62398 18.009C9.61398 18.009 9.60765 18.0077 9.60498 18.005C9.60231 18.003 9.60031 17.997 9.59898 17.987C9.59298 17.9383 9.58931 17.908 9.58798 17.896L9.58298 17.856C9.56831 17.8527 9.55165 17.851 9.53298 17.851L9.49698 17.849C9.48098 17.847 9.46931 17.846 9.46198 17.846C9.45798 17.846 9.45565 17.8477 9.45498 17.851C9.45498 17.853 9.45465 17.854 9.45398 17.854L9.45198 17.874C9.45131 17.886 9.44765 17.91 9.44098 17.946C9.43765 17.964 9.43365 17.978 9.42898 17.988C9.42365 17.9993 9.41865 18.005 9.41398 18.005C9.40998 18.005 9.40565 18.0033 9.40098 18C9.39631 17.996 9.39398 17.992 9.39398 17.988L9.39498 17.985L9.39598 17.982C9.40798 17.9347 9.41798 17.8877 9.42598 17.841L9.43798 17.779L9.44998 17.703C9.44998 17.703 9.45365 17.681 9.46098 17.637C9.46431 17.619 9.47031 17.59 9.47898 17.55C9.48831 17.5047 9.49398 17.4737 9.49598 17.457C9.49665 17.455 9.49798 17.4427 9.49998 17.42C9.50265 17.3947 9.50498 17.376 9.50698 17.364C9.50898 17.3467 9.51098 17.3367 9.51298 17.334H9.51998C9.52198 17.3347 9.52431 17.335 9.52698 17.335C9.53498 17.335 9.54098 17.333 9.54498 17.329C9.54965 17.329 9.55365 17.3307 9.55698 17.334C9.56098 17.3367 9.56298 17.34 9.56298 17.344C9.56298 17.376 9.56531 17.4127 9.56998 17.454C9.57265 17.4753 9.57465 17.493 9.57598 17.507C9.58331 17.593 9.60198 17.7543 9.63198 17.991V17.994C9.63198 18.0007 9.62931 18.0057 9.62398 18.009ZM9.57798 17.829C9.57131 17.733 9.55865 17.5913 9.53998 17.404L9.48598 17.671C9.47065 17.7477 9.46298 17.796 9.46298 17.816C9.46298 17.8193 9.47565 17.8223 9.50098 17.825C9.52631 17.8277 9.54865 17.829 9.56798 17.829H9.57798Z" fill="black" fill-opacity="0.13"/>
</svg>
