<svg width="62" height="60" viewBox="0 0 62 60" fill="none" xmlns="http://www.w3.org/2000/svg">
<path d="M2.73244 59.2237C2.26235 59.2237 1.81151 59.0369 1.47911 58.7045C1.1467 58.3721 0.959961 57.9213 0.959961 57.4512C0.959961 56.9811 1.1467 56.5303 1.47911 56.1979C1.81151 55.8655 2.26235 55.6787 2.73244 55.6787H59.4517C59.9218 55.6787 60.3727 55.8655 60.7051 56.1979C61.0375 56.5303 61.2242 56.9811 61.2242 57.4512C61.2242 57.9213 61.0375 58.3721 60.7051 58.7045C60.3727 59.0369 59.9218 59.2237 59.4517 59.2237H2.73244Z" fill="#AA601F"/>
<path d="M16.9121 55.6792C16.9121 56.1493 16.7254 56.6002 16.393 56.9326C16.0606 57.265 15.6098 57.4517 15.1397 57.4517C14.6696 57.4517 14.2187 57.265 13.8863 56.9326C13.5539 56.6002 13.3672 56.1493 13.3672 55.6792V10.6867C13.3672 5.24161 17.2737 0.732422 22.2296 0.732422H39.9544C44.9102 0.732422 48.8167 5.24161 48.8167 10.6867V55.6792C48.8167 56.1493 48.63 56.6002 48.2976 56.9326C47.9652 57.265 47.5144 57.4517 47.0443 57.4517C46.5742 57.4517 46.1233 57.265 45.7909 56.9326C45.4585 56.6002 45.2718 56.1493 45.2718 55.6792V10.6867C45.2718 7.09562 42.8293 4.27738 39.9544 4.27738H22.2296C19.3546 4.27738 16.9121 7.09562 16.9121 10.6867V55.6792Z" fill="#AA601F"/>
<path d="M24.002 9.59473H27.5469C28.017 9.59473 28.4679 9.78147 28.8003 10.1139C29.1327 10.4463 29.3194 10.8971 29.3194 11.3672V14.9122C29.3194 15.3823 29.1327 15.8331 28.8003 16.1655C28.4679 16.4979 28.017 16.6846 27.5469 16.6846H24.002C23.5319 16.6846 23.081 16.4979 22.7486 16.1655C22.4162 15.8331 22.2295 15.3823 22.2295 14.9122V11.3672C22.2295 10.8971 22.4162 10.4463 22.7486 10.1139C23.081 9.78147 23.5319 9.59473 24.002 9.59473ZM34.6368 9.59473H38.1818C38.6519 9.59473 39.1027 9.78147 39.4351 10.1139C39.7675 10.4463 39.9543 10.8971 39.9543 11.3672V14.9122C39.9543 15.3823 39.7675 15.8331 39.4351 16.1655C39.1027 16.4979 38.6519 16.6846 38.1818 16.6846H34.6368C34.1667 16.6846 33.7159 16.4979 33.3835 16.1655C33.0511 15.8331 32.8644 15.3823 32.8644 14.9122V11.3672C32.8644 10.8971 33.0511 10.4463 33.3835 10.1139C33.7159 9.78147 34.1667 9.59473 34.6368 9.59473ZM34.6368 20.2296H38.1818C38.6519 20.2296 39.1027 20.4163 39.4351 20.7487C39.7675 21.0811 39.9543 21.532 39.9543 22.0021V25.547C39.9543 26.0171 39.7675 26.468 39.4351 26.8004C39.1027 27.1328 38.6519 27.3195 38.1818 27.3195H34.6368C34.1667 27.3195 33.7159 27.1328 33.3835 26.8004C33.0511 26.468 32.8644 26.0171 32.8644 25.547V22.0021C32.8644 21.532 33.0511 21.0811 33.3835 20.7487C33.7159 20.4163 34.1667 20.2296 34.6368 20.2296ZM34.6368 30.8645H38.1818C38.6519 30.8645 39.1027 31.0512 39.4351 31.3836C39.7675 31.716 39.9543 32.1669 39.9543 32.6369V36.1819C39.9543 36.652 39.7675 37.1028 39.4351 37.4352C39.1027 37.7676 38.6519 37.9544 38.1818 37.9544H34.6368C34.1667 37.9544 33.7159 37.7676 33.3835 37.4352C33.0511 37.1028 32.8644 36.652 32.8644 36.1819V32.6369C32.8644 32.1669 33.0511 31.716 33.3835 31.3836C33.7159 31.0512 34.1667 30.8645 34.6368 30.8645ZM34.6368 41.4993H38.1818C38.6519 41.4993 39.1027 41.6861 39.4351 42.0185C39.7675 42.3509 39.9543 42.8017 39.9543 43.2718V46.8168C39.9543 47.2869 39.7675 47.7377 39.4351 48.0701C39.1027 48.4025 38.6519 48.5892 38.1818 48.5892H34.6368C34.1667 48.5892 33.7159 48.4025 33.3835 48.0701C33.0511 47.7377 32.8644 47.2869 32.8644 46.8168V43.2718C32.8644 42.8017 33.0511 42.3509 33.3835 42.0185C33.7159 41.6861 34.1667 41.4993 34.6368 41.4993ZM24.002 20.2296H27.5469C28.017 20.2296 28.4679 20.4163 28.8003 20.7487C29.1327 21.0811 29.3194 21.532 29.3194 22.0021V25.547C29.3194 26.0171 29.1327 26.468 28.8003 26.8004C28.4679 27.1328 28.017 27.3195 27.5469 27.3195H24.002C23.5319 27.3195 23.081 27.1328 22.7486 26.8004C22.4162 26.468 22.2295 26.0171 22.2295 25.547V22.0021C22.2295 21.532 22.4162 21.0811 22.7486 20.7487C23.081 20.4163 23.5319 20.2296 24.002 20.2296ZM24.002 41.4993H27.5469C28.017 41.4993 28.4679 41.6861 28.8003 42.0185C29.1327 42.3509 29.3194 42.8017 29.3194 43.2718V46.8168C29.3194 47.2869 29.1327 47.7377 28.8003 48.0701C28.4679 48.4025 28.017 48.5892 27.5469 48.5892H24.002C23.5319 48.5892 23.081 48.4025 22.7486 48.0701C22.4162 47.7377 22.2295 47.2869 22.2295 46.8168V43.2718C22.2295 42.8017 22.4162 42.3509 22.7486 42.0185C23.081 41.6861 23.5319 41.4993 24.002 41.4993ZM24.002 30.8645H27.5469C28.017 30.8645 28.4679 31.0512 28.8003 31.3836C29.1327 31.716 29.3194 32.1669 29.3194 32.6369V36.1819C29.3194 36.652 29.1327 37.1028 28.8003 37.4352C28.4679 37.7676 28.017 37.9544 27.5469 37.9544H24.002C23.5319 37.9544 23.081 37.7676 22.7486 37.4352C22.4162 37.1028 22.2295 36.652 22.2295 36.1819V32.6369C22.2295 32.1669 22.4162 31.716 22.7486 31.3836C23.081 31.0512 23.5319 30.8645 24.002 30.8645Z" fill="#AA601F"/>
</svg>
