<svg width="61" height="60" viewBox="0 0 61 60" fill="none" xmlns="http://www.w3.org/2000/svg">
<path d="M1.97658 59.1397C1.50649 59.1397 1.05565 58.9529 0.723249 58.6205C0.390845 58.2881 0.204102 57.8373 0.204102 57.3672C0.204102 56.8971 0.390845 56.4463 0.723249 56.1139C1.05565 55.7815 1.50649 55.5947 1.97658 55.5947H58.6959C59.166 55.5947 59.6168 55.7815 59.9492 56.1139C60.2816 56.4463 60.4684 56.8971 60.4684 57.3672C60.4684 57.8373 60.2816 58.2881 59.9492 58.6205C59.6168 58.9529 59.166 59.1397 58.6959 59.1397H1.97658Z" fill="#F8AF41"/>
<path d="M16.1563 55.5953C16.1563 56.0654 15.9695 56.5162 15.6371 56.8486C15.3047 57.181 14.8539 57.3677 14.3838 57.3677C13.9137 57.3677 13.4629 57.181 13.1305 56.8486C12.7981 56.5162 12.6113 56.0654 12.6113 55.5953V10.6027C12.6113 5.15762 16.5179 0.648438 21.4737 0.648438H39.1985C44.1543 0.648438 48.0609 5.15762 48.0609 10.6027V55.5953C48.0609 56.0654 47.8741 56.5162 47.5417 56.8486C47.2093 57.181 46.7585 57.3677 46.2884 57.3677C45.8183 57.3677 45.3675 57.181 45.0351 56.8486C44.7027 56.5162 44.5159 56.0654 44.5159 55.5953V10.6027C44.5159 7.01163 42.0735 4.19339 39.1985 4.19339H21.4737C18.5988 4.19339 16.1563 7.01163 16.1563 10.6027V55.5953Z" fill="#F8AF41"/>
<path d="M23.2461 9.51074H26.7911C27.2612 9.51074 27.712 9.69749 28.0444 10.0299C28.3768 10.3623 28.5635 10.8131 28.5635 11.2832V14.8282C28.5635 15.2983 28.3768 15.7491 28.0444 16.0815C27.712 16.4139 27.2612 16.6007 26.7911 16.6007H23.2461C22.776 16.6007 22.3252 16.4139 21.9928 16.0815C21.6604 15.7491 21.4736 15.2983 21.4736 14.8282V11.2832C21.4736 10.8131 21.6604 10.3623 21.9928 10.0299C22.3252 9.69749 22.776 9.51074 23.2461 9.51074ZM33.881 9.51074H37.4259C37.896 9.51074 38.3469 9.69749 38.6793 10.0299C39.0117 10.3623 39.1984 10.8131 39.1984 11.2832V14.8282C39.1984 15.2983 39.0117 15.7491 38.6793 16.0815C38.3469 16.4139 37.896 16.6007 37.4259 16.6007H33.881C33.4109 16.6007 32.9601 16.4139 32.6276 16.0815C32.2952 15.7491 32.1085 15.2983 32.1085 14.8282V11.2832C32.1085 10.8131 32.2952 10.3623 32.6276 10.0299C32.9601 9.69749 33.4109 9.51074 33.881 9.51074ZM33.881 20.1456H37.4259C37.896 20.1456 38.3469 20.3324 38.6793 20.6648C39.0117 20.9972 39.1984 21.448 39.1984 21.9181V25.463C39.1984 25.9331 39.0117 26.384 38.6793 26.7164C38.3469 27.0488 37.896 27.2355 37.4259 27.2355H33.881C33.4109 27.2355 32.9601 27.0488 32.6276 26.7164C32.2952 26.384 32.1085 25.9331 32.1085 25.463V21.9181C32.1085 21.448 32.2952 20.9972 32.6276 20.6648C32.9601 20.3324 33.4109 20.1456 33.881 20.1456ZM33.881 30.7805H37.4259C37.896 30.7805 38.3469 30.9672 38.6793 31.2996C39.0117 31.632 39.1984 32.0829 39.1984 32.553V36.0979C39.1984 36.568 39.0117 37.0188 38.6793 37.3512C38.3469 37.6837 37.896 37.8704 37.4259 37.8704H33.881C33.4109 37.8704 32.9601 37.6837 32.6276 37.3512C32.2952 37.0188 32.1085 36.568 32.1085 36.0979V32.553C32.1085 32.0829 32.2952 31.632 32.6276 31.2996C32.9601 30.9672 33.4109 30.7805 33.881 30.7805ZM33.881 41.4153H37.4259C37.896 41.4153 38.3469 41.6021 38.6793 41.9345C39.0117 42.2669 39.1984 42.7177 39.1984 43.1878V46.7328C39.1984 47.2029 39.0117 47.6537 38.6793 47.9861C38.3469 48.3185 37.896 48.5053 37.4259 48.5053H33.881C33.4109 48.5053 32.9601 48.3185 32.6276 47.9861C32.2952 47.6537 32.1085 47.2029 32.1085 46.7328V43.1878C32.1085 42.7177 32.2952 42.2669 32.6276 41.9345C32.9601 41.6021 33.4109 41.4153 33.881 41.4153ZM23.2461 20.1456H26.7911C27.2612 20.1456 27.712 20.3324 28.0444 20.6648C28.3768 20.9972 28.5635 21.448 28.5635 21.9181V25.463C28.5635 25.9331 28.3768 26.384 28.0444 26.7164C27.712 27.0488 27.2612 27.2355 26.7911 27.2355H23.2461C22.776 27.2355 22.3252 27.0488 21.9928 26.7164C21.6604 26.384 21.4736 25.9331 21.4736 25.463V21.9181C21.4736 21.448 21.6604 20.9972 21.9928 20.6648C22.3252 20.3324 22.776 20.1456 23.2461 20.1456ZM23.2461 41.4153H26.7911C27.2612 41.4153 27.712 41.6021 28.0444 41.9345C28.3768 42.2669 28.5635 42.7177 28.5635 43.1878V46.7328C28.5635 47.2029 28.3768 47.6537 28.0444 47.9861C27.712 48.3185 27.2612 48.5053 26.7911 48.5053H23.2461C22.776 48.5053 22.3252 48.3185 21.9928 47.9861C21.6604 47.6537 21.4736 47.2029 21.4736 46.7328V43.1878C21.4736 42.7177 21.6604 42.2669 21.9928 41.9345C22.3252 41.6021 22.776 41.4153 23.2461 41.4153ZM23.2461 30.7805H26.7911C27.2612 30.7805 27.712 30.9672 28.0444 31.2996C28.3768 31.632 28.5635 32.0829 28.5635 32.553V36.0979C28.5635 36.568 28.3768 37.0188 28.0444 37.3512C27.712 37.6837 27.2612 37.8704 26.7911 37.8704H23.2461C22.776 37.8704 22.3252 37.6837 21.9928 37.3512C21.6604 37.0188 21.4736 36.568 21.4736 36.0979V32.553C21.4736 32.0829 21.6604 31.632 21.9928 31.2996C22.3252 30.9672 22.776 30.7805 23.2461 30.7805Z" fill="#F8AF41"/>
</svg>
